<?xml version="1.0" encoding="UTF-8"?>
<!DOCTYPE svg PUBLIC "-//W3C//DTD SVG 1.1//EN" "http://www.w3.org/Graphics/SVG/1.1/DTD/svg11.dtd">
<!-- Creator: CorelDRAW -->
<svg xmlns="http://www.w3.org/2000/svg" xml:space="preserve" width="58mm" height="90mm" style="shape-rendering:geometricPrecision; text-rendering:geometricPrecision; image-rendering:optimizeQuality; fill-rule:evenodd; clip-rule:evenodd"
viewBox="0 0 58 90"
 xmlns:xlink="http://www.w3.org/1999/xlink">
 <defs>
  <style type="text/css">
   <![CDATA[
    .str0 {stroke:black;stroke-width:0.25}
    .str1 {stroke:#FE0000;stroke-width:0.5}
    .fil1 {fill:none}
    .fil2 {fill:#FE0000}
    .fil0 {fill:white}
    .fil3 {fill:#FE0000;fill-rule:nonzero}
   ]]>
  </style>
 </defs>
 <g id="Camada_x0020_1">
  <metadata id="CorelCorpID_0Corel-Layer"/>
  <rect id="Carta" class="fil0 str0" x="0.499998" y="0.500029" width="57" height="89" rx="2.6308" ry="2.6308"/>
  <rect id="Centralizador_x0020_Inferior" class="fil1" x="46.5246" y="75.1555" width="7.3537" height="8.2925"/>
  <rect id="Centralizador" class="fil1" x="4.1201" y="6.5593" width="7.3542" height="8.2955"/>
  <rect id="Retângulo_x0020_Vermelho" class="fil1 str1" x="15.0661" y="20.1219" width="27.8678" height="49.7562" rx="1.2862" ry="1.2862"/>
  <path id="Copas_x0020_Inferior" class="fil2" d="M52.2518 67.6122c0.978,-0.0755 1.5851,-0.7473 1.6189,-1.5957l0 -0.151c-0.0081,-0.2055 -0.0489,-0.4194 -0.1253,-0.6364 -0.2763,-0.7844 -1.1694,-1.7726 -1.7146,-2.4305 -0.6682,-0.8062 -1.2085,-1.5431 -1.6099,-2.519 -0.0544,-0.1323 -0.1751,-0.783 -0.3374,-0.2997 -0.2497,0.7435 -0.6256,1.3817 -1.1073,2.0084 -0.5887,0.766 -1.2996,1.5042 -1.8317,2.2956 -1.484,2.207 0.0544,3.5924 1.5767,3.3022 0.6591,-0.1256 1.1348,-0.5921 1.4179,-1.1775 0.1395,-0.2885 0.1038,0.1714 0.6045,0.6659 0.4116,0.4065 0.9361,0.5818 1.5082,0.5377z"/>
  <path id="Copas_x0020_Central" class="fil2" d="M26.9513 41.0959c-0.9795,0.0756 -1.5876,0.7484 -1.6214,1.5981l0 0.1513c0.0081,0.2058 0.049,0.4201 0.1255,0.6374 0.2768,0.7855 1.1712,1.7753 1.7172,2.4342 0.6693,0.8075 1.2104,1.5455 1.6124,2.5229 0.0545,0.1326 0.1754,0.7843 0.338,0.3001 0.2501,-0.7446 0.6266,-1.3838 1.109,-2.0114 0.5896,-0.7672 1.3015,-1.5066 1.8344,-2.2991 1.4864,-2.2104 -0.0544,-3.598 -1.579,-3.3074 -0.6602,0.1258 -1.1366,0.5931 -1.4201,1.1794 -0.1397,0.2889 -0.104,-0.1717 -0.6055,-0.667 -0.4122,-0.4071 -0.9375,-0.5827 -1.5105,-0.5385z"/>
  <path id="Copas" class="fil2" d="M5.7355 22.5633c-0.9795,0.0756 -1.5876,0.7484 -1.6214,1.5981l0 0.1513c0.0081,0.2058 0.049,0.4201 0.1255,0.6374 0.2768,0.7855 1.1712,1.7753 1.7172,2.4342 0.6693,0.8075 1.2104,1.5455 1.6124,2.5229 0.0545,0.1326 0.1754,0.7843 0.338,0.3001 0.2501,-0.7446 0.6266,-1.3838 1.109,-2.0114 0.5896,-0.7672 1.3015,-1.5066 1.8344,-2.2991 1.4864,-2.2104 -0.0544,-3.598 -1.579,-3.3074 -0.6602,0.1258 -1.1366,0.5931 -1.4201,1.1794 -0.1397,0.2889 -0.104,-0.1717 -0.6055,-0.667 -0.4122,-0.4071 -0.9375,-0.5827 -1.5105,-0.5385z"/>
  <path id="_3_x0020_Inferior" class="fil3" d="M49.9673 83.1188c0.2544,0 0.5132,-0.0152 0.7719,-0.0478 0.2567,-0.0326 0.5046,-0.087 0.7394,-0.1609 0.2349,-0.0762 0.4436,-0.1762 0.6285,-0.3023 0.1848,-0.124 0.3305,-0.2805 0.4371,-0.4654 0.1065,-0.1826 0.1609,-0.4023 0.1631,-0.6545 -0.0022,-0.1805 -0.0479,-0.3436 -0.1349,-0.4915 -0.0869,-0.1479 -0.2044,-0.2653 -0.3522,-0.3523 -0.1479,-0.087 -0.311,-0.1326 -0.4915,-0.1348 -0.1805,0.0022 -0.3392,0.0435 -0.4784,0.1283 -0.1392,0.0826 -0.2479,0.1957 -0.3262,0.3392 -0.0805,0.1436 -0.1196,0.3045 -0.1218,0.485 0.0022,0.15 0.0283,0.2914 0.0783,0.424 0.05,0.1327 0.1153,0.261 0.1957,0.3849 -0.0544,0.0479 -0.1109,0.0892 -0.1674,0.124 -0.0566,0.0348 -0.1196,0.063 -0.1914,0.0826 -0.0696,0.0174 -0.1566,0.0283 -0.2544,0.0283 -0.1479,-0.0022 -0.2805,-0.0435 -0.4023,-0.1261 -0.1218,-0.0805 -0.2262,-0.1871 -0.3132,-0.3197 -0.0891,-0.1305 -0.1565,-0.274 -0.2044,-0.4284 -0.0478,-0.1566 -0.0717,-0.3066 -0.0717,-0.4567 0,-0.3762 0.0739,-0.6937 0.2218,-0.959 0.15,-0.2631 0.3805,-0.4653 0.6915,-0.6045 0.3088,-0.1392 0.7046,-0.2088 1.1873,-0.2109l0 -0.6263c-0.3175,0.0021 -0.6067,-0.0153 -0.8676,-0.0566 -0.261,-0.0413 -0.4872,-0.1239 -0.6763,-0.2457 -0.1914,-0.1218 -0.3371,-0.3023 -0.4393,-0.5393 -0.1044,-0.2392 -0.1566,-0.5545 -0.1566,-0.946 0,-0.1783 0.0239,-0.3544 0.074,-0.5284 0.05,-0.1718 0.1217,-0.3305 0.2152,-0.474 0.0957,-0.1414 0.211,-0.2545 0.3501,-0.3415 0.137,-0.0848 0.2936,-0.1283 0.4698,-0.1304 0.1522,0.0021 0.2935,0.0369 0.4218,0.1022 0.1283,0.0674 0.2284,0.15 0.2958,0.2501 -0.087,0.0956 -0.1631,0.1978 -0.2262,0.3087 -0.063,0.1131 -0.0978,0.2479 -0.1,0.4089 0.0022,0.1892 0.0478,0.361 0.1348,0.5132 0.0892,0.1522 0.2088,0.274 0.361,0.3653 0.15,0.0913 0.3197,0.137 0.5089,0.1392 0.1804,-0.0022 0.3457,-0.0435 0.4979,-0.1283 0.1523,-0.0827 0.274,-0.1957 0.3654,-0.3393 0.0913,-0.1435 0.1391,-0.3044 0.1413,-0.4849 -0.0022,-0.2435 -0.0522,-0.4588 -0.15,-0.648 -0.0979,-0.1892 -0.2305,-0.3523 -0.4002,-0.4915 -0.1696,-0.1392 -0.3653,-0.2522 -0.5827,-0.3436 -0.2175,-0.0891 -0.4502,-0.1565 -0.6916,-0.2 -0.2435,-0.0435 -0.4893,-0.0653 -0.7328,-0.0653 -0.3414,0 -0.672,0.0196 -0.9938,0.0631 -0.3218,0.0413 -0.6219,0.1087 -0.9003,0.2022 -0.2783,0.0914 -0.5241,0.2153 -0.7328,0.3654 -0.211,0.1522 -0.3762,0.337 -0.4937,0.5567 -0.1174,0.2196 -0.1783,0.4762 -0.1805,0.7698 0.0022,0.361 0.0762,0.6741 0.2219,0.9372 0.1457,0.2631 0.3479,0.4828 0.6088,0.6633 0.2632,0.1783 0.5698,0.3218 0.9199,0.4305 0.3501,0.1088 0.7328,0.1892 1.146,0.2393 -0.2544,0.0369 -0.511,0.0848 -0.7698,0.15 -0.2566,0.0631 -0.5023,0.1457 -0.7372,0.2479 -0.2327,0.1 -0.4414,0.224 -0.6241,0.3697 -0.1827,0.1479 -0.3284,0.3197 -0.4327,0.5219 -0.1066,0.2001 -0.161,0.4306 -0.1631,0.6937 0.0021,0.2609 0.0543,0.498 0.1565,0.7111 0.1022,0.2109 0.2436,0.3979 0.4219,0.561 0.1805,0.1609 0.3849,0.2958 0.6154,0.4067 0.2327,0.1087 0.4784,0.1913 0.7372,0.2479 0.2588,0.0543 0.5197,0.0826 0.7829,0.0826l0 0z"/>
  <path id="_3" class="fil3" d="M8.032 6.7914c-0.2544,0 -0.5132,0.0152 -0.7719,0.0478 -0.2567,0.0326 -0.5046,0.087 -0.7394,0.1609 -0.2349,0.0762 -0.4436,0.1762 -0.6285,0.3023 -0.1848,0.124 -0.3305,0.2805 -0.4371,0.4654 -0.1065,0.1826 -0.1609,0.4023 -0.1631,0.6545 0.0022,0.1805 0.0479,0.3436 0.1349,0.4915 0.0869,0.1479 0.2044,0.2653 0.3522,0.3523 0.1479,0.087 0.311,0.1326 0.4915,0.1348 0.1805,-0.0022 0.3392,-0.0435 0.4784,-0.1283 0.1392,-0.0826 0.2479,-0.1957 0.3262,-0.3392 0.0805,-0.1436 0.1196,-0.3045 0.1218,-0.485 -0.0022,-0.15 -0.0283,-0.2914 -0.0783,-0.424 -0.05,-0.1327 -0.1153,-0.261 -0.1957,-0.3849 0.0544,-0.0479 0.1109,-0.0892 0.1674,-0.124 0.0566,-0.0348 0.1196,-0.063 0.1914,-0.0826 0.0696,-0.0174 0.1566,-0.0283 0.2544,-0.0283 0.1479,0.0022 0.2805,0.0435 0.4023,0.1261 0.1218,0.0805 0.2262,0.1871 0.3132,0.3197 0.0891,0.1305 0.1565,0.274 0.2044,0.4284 0.0478,0.1566 0.0717,0.3066 0.0717,0.4567 0,0.3762 -0.0739,0.6937 -0.2218,0.959 -0.15,0.2631 -0.3805,0.4653 -0.6915,0.6045 -0.3088,0.1392 -0.7046,0.2088 -1.1873,0.2109l0 0.6263c0.3175,-0.0021 0.6067,0.0153 0.8676,0.0566 0.261,0.0413 0.4872,0.1239 0.6763,0.2457 0.1914,0.1218 0.3371,0.3023 0.4393,0.5393 0.1044,0.2392 0.1566,0.5545 0.1566,0.946 0,0.1783 -0.0239,0.3544 -0.074,0.5284 -0.05,0.1718 -0.1217,0.3305 -0.2152,0.474 -0.0957,0.1414 -0.211,0.2545 -0.3501,0.3415 -0.137,0.0848 -0.2936,0.1283 -0.4698,0.1304 -0.1522,-0.0021 -0.2935,-0.0369 -0.4218,-0.1022 -0.1283,-0.0674 -0.2284,-0.15 -0.2958,-0.2501 0.087,-0.0956 0.1631,-0.1978 0.2262,-0.3087 0.063,-0.1131 0.0978,-0.2479 0.1,-0.4089 -0.0022,-0.1892 -0.0478,-0.361 -0.1348,-0.5132 -0.0892,-0.1522 -0.2088,-0.274 -0.361,-0.3653 -0.15,-0.0913 -0.3197,-0.137 -0.5089,-0.1392 -0.1804,0.0022 -0.3457,0.0435 -0.4979,0.1283 -0.1523,0.0827 -0.274,0.1957 -0.3654,0.3393 -0.0913,0.1435 -0.1391,0.3044 -0.1413,0.4849 0.0022,0.2435 0.0522,0.4588 0.15,0.648 0.0979,0.1892 0.2305,0.3523 0.4002,0.4915 0.1696,0.1392 0.3653,0.2522 0.5827,0.3436 0.2175,0.0891 0.4502,0.1565 0.6916,0.2 0.2435,0.0435 0.4893,0.0653 0.7328,0.0653 0.3414,0 0.672,-0.0196 0.9938,-0.0631 0.3218,-0.0413 0.6219,-0.1087 0.9003,-0.2022 0.2783,-0.0914 0.5241,-0.2153 0.7328,-0.3654 0.211,-0.1522 0.3762,-0.337 0.4937,-0.5567 0.1174,-0.2196 0.1783,-0.4762 0.1805,-0.7698 -0.0022,-0.361 -0.0762,-0.6741 -0.2219,-0.9372 -0.1457,-0.2631 -0.3479,-0.4828 -0.6088,-0.6633 -0.2632,-0.1783 -0.5698,-0.3218 -0.9199,-0.4305 -0.3501,-0.1088 -0.7328,-0.1892 -1.146,-0.2393 0.2544,-0.0369 0.511,-0.0848 0.7698,-0.15 0.2566,-0.0631 0.5023,-0.1457 0.7372,-0.2479 0.2327,-0.1 0.4414,-0.224 0.6241,-0.3697 0.1827,-0.1479 0.3284,-0.3197 0.4327,-0.5219 0.1066,-0.2001 0.161,-0.4306 0.1631,-0.6937 -0.0021,-0.2609 -0.0543,-0.498 -0.1565,-0.7111 -0.1022,-0.2109 -0.2436,-0.3979 -0.4219,-0.561 -0.1805,-0.1609 -0.3849,-0.2958 -0.6154,-0.4067 -0.2327,-0.1087 -0.4784,-0.1913 -0.7372,-0.2479 -0.2588,-0.0543 -0.5197,-0.0826 -0.7829,-0.0826l0 0z"/>
 </g>
</svg>
