<?xml version="1.0" encoding="UTF-8"?>
<!DOCTYPE svg PUBLIC "-//W3C//DTD SVG 1.1//EN" "http://www.w3.org/Graphics/SVG/1.1/DTD/svg11.dtd">
<!-- Creator: CorelDRAW -->
<svg xmlns="http://www.w3.org/2000/svg" xml:space="preserve" width="58mm" height="90mm" style="shape-rendering:geometricPrecision; text-rendering:geometricPrecision; image-rendering:optimizeQuality; fill-rule:evenodd; clip-rule:evenodd"
viewBox="0 0 58 90"
 xmlns:xlink="http://www.w3.org/1999/xlink">
 <defs>
  <style type="text/css">
   <![CDATA[
    .str0 {stroke:black;stroke-width:0.25}
    .str1 {stroke:#FE0000;stroke-width:0.5}
    .fil1 {fill:none}
    .fil2 {fill:#FE0000}
    .fil0 {fill:white}
    .fil3 {fill:#FE0000;fill-rule:nonzero}
   ]]>
  </style>
 </defs>
 <g id="Camada_x0020_1">
  <metadata id="CorelCorpID_0Corel-Layer"/>
  <rect id="Carta" class="fil0 str0" x="0.499998" y="0.500029" width="57" height="89" rx="2.6308" ry="2.6308"/>
  <rect id="Centralizador_x0020_Inferior" class="fil1" x="46.5246" y="75.1555" width="7.3537" height="8.2925"/>
  <rect id="Centralizador" class="fil1" x="4.1201" y="6.5593" width="7.3542" height="8.2955"/>
  <rect id="Retângulo_x0020_Vermelho" class="fil1 str1" x="15.0661" y="20.1219" width="27.8678" height="49.7562" rx="1.2862" ry="1.2862"/>
  <path id="Copas_x0020_Inferior" class="fil2" d="M52.2518 67.6122c0.978,-0.0755 1.5851,-0.7473 1.6189,-1.5957l0 -0.151c-0.0081,-0.2055 -0.0489,-0.4194 -0.1253,-0.6364 -0.2763,-0.7844 -1.1694,-1.7726 -1.7146,-2.4305 -0.6682,-0.8062 -1.2085,-1.5431 -1.6099,-2.519 -0.0544,-0.1323 -0.1751,-0.783 -0.3374,-0.2997 -0.2497,0.7435 -0.6256,1.3817 -1.1073,2.0084 -0.5887,0.766 -1.2996,1.5042 -1.8317,2.2956 -1.484,2.207 0.0544,3.5924 1.5767,3.3022 0.6591,-0.1256 1.1348,-0.5921 1.4179,-1.1775 0.1395,-0.2885 0.1038,0.1714 0.6045,0.6659 0.4116,0.4065 0.9361,0.5818 1.5082,0.5377z"/>
  <path id="Copas_x0020_Central" class="fil2" d="M26.9513 41.0959c-0.9795,0.0756 -1.5876,0.7484 -1.6214,1.5981l0 0.1513c0.0081,0.2058 0.049,0.4201 0.1255,0.6374 0.2768,0.7855 1.1712,1.7753 1.7172,2.4342 0.6693,0.8075 1.2104,1.5455 1.6124,2.5229 0.0545,0.1326 0.1754,0.7843 0.338,0.3001 0.2501,-0.7446 0.6266,-1.3838 1.109,-2.0114 0.5896,-0.7672 1.3015,-1.5066 1.8344,-2.2991 1.4864,-2.2104 -0.0544,-3.598 -1.579,-3.3074 -0.6602,0.1258 -1.1366,0.5931 -1.4201,1.1794 -0.1397,0.2889 -0.104,-0.1717 -0.6055,-0.667 -0.4122,-0.4071 -0.9375,-0.5827 -1.5105,-0.5385z"/>
  <path id="Copas" class="fil2" d="M5.7355 22.5633c-0.9795,0.0756 -1.5876,0.7484 -1.6214,1.5981l0 0.1513c0.0081,0.2058 0.049,0.4201 0.1255,0.6374 0.2768,0.7855 1.1712,1.7753 1.7172,2.4342 0.6693,0.8075 1.2104,1.5455 1.6124,2.5229 0.0545,0.1326 0.1754,0.7843 0.338,0.3001 0.2501,-0.7446 0.6266,-1.3838 1.109,-2.0114 0.5896,-0.7672 1.3015,-1.5066 1.8344,-2.2991 1.4864,-2.2104 -0.0544,-3.598 -1.579,-3.3074 -0.6602,0.1258 -1.1366,0.5931 -1.4201,1.1794 -0.1397,0.2889 -0.104,-0.1717 -0.6055,-0.667 -0.4122,-0.4071 -0.9375,-0.5827 -1.5105,-0.5385z"/>
  <path id="_4_x0020_Inferior" class="fil3" d="M50.3978 77.4431l2.1398 0 -2.1398 3.3532 0 -3.3532zm0 -0.7698l0 -0.835 0.6524 0 0 -0.7829 -3.4054 0 0 0.7829 0.6523 0 0 0.835 -1.2786 0 0 0.7698 1.2264 0 0.0783 5.7018 1.3178 0 3.6142 -5.6366 0 -0.835 -2.8574 0z"/>
  <path id="_4" class="fil3" d="M7.6015 12.4671l-2.1398 0 2.1398 -3.3532 0 3.3532zm0 0.7698l0 0.835 -0.6524 0 0 0.7829 3.4054 0 0 -0.7829 -0.6523 0 0 -0.835 1.2786 0 0 -0.7698 -1.2264 0 -0.0783 -5.7018 -1.3178 0 -3.6142 5.6366 0 0.835 2.8574 0z"/>
 </g>
</svg>
