<?xml version="1.0" encoding="UTF-8"?>
<!DOCTYPE svg PUBLIC "-//W3C//DTD SVG 1.1//EN" "http://www.w3.org/Graphics/SVG/1.1/DTD/svg11.dtd">
<!-- Creator: CorelDRAW -->
<svg xmlns="http://www.w3.org/2000/svg" xml:space="preserve" width="58mm" height="90mm" style="shape-rendering:geometricPrecision; text-rendering:geometricPrecision; image-rendering:optimizeQuality; fill-rule:evenodd; clip-rule:evenodd"
viewBox="0 0 58 90"
 xmlns:xlink="http://www.w3.org/1999/xlink">
 <defs>
  <style type="text/css">
   <![CDATA[
    .str0 {stroke:black;stroke-width:0.25}
    .str1 {stroke:#FE0000;stroke-width:0.5}
    .fil1 {fill:none}
    .fil2 {fill:#FE0000}
    .fil0 {fill:white}
    .fil3 {fill:#FE0000;fill-rule:nonzero}
   ]]>
  </style>
 </defs>
 <g id="Camada_x0020_1">
  <metadata id="CorelCorpID_0Corel-Layer"/>
  <rect id="Carta" class="fil0 str0" x="0.499998" y="0.500029" width="57" height="89" rx="2.6308" ry="2.6308"/>
  <rect id="Centralizador_x0020_Inferior" class="fil1" x="46.5246" y="75.1555" width="7.3537" height="8.2925"/>
  <rect id="Centralizador" class="fil1" x="4.1201" y="6.5593" width="7.3542" height="8.2955"/>
  <rect id="Retângulo_x0020_Vermelho" class="fil1 str1" x="15.0661" y="20.1219" width="27.8678" height="49.7562" rx="1.2862" ry="1.2862"/>
  <path id="Copas_x0020_Inferior" class="fil2" d="M52.2518 67.6122c0.978,-0.0755 1.5851,-0.7473 1.6189,-1.5957l0 -0.151c-0.0081,-0.2055 -0.0489,-0.4194 -0.1253,-0.6364 -0.2763,-0.7844 -1.1694,-1.7726 -1.7146,-2.4305 -0.6682,-0.8062 -1.2085,-1.5431 -1.6099,-2.519 -0.0544,-0.1323 -0.1751,-0.783 -0.3374,-0.2997 -0.2497,0.7435 -0.6256,1.3817 -1.1073,2.0084 -0.5887,0.766 -1.2996,1.5042 -1.8317,2.2956 -1.484,2.207 0.0544,3.5924 1.5767,3.3022 0.6591,-0.1256 1.1348,-0.5921 1.4179,-1.1775 0.1395,-0.2885 0.1038,0.1714 0.6045,0.6659 0.4116,0.4065 0.9361,0.5818 1.5082,0.5377z"/>
  <path id="Copas_x0020_Central" class="fil2" d="M26.9513 41.0959c-0.9795,0.0756 -1.5876,0.7484 -1.6214,1.5981l0 0.1513c0.0081,0.2058 0.049,0.4201 0.1255,0.6374 0.2768,0.7855 1.1712,1.7753 1.7172,2.4342 0.6693,0.8075 1.2104,1.5455 1.6124,2.5229 0.0545,0.1326 0.1754,0.7843 0.338,0.3001 0.2501,-0.7446 0.6266,-1.3838 1.109,-2.0114 0.5896,-0.7672 1.3015,-1.5066 1.8344,-2.2991 1.4864,-2.2104 -0.0544,-3.598 -1.579,-3.3074 -0.6602,0.1258 -1.1366,0.5931 -1.4201,1.1794 -0.1397,0.2889 -0.104,-0.1717 -0.6055,-0.667 -0.4122,-0.4071 -0.9375,-0.5827 -1.5105,-0.5385z"/>
  <path id="Copas" class="fil2" d="M5.7355 22.5633c-0.9795,0.0756 -1.5876,0.7484 -1.6214,1.5981l0 0.1513c0.0081,0.2058 0.049,0.4201 0.1255,0.6374 0.2768,0.7855 1.1712,1.7753 1.7172,2.4342 0.6693,0.8075 1.2104,1.5455 1.6124,2.5229 0.0545,0.1326 0.1754,0.7843 0.338,0.3001 0.2501,-0.7446 0.6266,-1.3838 1.109,-2.0114 0.5896,-0.7672 1.3015,-1.5066 1.8344,-2.2991 1.4864,-2.2104 -0.0544,-3.598 -1.579,-3.3074 -0.6602,0.1258 -1.1366,0.5931 -1.4201,1.1794 -0.1397,0.2889 -0.104,-0.1717 -0.6055,-0.667 -0.4122,-0.4071 -0.9375,-0.5827 -1.5105,-0.5385z"/>
  <path id="_6_x0020_Inferior" class="fil3" d="M50.7371 77.2343c0,0.4328 -0.0217,0.772 -0.0696,1.0199 -0.0478,0.2479 -0.1239,0.4241 -0.2305,0.5263 -0.1044,0.1044 -0.2436,0.1522 -0.4175,0.15 -0.174,0.0022 -0.3132,-0.0456 -0.4175,-0.15 -0.1066,-0.1022 -0.1827,-0.2784 -0.2305,-0.5263 -0.0479,-0.2479 -0.0696,-0.5871 -0.0696,-1.0199 0,-0.4327 0.0217,-0.7719 0.0696,-1.0198 0.0478,-0.2479 0.1239,-0.4241 0.2305,-0.5263 0.1043,-0.1044 0.2435,-0.1522 0.4175,-0.15 0.1305,0.0021 0.2414,0.0456 0.3327,0.1348 0.0913,0.0891 0.1653,0.2109 0.2218,0.3653 0.0565,0.1566 0.0979,0.3371 0.124,0.5393 0.0261,0.2044 0.0391,0.4241 0.0391,0.6567zm-2.4008 3.275c-0.1978,0.0022 -0.3696,0.05 -0.5175,0.1435 -0.1479,0.0935 -0.2653,0.2197 -0.348,0.3784 -0.0826,0.1587 -0.1239,0.3371 -0.1261,0.535 0.0022,0.2413 0.0544,0.461 0.1588,0.6545 0.1022,0.1935 0.2413,0.3588 0.4175,0.498 0.1783,0.137 0.3784,0.2414 0.6024,0.3153 0.2218,0.0739 0.4566,0.1109 0.7002,0.1109 0.5632,0 1.0808,-0.0913 1.5505,-0.2762 0.4697,-0.1826 0.8763,-0.4545 1.2221,-0.8154 0.3458,-0.3588 0.6132,-0.8046 0.8024,-1.3352 0.1892,-0.5306 0.2849,-1.1439 0.2871,-1.8398 0,-0.4023 -0.037,-0.7959 -0.1153,-1.1808 -0.0761,-0.3849 -0.1957,-0.7458 -0.3588,-1.0829 -0.1631,-0.3371 -0.3697,-0.6328 -0.6241,-0.8894 -0.2566,-0.2566 -0.5611,-0.4589 -0.9133,-0.6046 -0.3545,-0.1457 -0.7633,-0.2196 -1.2243,-0.2218 -0.3784,0.0022 -0.7416,0.0631 -1.0852,0.1827 -0.3457,0.1196 -0.6545,0.2914 -0.9263,0.5132 -0.2719,0.224 -0.485,0.4871 -0.6437,0.7959 -0.1566,0.3088 -0.2371,0.6502 -0.2414,1.0264 0.0022,0.3284 0.0609,0.6372 0.1761,0.9286 0.1153,0.2892 0.2762,0.5458 0.4828,0.7676 0.2066,0.2218 0.4501,0.398 0.7285,0.5241 0.2783,0.1261 0.5806,0.1913 0.909,0.1935 0.1935,0 0.3718,-0.0261 0.5349,-0.0739 0.1631,-0.0457 0.3175,-0.1131 0.4654,-0.1957 0.1479,-0.0848 0.2979,-0.1827 0.448,-0.2914 0,0.0021 0.0021,0.0239 0.0043,0.0696 0.0022,0.0435 0.0044,0.0978 0.0087,0.1652 0.0044,0.0674 0.0065,0.1349 0.0087,0.2066 0.0022,0.0696 0.0044,0.1305 0.0044,0.1849 0.0021,0.5414 -0.0392,1.009 -0.1197,1.4026 -0.0804,0.3936 -0.2109,0.6958 -0.387,0.909 -0.1762,0.2131 -0.4089,0.3218 -0.6937,0.324 -0.0914,-0.0022 -0.1718,-0.0131 -0.2414,-0.037 -0.0674,-0.0239 -0.1196,-0.0457 -0.1588,-0.0696 -0.0369,-0.0217 -0.0565,-0.0348 -0.0565,-0.0369 0.087,-0.1153 0.1544,-0.2414 0.2066,-0.3784 0.0522,-0.1349 0.0783,-0.2871 0.0805,-0.4567 -0.0022,-0.1935 -0.0479,-0.3697 -0.137,-0.5262 -0.0892,-0.1566 -0.2088,-0.2806 -0.361,-0.3741 -0.1544,-0.0935 -0.3262,-0.1413 -0.5198,-0.1435z"/>
  <path id="_6" class="fil3" d="M7.2622 12.6759c0,-0.4328 0.0217,-0.772 0.0696,-1.0199 0.0478,-0.2479 0.1239,-0.4241 0.2305,-0.5263 0.1044,-0.1044 0.2436,-0.1522 0.4175,-0.15 0.174,-0.0022 0.3132,0.0456 0.4175,0.15 0.1066,0.1022 0.1827,0.2784 0.2305,0.5263 0.0479,0.2479 0.0696,0.5871 0.0696,1.0199 0,0.4327 -0.0217,0.7719 -0.0696,1.0198 -0.0478,0.2479 -0.1239,0.4241 -0.2305,0.5263 -0.1043,0.1044 -0.2435,0.1522 -0.4175,0.15 -0.1305,-0.0021 -0.2414,-0.0456 -0.3327,-0.1348 -0.0913,-0.0891 -0.1653,-0.2109 -0.2218,-0.3653 -0.0565,-0.1566 -0.0979,-0.3371 -0.124,-0.5393 -0.0261,-0.2044 -0.0391,-0.4241 -0.0391,-0.6567zm2.4008 -3.275c0.1978,-0.0022 0.3696,-0.05 0.5175,-0.1435 0.1479,-0.0935 0.2653,-0.2197 0.348,-0.3784 0.0826,-0.1587 0.1239,-0.3371 0.1261,-0.535 -0.0022,-0.2413 -0.0544,-0.461 -0.1588,-0.6545 -0.1022,-0.1935 -0.2413,-0.3588 -0.4175,-0.498 -0.1783,-0.137 -0.3784,-0.2414 -0.6024,-0.3153 -0.2218,-0.0739 -0.4566,-0.1109 -0.7002,-0.1109 -0.5632,0 -1.0808,0.0913 -1.5505,0.2762 -0.4697,0.1826 -0.8763,0.4545 -1.2221,0.8154 -0.3458,0.3588 -0.6132,0.8046 -0.8024,1.3352 -0.1892,0.5306 -0.2849,1.1439 -0.2871,1.8398 0,0.4023 0.037,0.7959 0.1153,1.1808 0.0761,0.3849 0.1957,0.7458 0.3588,1.0829 0.1631,0.3371 0.3697,0.6328 0.6241,0.8894 0.2566,0.2566 0.5611,0.4589 0.9133,0.6046 0.3545,0.1457 0.7633,0.2196 1.2243,0.2218 0.3784,-0.0022 0.7416,-0.0631 1.0852,-0.1827 0.3457,-0.1196 0.6545,-0.2914 0.9263,-0.5132 0.2719,-0.224 0.485,-0.4871 0.6437,-0.7959 0.1566,-0.3088 0.2371,-0.6502 0.2414,-1.0264 -0.0022,-0.3284 -0.0609,-0.6372 -0.1761,-0.9286 -0.1153,-0.2892 -0.2762,-0.5458 -0.4828,-0.7676 -0.2066,-0.2218 -0.4501,-0.398 -0.7285,-0.5241 -0.2783,-0.1261 -0.5806,-0.1913 -0.909,-0.1935 -0.1935,0 -0.3718,0.0261 -0.5349,0.0739 -0.1631,0.0457 -0.3175,0.1131 -0.4654,0.1957 -0.1479,0.0848 -0.2979,0.1827 -0.448,0.2914 0,-0.0021 -0.0021,-0.0239 -0.0043,-0.0696 -0.0022,-0.0435 -0.0044,-0.0978 -0.0087,-0.1652 -0.0044,-0.0674 -0.0065,-0.1349 -0.0087,-0.2066 -0.0022,-0.0696 -0.0044,-0.1305 -0.0044,-0.1849 -0.0021,-0.5414 0.0392,-1.009 0.1197,-1.4026 0.0804,-0.3936 0.2109,-0.6958 0.387,-0.909 0.1762,-0.2131 0.4089,-0.3218 0.6937,-0.324 0.0914,0.0022 0.1718,0.0131 0.2414,0.037 0.0674,0.0239 0.1196,0.0457 0.1588,0.0696 0.0369,0.0217 0.0565,0.0348 0.0565,0.0369 -0.087,0.1153 -0.1544,0.2414 -0.2066,0.3784 -0.0522,0.1349 -0.0783,0.2871 -0.0805,0.4567 0.0022,0.1935 0.0479,0.3697 0.137,0.5262 0.0892,0.1566 0.2088,0.2806 0.361,0.3741 0.1544,0.0935 0.3262,0.1413 0.5198,0.1435z"/>
 </g>
</svg>
