<?xml version="1.0" encoding="UTF-8"?>
<!DOCTYPE svg PUBLIC "-//W3C//DTD SVG 1.1//EN" "http://www.w3.org/Graphics/SVG/1.1/DTD/svg11.dtd">
<!-- Creator: CorelDRAW -->
<svg xmlns="http://www.w3.org/2000/svg" xml:space="preserve" width="58mm" height="90mm" style="shape-rendering:geometricPrecision; text-rendering:geometricPrecision; image-rendering:optimizeQuality; fill-rule:evenodd; clip-rule:evenodd"
viewBox="0 0 58 90"
 xmlns:xlink="http://www.w3.org/1999/xlink">
 <defs>
  <style type="text/css">
   <![CDATA[
    .str0 {stroke:black;stroke-width:0.25}
    .str1 {stroke:#FE0000;stroke-width:0.5}
    .fil1 {fill:none}
    .fil4 {fill:none;fill-rule:nonzero}
    .fil2 {fill:#FE0000}
    .fil0 {fill:white}
    .fil3 {fill:#FE0000;fill-rule:nonzero}
   ]]>
  </style>
   <mask id="id0">
  <radialGradient id="id1" gradientUnits="userSpaceOnUse" cx="29" cy="37.9472" r="12.1836" fx="29" fy="37.9472">
   <stop offset="0" style="stop-opacity:0.419608; stop-color:white"/>
   <stop offset="1" style="stop-opacity:1; stop-color:white"/>
  </radialGradient>
    <rect style="fill:url(#id1)" x="16.8164" y="40.9021" width="24.6974" height="9.8129"/>
   </mask>
 </defs>
 <g id="Camada_x0020_1">
  <metadata id="CorelCorpID_0Corel-Layer"/>
  <rect id="Carta" class="fil0 str0" x="0.499998" y="0.500029" width="57" height="89" rx="2.6308" ry="2.6308"/>
  <rect id="Retângulo_x0020_Vermelho" class="fil1 str1" x="15.0661" y="20.1219" width="27.8678" height="49.7562" rx="1.2862" ry="1.2862"/>
  <path id="Copas_x0020_Inferior" class="fil2" d="M52.2518 67.6122c0.978,-0.0755 1.5851,-0.7473 1.6189,-1.5957l0 -0.151c-0.0081,-0.2055 -0.0489,-0.4194 -0.1253,-0.6364 -0.2763,-0.7844 -1.1694,-1.7726 -1.7146,-2.4305 -0.6682,-0.8062 -1.2085,-1.5431 -1.6099,-2.519 -0.0544,-0.1323 -0.1751,-0.783 -0.3374,-0.2997 -0.2497,0.7435 -0.6256,1.3817 -1.1073,2.0084 -0.5887,0.766 -1.2996,1.5042 -1.8317,2.2956 -1.484,2.207 0.0544,3.5924 1.5767,3.3022 0.6591,-0.1256 1.1348,-0.5921 1.4179,-1.1775 0.1395,-0.2885 0.1038,0.1714 0.6045,0.6659 0.4116,0.4065 0.9361,0.5818 1.5082,0.5377z"/>
  <path id="Copas_x0020_Central" class="fil2" d="M26.9513 41.0959c-0.9795,0.0756 -1.5876,0.7484 -1.6214,1.5981l0 0.1513c0.0081,0.2058 0.049,0.4201 0.1255,0.6374 0.2768,0.7855 1.1712,1.7753 1.7172,2.4342 0.6693,0.8075 1.2104,1.5455 1.6124,2.5229 0.0545,0.1326 0.1754,0.7843 0.338,0.3001 0.2501,-0.7446 0.6266,-1.3838 1.109,-2.0114 0.5896,-0.7672 1.3015,-1.5066 1.8344,-2.2991 1.4864,-2.2104 -0.0544,-3.598 -1.579,-3.3074 -0.6602,0.1258 -1.1366,0.5931 -1.4201,1.1794 -0.1397,0.2889 -0.104,-0.1717 -0.6055,-0.667 -0.4122,-0.4071 -0.9375,-0.5827 -1.5105,-0.5385z"/>
  <path id="Copas" class="fil2" d="M5.7355 22.5633c-0.9795,0.0756 -1.5876,0.7484 -1.6214,1.5981l0 0.1513c0.0081,0.2058 0.049,0.4201 0.1255,0.6374 0.2768,0.7855 1.1712,1.7753 1.7172,2.4342 0.6693,0.8075 1.2104,1.5455 1.6124,2.5229 0.0545,0.1326 0.1754,0.7843 0.338,0.3001 0.2501,-0.7446 0.6266,-1.3838 1.109,-2.0114 0.5896,-0.7672 1.3015,-1.5066 1.8344,-2.2991 1.4864,-2.2104 -0.0544,-3.598 -1.579,-3.3074 -0.6602,0.1258 -1.1366,0.5931 -1.4201,1.1794 -0.1397,0.2889 -0.104,-0.1717 -0.6055,-0.667 -0.4122,-0.4071 -0.9375,-0.5827 -1.5105,-0.5385z"/>
  <path id="_8_x0020_Inferior" class="fil3" d="M49.0289 80.0265c0.2979,0.0914 0.5872,0.1784 0.8699,0.261 0.2848,0.0804 0.5414,0.1761 0.7698,0.2827 0.2305,0.1065 0.4153,0.2435 0.5501,0.4132 0.137,0.1674 0.2066,0.3849 0.211,0.648 -0.0022,0.1783 -0.05,0.3262 -0.1435,0.4414 -0.0936,0.1153 -0.2175,0.2066 -0.3697,0.2719 -0.1544,0.0652 -0.3219,0.1109 -0.5045,0.137 -0.1827,0.0261 -0.3654,0.0391 -0.548,0.0369 -0.1914,0 -0.3784,-0.0217 -0.5611,-0.0696 -0.1805,-0.0456 -0.3457,-0.1152 -0.4936,-0.2065 -0.1457,-0.0936 -0.2631,-0.211 -0.3501,-0.3502 -0.0892,-0.1413 -0.1327,-0.3066 -0.1348,-0.4958 0,-0.1957 0.0326,-0.374 0.0935,-0.5349 0.0587,-0.1609 0.1435,-0.311 0.2479,-0.448 0.1065,-0.137 0.2261,-0.2653 0.3631,-0.3871l0 0zm2.192 -1.6048c-0.2566,-0.1066 -0.5175,-0.2044 -0.785,-0.2892 -0.2675,-0.087 -0.5241,-0.174 -0.772,-0.2588 -0.2479,-0.087 -0.4697,-0.187 -0.6676,-0.2979 -0.1979,-0.1109 -0.3545,-0.2458 -0.4697,-0.4023 -0.1153,-0.1588 -0.174,-0.3502 -0.1762,-0.5785 0.0022,-0.1783 0.0544,-0.3349 0.1566,-0.4632 0.1,-0.1304 0.2327,-0.237 0.3958,-0.3218 0.1631,-0.0826 0.3414,-0.1457 0.5328,-0.1849 0.1892,-0.0413 0.3762,-0.0608 0.5588,-0.0608 0.3893,0 0.7307,0.0587 1.0243,0.1717 0.2914,0.1131 0.5197,0.2784 0.6828,0.4915 0.1653,0.2131 0.2479,0.4719 0.2501,0.772 -0.0022,0.2088 -0.0348,0.3958 -0.1,0.5632 -0.0653,0.1675 -0.1523,0.3219 -0.261,0.461 -0.1109,0.1414 -0.2327,0.274 -0.3697,0.398zm0.5741 0.3001c0.1544,-0.1109 0.3088,-0.2262 0.4632,-0.348 0.1522,-0.1217 0.2914,-0.2544 0.4197,-0.3979 0.1261,-0.1435 0.2283,-0.3023 0.3044,-0.4784 0.0762,-0.174 0.1153,-0.3719 0.1175,-0.5893 -0.0022,-0.2871 -0.0631,-0.5393 -0.1805,-0.7612 -0.1174,-0.2196 -0.2784,-0.4088 -0.4806,-0.5653 -0.2044,-0.1588 -0.4371,-0.2893 -0.6981,-0.3893 -0.2609,-0.1 -0.5349,-0.174 -0.8263,-0.2218 -0.2892,-0.0479 -0.5784,-0.0718 -0.8677,-0.0718 -0.7198,0.0022 -1.3113,0.1109 -1.7744,0.324 -0.4632,0.2132 -0.8046,0.5154 -1.0265,0.909 -0.2218,0.3936 -0.3327,0.8612 -0.3305,1.4026 0.0044,0.4371 0.0739,0.8025 0.2109,1.096 0.137,0.2958 0.3197,0.5372 0.548,0.7264 0.2306,0.1891 0.485,0.3414 0.7677,0.461 -0.1392,0.0978 -0.2762,0.2 -0.4132,0.3088 -0.137,0.1087 -0.2609,0.224 -0.374,0.3479 -0.1109,0.1261 -0.2023,0.261 -0.2697,0.4067 -0.0674,0.1457 -0.1022,0.3044 -0.1044,0.4762 0.0022,0.2457 0.0544,0.4654 0.1588,0.6567 0.1044,0.1936 0.2457,0.361 0.424,0.5024 0.1805,0.1413 0.3828,0.2587 0.6111,0.3522 0.2283,0.0935 0.4697,0.1631 0.7198,0.2088 0.2501,0.0457 0.5001,0.0674 0.7481,0.0674 0.3849,0 0.7524,-0.0587 1.1003,-0.1696 0.3501,-0.1131 0.6611,-0.2762 0.9329,-0.4915 0.274,-0.2131 0.4893,-0.4719 0.648,-0.7763 0.1566,-0.3023 0.2371,-0.6459 0.2414,-1.0286 -0.0022,-0.3283 -0.05,-0.6154 -0.1413,-0.8611 -0.0914,-0.2458 -0.2175,-0.4567 -0.3784,-0.635 -0.1609,-0.1783 -0.3436,-0.3327 -0.5502,-0.461z"/>
  <path id="_8" class="fil3" d="M8.9704 9.8837c-0.2979,-0.0914 -0.5872,-0.1784 -0.8699,-0.261 -0.2848,-0.0804 -0.5414,-0.1761 -0.7698,-0.2827 -0.2305,-0.1065 -0.4153,-0.2435 -0.5501,-0.4132 -0.137,-0.1674 -0.2066,-0.3849 -0.211,-0.648 0.0022,-0.1783 0.05,-0.3262 0.1435,-0.4414 0.0936,-0.1153 0.2175,-0.2066 0.3697,-0.2719 0.1544,-0.0652 0.3219,-0.1109 0.5045,-0.137 0.1827,-0.0261 0.3654,-0.0391 0.548,-0.0369 0.1914,0 0.3784,0.0217 0.5611,0.0696 0.1805,0.0456 0.3457,0.1152 0.4936,0.2065 0.1457,0.0936 0.2631,0.211 0.3501,0.3502 0.0892,0.1413 0.1327,0.3066 0.1348,0.4958 0,0.1957 -0.0326,0.374 -0.0935,0.5349 -0.0587,0.1609 -0.1435,0.311 -0.2479,0.448 -0.1065,0.137 -0.2261,0.2653 -0.3631,0.3871l0 0zm-2.192 1.6048c0.2566,0.1066 0.5175,0.2044 0.785,0.2892 0.2675,0.087 0.5241,0.174 0.772,0.2588 0.2479,0.087 0.4697,0.187 0.6676,0.2979 0.1979,0.1109 0.3545,0.2458 0.4697,0.4023 0.1153,0.1588 0.174,0.3502 0.1762,0.5785 -0.0022,0.1783 -0.0544,0.3349 -0.1566,0.4632 -0.1,0.1304 -0.2327,0.237 -0.3958,0.3218 -0.1631,0.0826 -0.3414,0.1457 -0.5328,0.1849 -0.1892,0.0413 -0.3762,0.0608 -0.5588,0.0608 -0.3893,0 -0.7307,-0.0587 -1.0243,-0.1717 -0.2914,-0.1131 -0.5197,-0.2784 -0.6828,-0.4915 -0.1653,-0.2131 -0.2479,-0.4719 -0.2501,-0.772 0.0022,-0.2088 0.0348,-0.3958 0.1,-0.5632 0.0653,-0.1675 0.1523,-0.3219 0.261,-0.461 0.1109,-0.1414 0.2327,-0.274 0.3697,-0.398zm-0.5741 -0.3001c-0.1544,0.1109 -0.3088,0.2262 -0.4632,0.348 -0.1522,0.1217 -0.2914,0.2544 -0.4197,0.3979 -0.1261,0.1435 -0.2283,0.3023 -0.3044,0.4784 -0.0762,0.174 -0.1153,0.3719 -0.1175,0.5893 0.0022,0.2871 0.0631,0.5393 0.1805,0.7612 0.1174,0.2196 0.2784,0.4088 0.4806,0.5653 0.2044,0.1588 0.4371,0.2893 0.6981,0.3893 0.2609,0.1 0.5349,0.174 0.8263,0.2218 0.2892,0.0479 0.5784,0.0718 0.8677,0.0718 0.7198,-0.0022 1.3113,-0.1109 1.7744,-0.324 0.4632,-0.2132 0.8046,-0.5154 1.0265,-0.909 0.2218,-0.3936 0.3327,-0.8612 0.3305,-1.4026 -0.0044,-0.4371 -0.0739,-0.8025 -0.2109,-1.096 -0.137,-0.2958 -0.3197,-0.5372 -0.548,-0.7264 -0.2306,-0.1891 -0.485,-0.3414 -0.7677,-0.461 0.1392,-0.0978 0.2762,-0.2 0.4132,-0.3088 0.137,-0.1087 0.2609,-0.224 0.374,-0.3479 0.1109,-0.1261 0.2023,-0.261 0.2697,-0.4067 0.0674,-0.1457 0.1022,-0.3044 0.1044,-0.4762 -0.0022,-0.2457 -0.0544,-0.4654 -0.1588,-0.6567 -0.1044,-0.1936 -0.2457,-0.361 -0.424,-0.5024 -0.1805,-0.1413 -0.3828,-0.2587 -0.6111,-0.3522 -0.2283,-0.0935 -0.4697,-0.1631 -0.7198,-0.2088 -0.2501,-0.0457 -0.5001,-0.0674 -0.7481,-0.0674 -0.3849,0 -0.7524,0.0587 -1.1003,0.1696 -0.3501,0.1131 -0.6611,0.2762 -0.9329,0.4915 -0.274,0.2131 -0.4893,0.4719 -0.648,0.7763 -0.1566,0.3023 -0.2371,0.6459 -0.2414,1.0286 0.0022,0.3283 0.05,0.6154 0.1413,0.8611 0.0914,0.2458 0.2175,0.4567 0.3784,0.635 0.1609,0.1783 0.3436,0.3327 0.5502,0.461z"/>
  <path class="fil4" style="mask:url(#id0)" d="M16.8164 47.9549m2.8279 -2.1082l0.6265 0 0 -1.7526 -0.9144 0 0.1016 0.4995 -0.6519 0 0 -1.6679 1.4986 0 -0.1016 0.9144 1.0075 0 0 -1.8034 -4.1402 0 0 0.9652 0.5334 -0.1016 0 4.191 -0.5334 -0.1016 0 0.9652 2.3791 0 0 -0.9652 -0.6434 0.1016 0 -1.7357 0.7366 0 0.1016 0.4911zm1.7695 2.1082m2.794 -4.7668l0.4995 2.2607 -0.9821 0 0.4826 -2.2607zm0.6096 -1.1514l-1.2023 0 -1.5832 5.0546 -0.4911 -0.1016 0 0.9652 2.2691 0 0 -0.9652 -0.5758 0.1016 0.2202 -0.7451 1.524 0 0.2201 0.7451 -0.5842 -0.1016 0 0.9652 2.2776 0 0 -0.9652 -0.4996 0.1016 -1.5748 -5.0546zm2.2014 5.9182m0.0847 -5.9182l0 1.8034 1.0075 0 -0.1016 -0.9144 0.762 0 0 4.1656 -0.7027 -0.1016 0 0.9652 2.6162 0 0 -0.9652 -0.7112 0.1016 0 -4.1656 0.762 0 -0.1016 0.9144 1.0075 0 0 -1.8034 -4.5381 0zm4.6228 5.9182m3.2766 -1.8034l0.1016 0.9144 -1.4986 0 0 -1.7187 0.7366 0 0.1016 0.4995 0.6181 0 0 -1.7526 -0.906 0 0.1016 0.508 -0.6519 0 0 -1.668 1.4986 0 -0.1016 0.906 1.0076 0 0 -1.8034 -4.1403 0 0 0.9652 0.5334 -0.1016 0 4.191 -0.5334 -0.1016 0 0.9652 4.1403 0 0 -1.8034 -1.0076 0zm1.3547 1.8034m3.7084 -5.9182l0.1016 0.5334c-0.1129,-0.1694 -0.2836,-0.3161 -0.5122,-0.4403 -0.2286,-0.1242 -0.4615,-0.1863 -0.6985,-0.1863 -0.6491,0 -1.1896,0.2428 -1.6214,0.7282 -0.4318,0.4854 -0.6477,1.2531 -0.6477,2.3029 0,1.0668 0.223,1.8472 0.6689,2.3411 0.4459,0.4939 1.0216,0.7408 1.7272,0.7408 1.0781,0 1.778,-0.5673 2.0997,-1.7018l-0.8805 -0.3133c-0.2597,0.7507 -0.6407,1.1261 -1.143,1.1261 -0.3782,0 -0.6844,-0.1905 -0.9187,-0.5715 -0.2342,-0.381 -0.3513,-0.9186 -0.3513,-1.6129 0,-0.6999 0.1143,-1.2333 0.3429,-1.6002 0.2286,-0.3669 0.5094,-0.5504 0.8424,-0.5504 0.2709,0 0.5489,0.1228 0.834,0.3683 0.285,0.2456 0.4275,0.6082 0.4275,1.088l0.7367 0 0 -2.2521 -1.0076 0z"/>
 </g>
</svg>
