<?xml version="1.0" encoding="UTF-8"?>
<!DOCTYPE svg PUBLIC "-//W3C//DTD SVG 1.1//EN" "http://www.w3.org/Graphics/SVG/1.1/DTD/svg11.dtd">
<!-- Creator: CorelDRAW -->
<svg xmlns="http://www.w3.org/2000/svg" xml:space="preserve" width="90mm" height="120mm" style="shape-rendering:geometricPrecision; text-rendering:geometricPrecision; image-rendering:optimizeQuality; fill-rule:evenodd; clip-rule:evenodd"
viewBox="0 0 90 120"
 xmlns:xlink="http://www.w3.org/1999/xlink">
 <defs>
  <style type="text/css">
   <![CDATA[
    .str1 {stroke:black;stroke-width:0.25}
    .str0 {stroke:#373435;stroke-width:0.25}
    .str2 {stroke:black;stroke-width:0.5}
    .fil3 {fill:none}
    .fil0 {fill:black}
    .fil1 {fill:white}
    .fil2 {fill:black;fill-rule:nonzero}
   ]]>
  </style>
 </defs>
 <g id="Camada_x0020_1">
  <metadata id="CorelCorpID_0Corel-Layer"/>
  <g id="_422310920">
   <path id="_619538504" class="fil0 str0" d="M28.5 21.8766l0 -0.3692c0,-2.5508 2.0798,-4.6308 4.6307,-4.6308l51.7386 0c2.5509,0 4.6307,2.08 4.6307,4.6308l0 83.7385c0,2.5508 -2.0798,4.6308 -4.6307,4.6308l-9.3693 0 0 0.3692c0,2.5508 -2.0798,4.6308 -4.6307,4.6308l-9.3693 0 0 0.3692c0,2.5508 -2.0798,4.6308 -4.6307,4.6308l-51.7386 0c-2.5509,0 -4.6307,-2.08 -4.6307,-4.6308l0 -83.7385c0,-2.5508 2.0798,-4.6308 4.6307,-4.6308l9.3693 0 0 -0.3692c0,-2.5508 2.0798,-4.6308 4.6307,-4.6308l9.3693 0z"/>
   <path id="_422313608" class="fil1 str1" d="M5.1308 28.8766l51.7384 0c1.4527,0 2.6308,1.1781 2.6308,2.6308l0 83.7384c0,1.4526 -1.1781,2.6307 -2.6308,2.6307l-51.7384 0.0001c-1.4527,-0.0001 -2.6308,-1.1782 -2.6308,-2.6309l0 -83.7383c0,-1.4527 1.1781,-2.6308 2.6308,-2.6308z"/>
   <path id="A" class="fil2" d="M9.837 42.4485l0 0.7829 3.6402 0 0 -0.7829 -0.6001 0 -2.4791 -7.5154 -1.2526 0 -2.2441 7.1632c-0.037,0.1174 -0.1196,0.2065 -0.2436,0.2653 -0.124,0.0587 -0.3001,0.0869 -0.5263,0.0869l0 0.7829 2.2964 0 0 -0.7829c-0.2066,0 -0.3566,-0.0347 -0.4501,-0.1 -0.0935,-0.0674 -0.1392,-0.1587 -0.137,-0.2783 0,-0.037 0.0065,-0.0892 0.0174,-0.1566 0.013,-0.0696 0.0282,-0.1348 0.0478,-0.1957l0.1044 -0.3654 2.1137 0 0.3262 1.096 -0.6132 0zm0.0261 -1.9571l-1.5918 0 0.7959 -2.6356 0.7959 2.6356z"/>
   <path id="_422312984" class="fil1 str1" d="M19.1308 23.8766l51.7384 0c1.4527,0 2.6308,1.1781 2.6308,2.6308l0 83.7384c0,1.4526 -1.1781,2.6307 -2.6308,2.6307l-51.7384 0.0001c-1.4527,-0.0001 -2.6308,-1.1782 -2.6308,-2.6309l0 -83.7383c0,-1.4527 1.1781,-2.6308 2.6308,-2.6308z"/>
   <path id="Espadas" class="fil0" d="M23.568 51.9706c-0.1984,0.8296 -0.3881,1.1399 -0.8196,1.7995l2.245 0c-0.052,-0.1944 -0.3969,-0.2274 -0.7283,-1.2672l-0.1448 -0.5323c0.1978,0.0677 0.3538,0.1674 0.5739,0.2279 1.2827,0.3528 2.2651,-0.3681 2.366,-1.3956l0 -0.3551c-0.03,-0.3156 -0.1399,-0.6498 -0.344,-0.984 -0.3378,-0.5527 -0.6378,-0.8676 -1.1208,-1.2845 -0.2846,-0.2457 -0.9003,-0.985 -1.1135,-1.2918l-0.6519 -0.9696c-0.0902,0.079 -0.5233,0.7791 -0.6675,0.9612 -0.3066,0.387 -0.7741,0.9769 -1.1313,1.3275 -0.1364,0.1339 -0.2883,0.2682 -0.4191,0.4005 -0.2619,0.2647 -0.5356,0.6099 -0.7269,0.9301 -1.1586,1.9395 0.5596,3.3532 2.3933,2.5715 0.0999,-0.0426 0.1956,-0.1036 0.2895,-0.1381z"/>
   <path id="Espadas_0" class="fil0" d="M9.5185 56.958c-0.1984,0.8296 -0.3881,1.1399 -0.8196,1.7995l2.245 0c-0.052,-0.1944 -0.3969,-0.2274 -0.7283,-1.2672l-0.1448 -0.5323c0.1978,0.0677 0.3538,0.1674 0.5739,0.2279 1.2827,0.3528 2.2651,-0.3681 2.366,-1.3956l0 -0.3551c-0.03,-0.3156 -0.1399,-0.6498 -0.344,-0.984 -0.3378,-0.5527 -0.6378,-0.8676 -1.1208,-1.2845 -0.2846,-0.2457 -0.9003,-0.985 -1.1135,-1.2918l-0.6519 -0.9696c-0.0902,0.079 -0.5233,0.7791 -0.6675,0.9612 -0.3066,0.387 -0.7741,0.9769 -1.1313,1.3275 -0.1364,0.1339 -0.2883,0.2682 -0.4191,0.4005 -0.2619,0.2647 -0.5356,0.6099 -0.7269,0.9301 -1.1586,1.9395 0.5596,3.3532 2.3933,2.5715 0.0999,-0.0426 0.1956,-0.1036 0.2895,-0.1381z"/>
   <path id="_2" class="fil2" d="M21.684 38.2314c0.0195,-0.1196 0.063,-0.2283 0.137,-0.3262 0.0717,-0.0978 0.1652,-0.1761 0.2783,-0.2348 0.1131,-0.0588 0.2392,-0.0892 0.3806,-0.0914 0.1565,0.0022 0.3109,0.0305 0.461,0.0848 0.1522,0.0522 0.3066,0.1196 0.4588,0.2001 0.1544,0.0805 0.3132,0.1587 0.4763,0.2392 0.1609,0.0805 0.3305,0.1457 0.5088,0.2001 0.1762,0.0543 0.3632,0.0826 0.5611,0.0848 0.2696,-0.0022 0.511,-0.0566 0.7241,-0.1653 0.2131,-0.1087 0.4001,-0.2566 0.561,-0.4436 0.161,-0.187 0.2936,-0.4023 0.4023,-0.6415 0.1066,-0.2414 0.1871,-0.4958 0.2436,-0.7633 0.0565,-0.2675 0.087,-0.535 0.0913,-0.8024l-0.5349 -0.0783c-0.0435,0.274 -0.1261,0.4827 -0.2457,0.6284 -0.1197,0.1436 -0.2914,0.2175 -0.5111,0.2175 -0.1718,-0.0022 -0.3262,-0.0174 -0.4675,-0.0457 -0.1414,-0.0282 -0.2762,-0.0609 -0.4067,-0.0978 -0.1304,-0.037 -0.2653,-0.0696 -0.4066,-0.0979 -0.1414,-0.0283 -0.2958,-0.0435 -0.4676,-0.0456 -0.1457,0 -0.2783,0.013 -0.4001,0.0369 -0.1196,0.0261 -0.2392,0.0609 -0.3566,0.1044 -0.1196,0.0457 -0.2501,0.0979 -0.3914,0.1587 0.1804,-0.25 0.3827,-0.4718 0.6045,-0.6654 0.224,-0.1935 0.4545,-0.3675 0.6959,-0.5175 0.2392,-0.1501 0.4762,-0.2849 0.7089,-0.4045 0.274,-0.137 0.5328,-0.274 0.7785,-0.4088 0.2479,-0.1327 0.4654,-0.2827 0.6589,-0.448 0.1914,-0.1653 0.3436,-0.361 0.4545,-0.5893 0.1109,-0.2305 0.1674,-0.5067 0.1696,-0.8329 -0.0022,-0.4675 -0.1196,-0.8764 -0.3501,-1.2265 -0.2283,-0.3501 -0.5567,-0.6241 -0.9829,-0.8198 -0.4262,-0.1957 -0.9351,-0.2957 -1.5244,-0.2979 -0.2827,0 -0.5632,0.0326 -0.8372,0.0957 -0.2762,0.063 -0.535,0.1544 -0.7764,0.2718 -0.2435,0.1174 -0.4566,0.2588 -0.6437,0.424 -0.187,0.1631 -0.3327,0.3458 -0.437,0.5502 -0.1066,0.2023 -0.161,0.4197 -0.1631,0.6502 0.0021,0.2175 0.0456,0.4175 0.1348,0.6046 0.0891,0.187 0.2131,0.3392 0.374,0.4545 0.1588,0.1152 0.3458,0.1761 0.5611,0.1783 0.1891,-0.0022 0.3566,-0.05 0.5066,-0.1414 0.1479,-0.0935 0.2653,-0.2174 0.3523,-0.3718 0.087,-0.1544 0.1305,-0.3262 0.1327,-0.5154 0,-0.1566 -0.0283,-0.3066 -0.0805,-0.4458 -0.0543,-0.1392 -0.1283,-0.2588 -0.2218,-0.3588 -0.0935,-0.1001 -0.2022,-0.1696 -0.324,-0.211 0.0522,-0.0869 0.1174,-0.1717 0.1957,-0.2544 0.0783,-0.0804 0.1718,-0.1457 0.2784,-0.1979 0.1065,-0.0522 0.2261,-0.0783 0.3609,-0.0804 0.2023,0.0021 0.3893,0.0565 0.5567,0.1674 0.1697,0.1087 0.3067,0.261 0.4089,0.4545 0.1022,0.1957 0.1544,0.4219 0.1565,0.6785 -0.0021,0.3675 -0.0456,0.6915 -0.1304,0.9764 -0.087,0.2848 -0.2045,0.5436 -0.3523,0.7763 -0.1479,0.2305 -0.3175,0.4501 -0.5089,0.6567 -0.1892,0.2066 -0.3892,0.4154 -0.6002,0.6241 -0.1805,0.1827 -0.3653,0.3763 -0.5545,0.5828 -0.1892,0.2066 -0.3719,0.4328 -0.548,0.6807 -0.1761,0.2457 -0.3349,0.5219 -0.4784,0.8242 -0.1435,0.3022 -0.261,0.6415 -0.3501,1.0155l0.6785 0z"/>
   <path id="_422313032" class="fil1 str1" d="M33.1308 18.8766l51.7384 0c1.4527,0 2.6308,1.1781 2.6308,2.6308l0 83.7384c0,1.4526 -1.1781,2.6307 -2.6308,2.6307l-51.7384 0.0001c-1.4527,-0.0001 -2.6308,-1.1782 -2.6308,-2.6309l0 -83.7383c0,-1.4527 1.1781,-2.6308 2.6308,-2.6308z"/>
   <path id="_422312912" class="fil3 str2" d="M46.3522 38.4985l25.2954 0c0.7102,0 1.2862,0.576 1.2862,1.2862l0 47.1838c0,0.7101 -0.576,1.2861 -1.2862,1.2861l-25.2954 0.0001c-0.7102,-0.0001 -1.2862,-0.5761 -1.2862,-1.2863l0 -47.1837c0,-0.7102 0.576,-1.2862 1.2862,-1.2862z"/>
   <path id="_3_x0020_Inferior" class="fil2" d="M79.968 101.495c0.2544,0 0.5132,-0.0152 0.7719,-0.0478 0.2567,-0.0326 0.5046,-0.087 0.7394,-0.1609 0.2349,-0.0762 0.4436,-0.1762 0.6285,-0.3023 0.1848,-0.124 0.3305,-0.2805 0.4371,-0.4654 0.1065,-0.1826 0.1609,-0.4023 0.1631,-0.6545 -0.0022,-0.1805 -0.0479,-0.3436 -0.1349,-0.4915 -0.0869,-0.1479 -0.2044,-0.2653 -0.3522,-0.3523 -0.1479,-0.087 -0.311,-0.1326 -0.4915,-0.1348 -0.1805,0.0022 -0.3392,0.0435 -0.4784,0.1283 -0.1392,0.0826 -0.2479,0.1957 -0.3262,0.3392 -0.0805,0.1436 -0.1196,0.3045 -0.1218,0.485 0.0022,0.15 0.0283,0.2914 0.0783,0.424 0.05,0.1327 0.1153,0.261 0.1957,0.3849 -0.0544,0.0479 -0.1109,0.0892 -0.1674,0.124 -0.0566,0.0348 -0.1196,0.063 -0.1914,0.0826 -0.0696,0.0174 -0.1566,0.0283 -0.2544,0.0283 -0.1479,-0.0022 -0.2805,-0.0435 -0.4023,-0.1261 -0.1218,-0.0805 -0.2262,-0.1871 -0.3132,-0.3197 -0.0891,-0.1305 -0.1565,-0.274 -0.2044,-0.4284 -0.0478,-0.1566 -0.0717,-0.3066 -0.0717,-0.4567 0,-0.3762 0.0739,-0.6937 0.2218,-0.959 0.15,-0.2631 0.3805,-0.4653 0.6915,-0.6045 0.3088,-0.1392 0.7046,-0.2088 1.1873,-0.2109l0 -0.6263c-0.3175,0.0021 -0.6067,-0.0153 -0.8676,-0.0566 -0.261,-0.0413 -0.4872,-0.1239 -0.6763,-0.2457 -0.1914,-0.1218 -0.3371,-0.3023 -0.4393,-0.5393 -0.1044,-0.2392 -0.1566,-0.5545 -0.1566,-0.946 0,-0.1783 0.0239,-0.3544 0.074,-0.5284 0.05,-0.1718 0.1217,-0.3305 0.2152,-0.474 0.0957,-0.1414 0.211,-0.2545 0.3501,-0.3415 0.137,-0.0848 0.2936,-0.1283 0.4698,-0.1304 0.1522,0.0021 0.2935,0.0369 0.4218,0.1022 0.1283,0.0674 0.2284,0.15 0.2958,0.2501 -0.087,0.0956 -0.1631,0.1978 -0.2262,0.3087 -0.063,0.1131 -0.0978,0.2479 -0.1,0.4089 0.0022,0.1892 0.0478,0.361 0.1348,0.5132 0.0892,0.1522 0.2088,0.274 0.361,0.3653 0.15,0.0913 0.3197,0.137 0.5089,0.1392 0.1804,-0.0022 0.3457,-0.0435 0.4979,-0.1283 0.1523,-0.0827 0.274,-0.1957 0.3654,-0.3393 0.0913,-0.1435 0.1391,-0.3044 0.1413,-0.4849 -0.0022,-0.2435 -0.0522,-0.4588 -0.15,-0.648 -0.0979,-0.1892 -0.2305,-0.3523 -0.4002,-0.4915 -0.1696,-0.1392 -0.3653,-0.2522 -0.5827,-0.3436 -0.2175,-0.0891 -0.4502,-0.1565 -0.6916,-0.2 -0.2435,-0.0435 -0.4893,-0.0653 -0.7328,-0.0653 -0.3414,0 -0.672,0.0196 -0.9938,0.0631 -0.3218,0.0413 -0.6219,0.1087 -0.9003,0.2022 -0.2783,0.0914 -0.5241,0.2153 -0.7328,0.3654 -0.211,0.1522 -0.3762,0.337 -0.4937,0.5567 -0.1174,0.2196 -0.1783,0.4762 -0.1805,0.7698 0.0022,0.361 0.0762,0.6741 0.2219,0.9372 0.1457,0.2631 0.3479,0.4828 0.6088,0.6633 0.2632,0.1783 0.5698,0.3218 0.9199,0.4305 0.3501,0.1088 0.7328,0.1892 1.146,0.2393 -0.2544,0.0369 -0.511,0.0848 -0.7698,0.15 -0.2566,0.0631 -0.5023,0.1457 -0.7372,0.2479 -0.2327,0.1 -0.4414,0.224 -0.6241,0.3697 -0.1827,0.1479 -0.3284,0.3197 -0.4327,0.5219 -0.1066,0.2001 -0.161,0.4306 -0.1631,0.6937 0.0021,0.2609 0.0543,0.498 0.1565,0.7111 0.1022,0.2109 0.2436,0.3979 0.4219,0.561 0.1805,0.1609 0.3849,0.2958 0.6154,0.4067 0.2327,0.1087 0.4784,0.1913 0.7372,0.2479 0.2588,0.0543 0.5197,0.0826 0.7829,0.0826l0 0z"/>
   <path id="_3" class="fil2" d="M38.032 25.168c-0.2544,0 -0.5132,0.0152 -0.7719,0.0478 -0.2567,0.0326 -0.5046,0.087 -0.7394,0.1609 -0.2349,0.0762 -0.4436,0.1762 -0.6285,0.3023 -0.1848,0.124 -0.3305,0.2805 -0.4371,0.4654 -0.1065,0.1826 -0.1609,0.4023 -0.1631,0.6545 0.0022,0.1805 0.0479,0.3436 0.1349,0.4915 0.0869,0.1479 0.2044,0.2653 0.3522,0.3523 0.1479,0.087 0.311,0.1326 0.4915,0.1348 0.1805,-0.0022 0.3392,-0.0435 0.4784,-0.1283 0.1392,-0.0826 0.2479,-0.1957 0.3262,-0.3392 0.0805,-0.1436 0.1196,-0.3045 0.1218,-0.485 -0.0022,-0.15 -0.0283,-0.2914 -0.0783,-0.424 -0.05,-0.1327 -0.1153,-0.261 -0.1957,-0.3849 0.0544,-0.0479 0.1109,-0.0892 0.1674,-0.124 0.0566,-0.0348 0.1196,-0.063 0.1914,-0.0826 0.0696,-0.0174 0.1566,-0.0283 0.2544,-0.0283 0.1479,0.0022 0.2805,0.0435 0.4023,0.1261 0.1218,0.0805 0.2262,0.1871 0.3132,0.3197 0.0891,0.1305 0.1565,0.274 0.2044,0.4284 0.0478,0.1566 0.0717,0.3066 0.0717,0.4567 0,0.3762 -0.0739,0.6937 -0.2218,0.959 -0.15,0.2631 -0.3805,0.4653 -0.6915,0.6045 -0.3088,0.1392 -0.7046,0.2088 -1.1873,0.2109l0 0.6263c0.3175,-0.0021 0.6067,0.0153 0.8676,0.0566 0.261,0.0413 0.4872,0.1239 0.6763,0.2457 0.1914,0.1218 0.3371,0.3023 0.4393,0.5393 0.1044,0.2392 0.1566,0.5545 0.1566,0.946 0,0.1783 -0.0239,0.3544 -0.074,0.5284 -0.05,0.1718 -0.1217,0.3305 -0.2152,0.474 -0.0957,0.1414 -0.211,0.2545 -0.3501,0.3415 -0.137,0.0848 -0.2936,0.1283 -0.4698,0.1304 -0.1522,-0.0021 -0.2935,-0.0369 -0.4218,-0.1022 -0.1283,-0.0674 -0.2284,-0.15 -0.2958,-0.2501 0.087,-0.0956 0.1631,-0.1978 0.2262,-0.3087 0.063,-0.1131 0.0978,-0.2479 0.1,-0.4089 -0.0022,-0.1892 -0.0478,-0.361 -0.1348,-0.5132 -0.0892,-0.1522 -0.2088,-0.274 -0.361,-0.3653 -0.15,-0.0913 -0.3197,-0.137 -0.5089,-0.1392 -0.1804,0.0022 -0.3457,0.0435 -0.4979,0.1283 -0.1523,0.0827 -0.274,0.1957 -0.3654,0.3393 -0.0913,0.1435 -0.1391,0.3044 -0.1413,0.4849 0.0022,0.2435 0.0522,0.4588 0.15,0.648 0.0979,0.1892 0.2305,0.3523 0.4002,0.4915 0.1696,0.1392 0.3653,0.2522 0.5827,0.3436 0.2175,0.0891 0.4502,0.1565 0.6916,0.2 0.2435,0.0435 0.4893,0.0653 0.7328,0.0653 0.3414,0 0.672,-0.0196 0.9938,-0.0631 0.3218,-0.0413 0.6219,-0.1087 0.9003,-0.2022 0.2783,-0.0914 0.5241,-0.2153 0.7328,-0.3654 0.211,-0.1522 0.3762,-0.337 0.4937,-0.5567 0.1174,-0.2196 0.1783,-0.4762 0.1805,-0.7698 -0.0022,-0.361 -0.0762,-0.6741 -0.2219,-0.9372 -0.1457,-0.2631 -0.3479,-0.4828 -0.6088,-0.6633 -0.2632,-0.1783 -0.5698,-0.3218 -0.9199,-0.4305 -0.3501,-0.1088 -0.7328,-0.1892 -1.146,-0.2393 0.2544,-0.0369 0.511,-0.0848 0.7698,-0.15 0.2566,-0.0631 0.5023,-0.1457 0.7372,-0.2479 0.2327,-0.1 0.4414,-0.224 0.6241,-0.3697 0.1827,-0.1479 0.3284,-0.3197 0.4327,-0.5219 0.1066,-0.2001 0.161,-0.4306 0.1631,-0.6937 -0.0021,-0.2609 -0.0543,-0.498 -0.1565,-0.7111 -0.1022,-0.2109 -0.2436,-0.3979 -0.4219,-0.561 -0.1805,-0.1609 -0.3849,-0.2958 -0.6154,-0.4067 -0.2327,-0.1087 -0.4784,-0.1913 -0.7372,-0.2479 -0.2588,-0.0543 -0.5197,-0.0826 -0.7829,-0.0826l0 0z"/>
   <path id="Sequência" class="fil2" d="M15.476 8.598l0 2.4385 1.3301 0 -0.14 -0.6184c0.2022,0.2256 0.4686,0.4084 0.7992,0.5484 0.3306,0.14 0.6709,0.21 1.0209,0.21 0.6612,0 1.2231,-0.2392 1.686,-0.7175 0.4628,-0.4784 0.6942,-1.0598 0.6942,-1.7443 0,-0.5834 -0.175,-1.0676 -0.5251,-1.4526 -0.35,-0.385 -0.8089,-0.6903 -1.3767,-0.9159 -0.1089,-0.0467 -0.1945,-0.0817 -0.2567,-0.105 -0.3345,-0.1245 -0.6864,-0.2859 -1.0559,-0.4842 -0.3695,-0.1983 -0.5542,-0.4842 -0.5542,-0.8576 0,-0.28 0.1147,-0.5211 0.3442,-0.7233 0.2294,-0.2023 0.5153,-0.3034 0.8575,-0.3034 0.3656,0 0.6962,0.1245 0.9918,0.3734 0.2955,0.2489 0.4433,0.5989 0.4433,1.05l1.0034 0 0 -2.4151 -1.3301 0 0.14 0.56c-0.1866,-0.2022 -0.4278,-0.3675 -0.7233,-0.4958 -0.2956,-0.1284 -0.6106,-0.1926 -0.9451,-0.1926 -0.6378,0 -1.1901,0.2314 -1.6568,0.6943 -0.4667,0.4628 -0.7,1.0442 -0.7,1.7442 0,0.5912 0.175,1.0598 0.525,1.406 0.35,0.3461 0.7856,0.628 1.3068,0.8458 0.0389,0.0156 0.0953,0.0389 0.1692,0.07 0.0738,0.0312 0.1497,0.0623 0.2275,0.0934 0.3811,0.1322 0.7292,0.2897 1.0442,0.4725 0.315,0.1828 0.4725,0.4609 0.4725,0.8342 0,0.3034 -0.1147,0.5678 -0.3442,0.7934 -0.2294,0.2256 -0.5386,0.3384 -0.9275,0.3384 -0.3812,0 -0.7273,-0.1225 -1.0384,-0.3676 -0.3111,-0.245 -0.4667,-0.6047 -0.4667,-1.0792l-1.0151 0z"/>
   <polygon id="Sequência1" class="fil2" points="25.673,8.5513 25.813,9.8114 23.748,9.8114 23.748,7.4429 24.763,7.4429 24.903,8.1313 25.755,8.1313 25.755,5.7162 24.506,5.7162 24.647,6.4162 23.748,6.4162 23.748,4.1177 25.813,4.1177 25.673,5.3661 27.062,5.3661 27.062,2.881 21.356,2.881 21.356,4.2111 22.091,4.0711 22.091,9.8464 21.356,9.7064 21.356,11.0365 27.062,11.0365 27.062,8.5513 "/>
   <path id="Sequência12" class="fil2" d="M32.114 9.6247c-0.2178,0.2178 -0.5056,0.3267 -0.8634,0.3267 -1.0656,0 -1.5984,-0.9956 -1.5984,-2.9868 0,-1.9913 0.5328,-2.9869 1.5984,-2.9869 1.0657,0 1.5985,0.9645 1.5985,2.8935 0,0.2878 -0.0136,0.5679 -0.0409,0.8401 -0.0272,0.2722 -0.0797,0.5445 -0.1575,0.8167l-0.9917 -1.1084 -0.9801 0.9801 1.4351 1.225zm-4.1186 -2.6601c0,1.439 0.2995,2.5007 0.8984,3.1852 0.5912,0.6845 1.3729,1.0267 2.3452,1.0267 0.7311,0 1.3534,-0.1867 1.8667,-0.56l0.5601 0.49 0.7584 -0.7117 -0.5717 -0.63c0.4278,-0.6845 0.6417,-1.6179 0.6417,-2.8002 0,-1.4468 -0.2956,-2.5124 -0.8868,-3.1969 -0.5911,-0.6767 -1.3806,-1.0151 -2.3684,-1.0151 -0.9645,0 -1.7463,0.3384 -2.3452,1.0151 -0.5989,0.6923 -0.8984,1.7579 -0.8984,3.1969z"/>
   <path id="Sequência123" class="fil2" d="M35.124 2.881l0 1.3301 0.7351 -0.14 0 4.1186c0,0.3033 0.0233,0.5717 0.07,0.805 0.1166,0.6612 0.42,1.1901 0.91,1.5868 0.49,0.3967 1.0929,0.595 1.8085,0.595 0.7156,0 1.3184,-0.2003 1.8084,-0.6009 0.49,-0.4005 0.7934,-0.9314 0.9101,-1.5926 0.0466,-0.2333 0.07,-0.5055 0.07,-0.8167l0 -4.2002 0.735 -0.1401 0 -0.945 -3.1385 0 0 1.3301 0.7467 -0.14 0 4.6669c0,0.3189 -0.1108,0.5912 -0.3325,0.8167 -0.2217,0.2256 -0.4881,0.3384 -0.7992,0.3384 -0.3189,0 -0.5873,-0.1128 -0.8051,-0.3384 -0.2178,-0.2255 -0.3267,-0.4978 -0.3267,-0.8167l0 -4.7719 0.7351 -0.1401 0 -0.945 -3.1269 0z"/>
   <polygon id="Sequência1234" class="fil2" points="46.861,8.5513 47.001,9.8114 44.936,9.8114 44.936,7.4429 45.951,7.4429 46.091,8.1313 46.943,8.1313 46.943,5.7162 45.694,5.7162 45.835,6.4162 44.936,6.4162 44.936,4.1177 47.001,4.1177 46.861,5.3661 48.25,5.3661 48.25,2.881 42.544,2.881 42.544,4.2111 43.279,4.0711 43.279,9.8464 42.544,9.7064 42.544,11.0365 48.25,11.0365 48.25,8.5513 "/>
   <polygon id="Sequência12345" class="fil2" points="48.926,2.881 48.926,4.2111 49.661,4.0711 49.661,9.8464 48.926,9.7064 48.926,11.0365 51.925,11.0365 51.925,9.7064 51.19,9.8464 51.19,5.5995 53.85,11.0365 55.402,11.0365 55.402,4.0711 56.137,4.2111 56.137,2.881 53.873,2.881 53.873,7.3146 53.978,8.6564 53.582,7.3263 51.388,2.881 "/>
   <path id="Sequência123456" class="fil2" d="M61.434 2.881l0.14 0.735c-0.1555,-0.2333 -0.3908,-0.4355 -0.7058,-0.6067 -0.3151,-0.1711 -0.6359,-0.2567 -0.9626,-0.2567 -0.8945,0 -1.6393,0.3345 -2.2343,1.0034 -0.5951,0.669 -0.8926,1.7268 -0.8926,3.1736 0,1.4701 0.3073,2.5454 0.9218,3.226 0.6144,0.6806 1.4078,1.0209 2.3801,1.0209 1.4857,0 2.4502,-0.7817 2.8935,-2.3451l-1.2134 -0.4317c-0.3578,1.0345 -0.8828,1.5517 -1.5751,1.5517 -0.5211,0 -0.9431,-0.2625 -1.2659,-0.7875 -0.3228,-0.5251 -0.4842,-1.2659 -0.4842,-2.2227 0,-0.9645 0.1575,-1.6995 0.4725,-2.2051 0.315,-0.5056 0.702,-0.7584 1.1609,-0.7584 0.3734,0 0.7565,0.1692 1.1493,0.5076 0.3928,0.3383 0.5892,0.8381 0.5892,1.4992l1.015 0 0 -3.1035 -1.3884 0z"/>
   <polygon id="Sequência1234567" class="fil2" points="63.721,2.881 63.721,4.2111 64.572,4.0711 64.572,9.8464 63.721,9.7064 63.721,11.0365 67.069,11.0365 67.069,9.7064 66.229,9.8464 66.229,3.9661 67.069,3.826 67.069,2.881 "/>
   <path id="Sequência12345678" class="fil2" d="M71.211 4.4678l0.6884 3.1151 -1.3534 0 0.665 -3.1151zm0.8401 -1.5868l-1.6568 0 -2.1818 6.9654 -0.6767 -0.14 0 1.3301 3.1269 0 0 -1.3301 -0.7934 0.14 0.3033 -1.0267 2.1002 0 0.3033 1.0267 -0.805 -0.14 0 1.3301 3.1385 0 0 -1.3301 -0.6884 0.14 -2.1701 -6.9654z"/>
   <polygon id="Acento" class="fil2" points="44.809,0.1232 45.962,0.1232 47.648,2.2514 46.189,2.2514 45.392,0.9657 44.585,2.2514 43.122,2.2514 "/>
   <path id="Espadas_1" class="fil0" d="M37.4852 46.9435c-0.1984,0.8296 -0.3881,1.1399 -0.8196,1.7995l2.245 0c-0.052,-0.1944 -0.3969,-0.2274 -0.7283,-1.2672l-0.1448 -0.5323c0.1978,0.0677 0.3538,0.1674 0.5739,0.2279 1.2827,0.3528 2.2651,-0.3681 2.366,-1.3956l0 -0.3551c-0.03,-0.3156 -0.1399,-0.6498 -0.344,-0.984 -0.3378,-0.5527 -0.6378,-0.8676 -1.1208,-1.2845 -0.2846,-0.2457 -0.9003,-0.985 -1.1135,-1.2918l-0.6519 -0.9696c-0.0902,0.079 -0.5233,0.7791 -0.6675,0.9612 -0.3066,0.387 -0.7741,0.9769 -1.1313,1.3275 -0.1364,0.1339 -0.2883,0.2682 -0.4191,0.4005 -0.2619,0.2647 -0.5356,0.6099 -0.7269,0.9301 -1.1586,1.9395 0.5596,3.3532 2.3933,2.5715 0.0999,-0.0426 0.1956,-0.1036 0.2895,-0.1381z"/>
   <path id="Espadas_2" class="fil0" d="M58.724 65.4969c-0.1984,0.8296 -0.3881,1.1399 -0.8196,1.7995l2.245 0c-0.052,-0.1944 -0.3969,-0.2274 -0.7283,-1.2672l-0.1448 -0.5323c0.1978,0.0677 0.3538,0.1674 0.5739,0.2279 1.2827,0.3528 2.2651,-0.3681 2.366,-1.3956l0 -0.3551c-0.03,-0.3156 -0.1399,-0.6498 -0.344,-0.984 -0.3378,-0.5527 -0.6378,-0.8676 -1.1208,-1.2845 -0.2846,-0.2457 -0.9003,-0.985 -1.1135,-1.2918l-0.6519 -0.9696c-0.0902,0.079 -0.5233,0.7791 -0.6675,0.9612 -0.3066,0.387 -0.7741,0.9769 -1.1313,1.3275 -0.1364,0.1339 -0.2883,0.2682 -0.4191,0.4005 -0.2619,0.2647 -0.5356,0.6099 -0.7269,0.9301 -1.1586,1.9395 0.5596,3.3532 2.3933,2.5715 0.0999,-0.0426 0.1956,-0.1036 0.2895,-0.1381z"/>
   <path id="Espadas_3" class="fil0" d="M79.9437 84.2824c-0.1984,0.8296 -0.3881,1.1399 -0.8196,1.7995l2.245 0c-0.052,-0.1944 -0.3969,-0.2274 -0.7283,-1.2672l-0.1448 -0.5323c0.1978,0.0677 0.3538,0.1674 0.5739,0.2279 1.2827,0.3528 2.2651,-0.3681 2.366,-1.3956l0 -0.3551c-0.03,-0.3156 -0.1399,-0.6498 -0.344,-0.984 -0.3378,-0.5527 -0.6378,-0.8676 -1.1208,-1.2845 -0.2846,-0.2457 -0.9003,-0.985 -1.1135,-1.2918l-0.6519 -0.9696c-0.0902,0.079 -0.5233,0.7791 -0.6675,0.9612 -0.3066,0.387 -0.7741,0.9769 -1.1313,1.3275 -0.1364,0.1339 -0.2883,0.2682 -0.4191,0.4005 -0.2619,0.2647 -0.5356,0.6099 -0.7269,0.9301 -1.1586,1.9395 0.5596,3.3532 2.3933,2.5715 0.0999,-0.0426 0.1956,-0.1036 0.2895,-0.1381z"/>
  </g>
 </g>
</svg>
