<?xml version="1.0" encoding="UTF-8"?>
<!DOCTYPE svg PUBLIC "-//W3C//DTD SVG 1.1//EN" "http://www.w3.org/Graphics/SVG/1.1/DTD/svg11.dtd">
<!-- Creator: CorelDRAW -->
<svg xmlns="http://www.w3.org/2000/svg" xml:space="preserve" width="90mm" height="120mm" style="shape-rendering:geometricPrecision; text-rendering:geometricPrecision; image-rendering:optimizeQuality; fill-rule:evenodd; clip-rule:evenodd"
viewBox="0 0 90 120"
 xmlns:xlink="http://www.w3.org/1999/xlink">
 <defs>
  <style type="text/css">
   <![CDATA[
    .str1 {stroke:black;stroke-width:0.25}
    .str0 {stroke:#373435;stroke-width:0.25}
    .str2 {stroke:#FE0000;stroke-width:0.5}
    .fil5 {fill:none}
    .fil0 {fill:black}
    .fil2 {fill:#FE0000}
    .fil1 {fill:white}
    .fil4 {fill:black;fill-rule:nonzero}
    .fil3 {fill:#FE0000;fill-rule:nonzero}
   ]]>
  </style>
 </defs>
 <g id="Camada_x0020_1">
  <metadata id="CorelCorpID_0Corel-Layer"/>
  <g id="_422332304">
   <path id="_619534904" class="fil0 str0" d="M28.5 20.562l0 -0.3692c0,-2.5508 2.0798,-4.6308 4.6307,-4.6308l51.7386 0c2.5509,0 4.6307,2.08 4.6307,4.6308l0 83.7385c0,2.5508 -2.0798,4.6308 -4.6307,4.6308l-9.3693 0 0 0.3692c0,2.5508 -2.0798,4.6308 -4.6307,4.6308l-9.3693 0 0 0.3692c0,2.5508 -2.0798,4.6308 -4.6307,4.6308l-51.7386 0c-2.5509,0 -4.6307,-2.08 -4.6307,-4.6308l0 -83.7385c0,-2.5508 2.0798,-4.6308 4.6307,-4.6308l9.3693 0 0 -0.3692c0,-2.5508 2.0798,-4.6308 4.6307,-4.6308l9.3693 0z"/>
   <path id="_422309264" class="fil1 str1" d="M5.1308 27.562l51.7384 0c1.4528,0 2.6309,1.1781 2.6309,2.6308l-0.0001 83.7384c0.0001,1.4526 -1.178,2.6307 -2.6307,2.6307l-51.7385 0.0001c-1.4526,-0.0001 -2.6307,-1.1782 -2.6307,-2.6309l-0.0001 -83.7383c0.0001,-1.4527 1.1782,-2.6308 2.6309,-2.6308z"/>
   <path id="Ouros_3" class="fil2" d="M9.7849 57.447c0.0406,-0.0411 0.5237,-0.8831 0.6089,-1.0215 0.2088,-0.3391 0.4262,-0.6779 0.648,-1.009 0.4683,-0.6995 0.8961,-1.2316 1.4113,-1.8849l-0.7102 -0.929c-0.7194,-0.9528 -1.343,-1.9739 -1.9624,-2.9908 -0.0909,0.0843 -0.5358,0.8362 -0.6382,1.001 -0.1981,0.3187 -0.4446,0.6887 -0.6628,0.9942 -0.1329,0.186 -1.3636,1.8937 -1.3641,1.9265 -0.0008,0.0518 0.6077,0.8299 0.6899,0.9399 0.5825,0.7782 1.1566,1.6255 1.6555,2.4602 0.0668,0.1117 0.2319,0.4604 0.3241,0.5134z"/>
   <path id="A_4" class="fil3" d="M9.8364 41.1339l0 0.7829 3.6402 0 0 -0.7829 -0.6001 0 -2.4791 -7.5154 -1.2526 0 -2.2441 7.1632c-0.037,0.1174 -0.1196,0.2065 -0.2436,0.2653 -0.124,0.0587 -0.3001,0.0869 -0.5263,0.0869l0 0.7829 2.2964 0 0 -0.7829c-0.2066,0 -0.3566,-0.0347 -0.4501,-0.1 -0.0935,-0.0674 -0.1392,-0.1587 -0.137,-0.2783 0,-0.037 0.0065,-0.0892 0.0174,-0.1566 0.013,-0.0696 0.0282,-0.1348 0.0478,-0.1957l0.1044 -0.3654 2.1137 0 0.3262 1.096 -0.6132 0zm0.0261 -1.9571l-1.5918 0 0.7959 -2.6356 0.7959 2.6356z"/>
   <path id="_422309072" class="fil1 str1" d="M19.1308 22.562l51.7384 0c1.4528,0 2.6309,1.1781 2.6309,2.6308l-0.0001 83.7384c0.0001,1.4526 -1.178,2.6307 -2.6307,2.6307l-51.7385 0.0001c-1.4526,-0.0001 -2.6307,-1.1782 -2.6307,-2.6309l-0.0001 -83.7383c0.0001,-1.4527 1.1782,-2.6308 2.6309,-2.6308z"/>
   <path id="Espadas_x0020_Inferior" class="fil0" d="M66.4223 83.6528c0.1981,-0.8284 0.3875,-1.1381 0.8183,-1.7968l-2.2415 0c0.052,0.1941 0.3963,0.2271 0.7272,1.2653l0.1445 0.5315c-0.1974,-0.0676 -0.3532,-0.1672 -0.5729,-0.2276 -1.2807,-0.3522 -2.2616,0.3676 -2.3624,1.3935l0 0.3545c0.03,0.3151 0.1396,0.6489 0.3435,0.9825 0.3373,0.5519 0.6368,0.8662 1.119,1.2825 0.2842,0.2453 0.8989,0.9835 1.1119,1.2898l0.6508 0.9681c0.0901,-0.0788 0.5225,-0.7778 0.6665,-0.9596 0.3061,-0.3865 0.7729,-0.9755 1.1295,-1.3256 0.1362,-0.1336 0.2879,-0.2677 0.4185,-0.3998 0.2615,-0.2643 0.5348,-0.6089 0.7258,-0.9287 1.1568,-1.9365 -0.5587,-3.348 -2.3897,-2.5675 -0.0997,0.0425 -0.1952,0.1034 -0.289,0.1379z"/>
   <path id="Espadas_x0020_Central" class="fil0" d="M44.7836 69.1886c-0.1984,0.8296 -0.3881,1.1399 -0.8196,1.7995l2.245 0c-0.052,-0.1944 -0.3969,-0.2274 -0.7283,-1.2672l-0.1448 -0.5323c0.1978,0.0677 0.3538,0.1674 0.5739,0.2279 1.2827,0.3528 2.2651,-0.3681 2.366,-1.3956l0 -0.3551c-0.03,-0.3156 -0.1399,-0.6498 -0.344,-0.984 -0.3378,-0.5527 -0.6378,-0.8676 -1.1208,-1.2845 -0.2846,-0.2457 -0.9003,-0.985 -1.1135,-1.2918l-0.6519 -0.9696c-0.0902,0.079 -0.5233,0.7791 -0.6675,0.9612 -0.3066,0.387 -0.7741,0.9769 -1.1313,1.3275 -0.1364,0.1339 -0.2883,0.2682 -0.4191,0.4005 -0.2619,0.2647 -0.5356,0.6099 -0.7269,0.9301 -1.1586,1.9395 0.5596,3.3532 2.3933,2.5715 0.0999,-0.0426 0.1956,-0.1036 0.2895,-0.1381z"/>
   <path id="Espadas_6" class="fil0" d="M23.5678 50.656c-0.1984,0.8296 -0.3881,1.1399 -0.8196,1.7995l2.245 0c-0.052,-0.1944 -0.3969,-0.2274 -0.7283,-1.2672l-0.1448 -0.5323c0.1978,0.0677 0.3538,0.1674 0.5739,0.2279 1.2827,0.3528 2.2651,-0.3681 2.366,-1.3956l0 -0.3551c-0.03,-0.3156 -0.1399,-0.6498 -0.344,-0.984 -0.3378,-0.5527 -0.6378,-0.8676 -1.1208,-1.2845 -0.2846,-0.2457 -0.9003,-0.985 -1.1135,-1.2918l-0.6519 -0.9696c-0.0902,0.079 -0.5233,0.7791 -0.6675,0.9612 -0.3066,0.387 -0.7741,0.9769 -1.1313,1.3275 -0.1364,0.1339 -0.2883,0.2682 -0.4191,0.4005 -0.2619,0.2647 -0.5356,0.6099 -0.7269,0.9301 -1.1586,1.9395 0.5596,3.3532 2.3933,2.5715 0.0999,-0.0426 0.1956,-0.1036 0.2895,-0.1381z"/>
   <path id="A_7" class="fil4" d="M23.8364 36.1339l0 0.7829 3.6402 0 0 -0.7829 -0.6001 0 -2.4791 -7.5154 -1.2526 0 -2.2441 7.1632c-0.037,0.1174 -0.1196,0.2065 -0.2436,0.2653 -0.124,0.0587 -0.3001,0.0869 -0.5263,0.0869l0 0.7829 2.2964 0 0 -0.7829c-0.2066,0 -0.3566,-0.0347 -0.4501,-0.1 -0.0935,-0.0674 -0.1392,-0.1587 -0.137,-0.2783 0,-0.037 0.0065,-0.0892 0.0174,-0.1566 0.013,-0.0696 0.0282,-0.1348 0.0478,-0.1957l0.1044 -0.3654 2.1137 0 0.3262 1.096 -0.6132 0zm0.0261 -1.9571l-1.5918 0 0.7959 -2.6356 0.7959 2.6356z"/>
   <path id="_422308808" class="fil1 str1" d="M33.1308 17.562l51.7384 0c1.4528,0 2.6309,1.1781 2.6309,2.6308l-0.0001 83.7384c0.0001,1.4526 -1.178,2.6307 -2.6307,2.6307l-51.7385 0.0001c-1.4526,-0.0001 -2.6307,-1.1782 -2.6307,-2.6309l-0.0001 -83.7383c0.0001,-1.4527 1.1782,-2.6308 2.6309,-2.6308z"/>
   <path id="_422308664" class="fil5 str2" d="M46.3523 37.1839l25.2954 0c0.7103,0 1.2863,0.576 1.2863,1.2862l-0.0001 47.1838c0.0001,0.7101 -0.5759,1.2861 -1.2861,1.2861l-25.2955 0.0001c-0.7101,-0.0001 -1.2861,-0.5761 -1.2861,-1.2863l-0.0001 -47.1837c0.0001,-0.7102 0.5761,-1.2862 1.2863,-1.2862z"/>
   <path id="Copas_x0020_Inferior_10" class="fil2" d="M82.2518 84.6742c0.978,-0.0755 1.5851,-0.7473 1.6189,-1.5957l0 -0.151c-0.0081,-0.2055 -0.0489,-0.4194 -0.1253,-0.6364 -0.2763,-0.7844 -1.1694,-1.7726 -1.7146,-2.4305 -0.6682,-0.8062 -1.2085,-1.5431 -1.6099,-2.519 -0.0544,-0.1323 -0.1751,-0.783 -0.3374,-0.2997 -0.2497,0.7435 -0.6256,1.3817 -1.1073,2.0084 -0.5887,0.766 -1.2996,1.5042 -1.8317,2.2956 -1.484,2.207 0.0544,3.5924 1.5767,3.3022 0.6591,-0.1256 1.1348,-0.5921 1.4179,-1.1775 0.1395,-0.2885 0.1038,0.1714 0.6045,0.6659 0.4116,0.4065 0.9361,0.5818 1.5082,0.5377z"/>
   <path id="Copas_x0020_Central_11" class="fil2" d="M56.9513 58.1579c-0.9795,0.0756 -1.5876,0.7484 -1.6214,1.5981l0 0.1513c0.0081,0.2058 0.049,0.4201 0.1255,0.6374 0.2768,0.7855 1.1712,1.7753 1.7172,2.4342 0.6693,0.8075 1.2104,1.5455 1.6124,2.5229 0.0545,0.1326 0.1754,0.7843 0.338,0.3001 0.2501,-0.7446 0.6266,-1.3838 1.109,-2.0114 0.5896,-0.7672 1.3015,-1.5066 1.8344,-2.2991 1.4864,-2.2104 -0.0544,-3.598 -1.579,-3.3074 -0.6602,0.1258 -1.1366,0.5931 -1.4201,1.1794 -0.1397,0.2889 -0.104,-0.1717 -0.6055,-0.667 -0.4122,-0.4071 -0.9375,-0.5827 -1.5105,-0.5385z"/>
   <path id="Copas_12" class="fil2" d="M35.7355 39.6253c-0.9795,0.0756 -1.5876,0.7484 -1.6214,1.5981l0 0.1513c0.0081,0.2058 0.049,0.4201 0.1255,0.6374 0.2768,0.7855 1.1712,1.7753 1.7172,2.4342 0.6693,0.8075 1.2104,1.5455 1.6124,2.5229 0.0545,0.1326 0.1754,0.7843 0.338,0.3001 0.2501,-0.7446 0.6266,-1.3838 1.109,-2.0114 0.5896,-0.7672 1.3015,-1.5066 1.8344,-2.2991 1.4864,-2.2104 -0.0544,-3.598 -1.579,-3.3074 -0.6602,0.1258 -1.1366,0.5931 -1.4201,1.1794 -0.1397,0.2889 -0.104,-0.1717 -0.6055,-0.667 -0.4122,-0.4071 -0.9375,-0.5827 -1.5105,-0.5385z"/>
   <path id="A_x0020_Inferior" class="fil3" d="M80.1629 92.9003l0 -0.7829 -3.6402 0 0 0.7829 0.6001 0 2.4791 7.5154 1.2526 0 2.2441 -7.1632c0.037,-0.1174 0.1196,-0.2065 0.2436,-0.2653 0.124,-0.0587 0.3001,-0.0869 0.5263,-0.0869l0 -0.7829 -2.2964 0 0 0.7829c0.2066,0 0.3566,0.0347 0.4501,0.1 0.0935,0.0674 0.1392,0.1587 0.137,0.2783 0,0.037 -0.0065,0.0892 -0.0174,0.1566 -0.013,0.0696 -0.0282,0.1348 -0.0478,0.1957l-0.1044 0.3654 -2.1137 0 -0.3262 -1.096 0.6132 0zm-0.0261 1.9571l1.5918 0 -0.7959 2.6356 -0.7959 -2.6356z"/>
   <path id="A_13" class="fil3" d="M37.8364 31.1339l0 0.7829 3.6402 0 0 -0.7829 -0.6001 0 -2.4791 -7.5154 -1.2526 0 -2.2441 7.1632c-0.037,0.1174 -0.1196,0.2065 -0.2436,0.2653 -0.124,0.0587 -0.3001,0.0869 -0.5263,0.0869l0 0.7829 2.2964 0 0 -0.7829c-0.2066,0 -0.3566,-0.0347 -0.4501,-0.1 -0.0935,-0.0674 -0.1392,-0.1587 -0.137,-0.2783 0,-0.037 0.0065,-0.0892 0.0174,-0.1566 0.013,-0.0696 0.0282,-0.1348 0.0478,-0.1957l0.1044 -0.3654 2.1137 0 0.3262 1.096 -0.6132 0zm0.0261 -1.9571l-1.5918 0 0.7959 -2.6356 0.7959 2.6356z"/>
   <polygon id="Trinca" class="fil4" points="25.2471,1.5664 25.2471,4.0515 26.6355,4.0515 26.4955,2.7915 27.5456,2.7915 27.5456,8.5318 26.5772,8.3918 26.5772,9.7219 30.1824,9.7219 30.1824,8.3918 29.2023,8.5318 29.2023,2.7915 30.2524,2.7915 30.1124,4.0515 31.5008,4.0515 31.5008,1.5664 "/>
   <path id="Trinca1" class="fil4" d="M35.1411 2.8031c0.3733,0 0.6572,0.142 0.8517,0.4259 0.1944,0.2839 0.2917,0.5931 0.2917,0.9276 0,0.3578 -0.1031,0.6708 -0.3092,0.9392 -0.2062,0.2683 -0.4998,0.4025 -0.8809,0.4025l-0.8401 0 0 -2.6952 0.8868 0zm-2.5085 -0.0466l0 5.7753 -0.7351 -0.14 0 1.3301 3.0102 0 0 -1.3301 -0.6534 0.14 0 -1.8084 0.7584 0 1.6918 2.9985 1.7384 0 0 -1.3301 -0.735 0.14 -1.1784 -2.1118c0.4667,-0.2178 0.8186,-0.5308 1.0559,-0.9392 0.2372,-0.4084 0.3558,-0.8653 0.3558,-1.3709 0,-0.7701 -0.2469,-1.3865 -0.7408,-1.8493 -0.494,-0.4628 -1.1182,-0.6942 -1.8727,-0.6942l-3.4302 0 0 1.3301 0.7351 -0.14z"/>
   <polygon id="Trinca12" class="fil4" points="38.9796,1.5664 38.9796,2.8965 39.8313,2.7565 39.8313,8.5318 38.9796,8.3918 38.9796,9.7219 42.3281,9.7219 42.3281,8.3918 41.4881,8.5318 41.4881,2.6515 42.3281,2.5114 42.3281,1.5664 "/>
   <polygon id="Trinca123" class="fil4" points="42.8181,1.5664 42.8181,2.8965 43.5532,2.7565 43.5532,8.5318 42.8181,8.3918 42.8181,9.7219 45.8167,9.7219 45.8167,8.3918 45.0816,8.5318 45.0816,4.2849 47.7418,9.7219 49.2936,9.7219 49.2936,2.7565 50.0286,2.8965 50.0286,1.5664 47.7651,1.5664 47.7651,6 47.8701,7.3418 47.4734,6.0117 45.28,1.5664 "/>
   <path id="Trinca1234" class="fil4" d="M55.3256 1.5664l0.14 0.735c-0.1555,-0.2333 -0.3908,-0.4355 -0.7058,-0.6067 -0.3151,-0.1711 -0.6359,-0.2567 -0.9626,-0.2567 -0.8945,0 -1.6393,0.3345 -2.2343,1.0034 -0.5951,0.669 -0.8926,1.7268 -0.8926,3.1736 0,1.4701 0.3073,2.5454 0.9218,3.226 0.6144,0.6806 1.4078,1.0209 2.3801,1.0209 1.4857,0 2.4502,-0.7817 2.8935,-2.3451l-1.2134 -0.4317c-0.3578,1.0345 -0.8828,1.5517 -1.5751,1.5517 -0.5211,0 -0.9431,-0.2625 -1.2659,-0.7875 -0.3228,-0.5251 -0.4842,-1.2659 -0.4842,-2.2227 0,-0.9645 0.1575,-1.6995 0.4725,-2.2051 0.315,-0.5056 0.702,-0.7584 1.1609,-0.7584 0.3734,0 0.7565,0.1692 1.1493,0.5076 0.3928,0.3383 0.5892,0.8381 0.5892,1.4992l1.015 0 0 -3.1035 -1.3884 0z"/>
   <path id="Trinca12345" class="fil4" d="M61.1709 3.1532l0.6884 3.1151 -1.3534 0 0.665 -3.1151zm0.8401 -1.5868l-1.6568 0 -2.1818 6.9654 -0.6767 -0.14 0 1.3301 3.1269 0 0 -1.3301 -0.7934 0.14 0.3033 -1.0267 2.1002 0 0.3033 1.0267 -0.805 -0.14 0 1.3301 3.1385 0 0 -1.3301 -0.6884 0.14 -2.1701 -6.9654z"/>
  </g>
 </g>
</svg>
