<?xml version="1.0" encoding="UTF-8"?>
<!DOCTYPE svg PUBLIC "-//W3C//DTD SVG 1.1//EN" "http://www.w3.org/Graphics/SVG/1.1/DTD/svg11.dtd">
<!-- Creator: CorelDRAW -->
<svg xmlns="http://www.w3.org/2000/svg" xml:space="preserve" width="58mm" height="90mm" style="shape-rendering:geometricPrecision; text-rendering:geometricPrecision; image-rendering:optimizeQuality; fill-rule:evenodd; clip-rule:evenodd"
viewBox="0 0 58 90"
 xmlns:xlink="http://www.w3.org/1999/xlink">
 <defs>
  <style type="text/css">
   <![CDATA[
    .str0 {stroke:black;stroke-width:0.25}
    .str1 {stroke:white;stroke-width:0.25}
    .fil4 {fill:none}
    .fil1 {fill:black}
    .fil2 {fill:#E6E6E6}
    .fil3 {fill:#FE0000}
    .fil0 {fill:white}
    .fil5 {fill:black;fill-rule:nonzero}
    .fil6 {fill:#FE0000;fill-rule:nonzero}
   ]]>
  </style>
    <mask id="id0">
  <linearGradient id="id1" gradientUnits="userSpaceOnUse" x1="27.4295" y1="90.4309" x2="30.5705" y2="-0.4309">
   <stop offset="0" style="stop-opacity:1; stop-color:white"/>
   <stop offset="0.921569" style="stop-opacity:0.501961; stop-color:white"/>
   <stop offset="1" style="stop-opacity:0; stop-color:white"/>
  </linearGradient>
     <rect style="fill:url(#id1)" x="0.375" y="0.375" width="57.25" height="89.2501"/>
    </mask>
    <mask id="id2">
  <linearGradient id="id3" gradientUnits="userSpaceOnUse" x1="29" y1="21.86" x2="29" y2="68.14">
   <stop offset="0" style="stop-opacity:0.639216; stop-color:white"/>
   <stop offset="0.419608" style="stop-opacity:0.682353; stop-color:white"/>
   <stop offset="1" style="stop-opacity:0; stop-color:white"/>
  </linearGradient>
     <rect style="fill:url(#id3)" x="0.375" y="0.375" width="57.25" height="89.2501"/>
    </mask>
     <mask id="id4">
  <linearGradient id="id5" gradientUnits="userSpaceOnUse" x1="28.0084" y1="40.8751" x2="30.2456" y2="49.1249">
   <stop offset="0" style="stop-opacity:1; stop-color:white"/>
   <stop offset="1" style="stop-opacity:0; stop-color:white"/>
  </linearGradient>
      <rect style="fill:url(#id5)" x="17.0323" y="41.9054" width="24.1894" height="6.1892"/>
     </mask>
 </defs>
 <g id="Camada_x0020_1">
  <metadata id="CorelCorpID_0Corel-Layer"/>
  <g id="Verso">
   <rect id="Verso_0" class="fil0 str0" x="0.499998" y="0.500029" width="57" height="89" rx="2.6308" ry="2.6308"/>
   <path id="Verso_x0020_Cor" class="fil1 str0" style="mask:url(#id0)" d="M3.1307 0.5l51.7386 0c1.4469,0 2.6307,1.1838 2.6307,2.6308l0 83.7385c0,1.447 -1.1838,2.6308 -2.6307,2.6308l-51.7386 0c-1.4469,0 -2.6307,-1.1838 -2.6307,-2.6308l0 -83.7385c0,-1.447 1.1838,-2.6308 2.6307,-2.6308z"/>
   <g>
    <path id="_466633032" class="fil2" d="M49.353 79.2151c-2.0132,2.5413 -5.5506,1.764 -5.589,-1.8284 -0.0065,-0.6063 0.0737,-1.2636 0.2123,-1.8538 0.0671,-0.2857 0.154,-0.5662 0.2253,-0.8508 0.2038,-0.8127 0.3012,-1.7233 0.4023,-2.5574 0.0315,-0.2591 0.0316,-0.5544 0.0408,-0.8168 0.0086,-0.243 0.0065,-0.7899 0.0748,-1.0086l0.1185 -0.3795 1.9644 0.9002c0.3661,0.1678 0.7877,0.3074 1.1709,0.4319 0.3692,0.1199 0.8092,0.2637 1.1914,0.3265 0.966,0.1589 1.6805,0.3557 2.5575,0.8045 0.5169,0.2645 1.0484,0.62 1.3572,1.1246l0.2798 0.4571c0.2203,0.3599 0.3444,0.7637 0.3591,1.1858 0.0517,1.4894 -1.1634,2.6066 -2.5069,2.994 -0.0861,0.0248 -0.171,0.0431 -0.2554,0.0579l0.0859 0.0809c0.3345,0.3154 0.7539,0.6535 1.2,0.7947 0.2511,0.0795 0.5374,0.0742 0.737,0.2639l0.3306 0.3142 -3.8311 2.3447 0.0195 -0.6469c0.0266,-0.8839 0.0224,-1.429 -0.1449,-2.1387z"/>
   </g>
   <path id="Espadas" class="fil1" d="M49.485 78.4019c0.3982,1.2243 0.3985,1.7732 0.3627,2.9624l2.8901 -1.7688c-0.2202,-0.2093 -0.6902,0.02 -1.936,-1.0576l-0.6058 -0.5712c0.308,-0.0686 0.5874,-0.0632 0.9184,-0.1586 1.9292,-0.5565 2.6258,-2.2586 1.9463,-3.6608l-0.2798 -0.4571c-0.2873,-0.3827 -0.692,-0.7265 -1.2181,-0.9957 -0.8704,-0.4454 -1.5047,-0.6144 -2.4549,-0.7707 -0.5599,-0.092 -1.935,-0.5587 -2.4513,-0.7856l-1.603 -0.7346c-0.0539,0.1727 -0.06,1.4152 -0.1022,1.7632 -0.0897,0.7398 -0.2267,1.8675 -0.4103,2.6004 -0.0702,0.2798 -0.1599,0.5723 -0.2241,0.8457 -0.1285,0.5471 -0.209,1.2071 -0.203,1.7701 0.0366,3.4097 3.3623,3.8758 5.1072,1.4248 0.095,-0.1336 0.1701,-0.2875 0.2638,-0.4059z"/>
   <g>
    <path id="_466633080" class="fil0" d="M11.7394 85.1755c-0.3279,-0.1885 -0.6567,-0.9466 -0.8609,-1.2882 -1.1422,-1.9105 -2.4011,-3.7679 -3.7346,-5.5499 -0.2599,-0.3473 -0.53,-0.689 -0.7923,-1.035 -0.1693,-0.2233 -0.8464,-1.0443 -0.8423,-1.3117 0.0031,-0.1999 0.4314,-0.7457 0.5466,-0.9097 0.3526,-0.502 0.709,-1.0015 1.0657,-1.5007 0.5144,-0.7199 1.0324,-1.4372 1.5467,-2.1572 0.5192,-0.7269 1.0193,-1.4776 1.4908,-2.2362 0.2316,-0.3724 0.4548,-0.751 0.6849,-1.1246 0.1797,-0.2919 0.5854,-0.9982 0.8219,-1.2175l0.3141 -0.2913 0.2228 0.3658c1.4,2.2986 2.7931,4.6121 4.4298,6.7529l1.7759 2.3228 -0.1683 0.2134c-1.1022,1.3978 -2.193,2.7718 -3.1849,4.253 -0.5019,0.7497 -0.9893,1.5092 -1.4624,2.2774 -0.229,0.372 -0.446,0.7588 -0.6669,1.1362 -0.153,0.2615 -0.3063,0.5231 -0.4622,0.7828 -0.0718,0.1195 -0.206,0.3642 -0.3012,0.4603l-0.1895 0.1916 -0.2337 -0.1342z"/>
   </g>
   <path id="Ouros" class="fil3" d="M11.9138 84.872c0.0922,-0.0932 1.1878,-2.0029 1.3811,-2.3167 0.4735,-0.7692 0.9666,-1.5375 1.4696,-2.2886 1.0622,-1.5864 2.0325,-2.7933 3.2009,-4.275l-1.6108 -2.1069c-1.6316,-2.161 -3.0459,-4.4769 -4.4507,-6.7834 -0.2062,0.1912 -1.2152,1.8966 -1.4475,2.2703 -0.4493,0.7228 -1.0085,1.5619 -1.5033,2.2548 -0.3014,0.4219 -3.0927,4.2952 -3.0938,4.3696 -0.0019,0.1173 1.3783,1.8823 1.5648,2.1316 1.3211,1.765 2.6231,3.6868 3.7548,5.58 0.1514,0.2532 0.5259,1.0442 0.7349,1.1643z"/>
   <g>
    <path id="_466632600" class="fil0" d="M41.3515 28.0155c-0.2453,-0.1986 -0.4269,-0.4257 -0.5411,-0.7238 -0.2406,-0.6286 0.0598,-1.2411 0.6288,-1.5561 0.989,-0.5476 1.83,0.0073 2.0076,1.0538 0.7237,-0.281 1.6143,0.0009 1.808,0.8539 0.1628,0.7166 -0.2469,1.2948 -0.8792,1.4902 0.2152,0.1144 0.5621,0.2064 0.6783,0.3221l0.324 0.3228 -2.4759 1.4278 -0.0282 -0.5722c-0.0031,-0.0635 0.0005,-0.1255 0.0095,-0.1883 0.028,-0.1942 0.0467,-0.2787 0.0323,-0.4598 -0.1183,0.1155 -0.2516,0.2092 -0.3888,0.2649 -0.5085,0.2067 -0.9636,0.117 -1.3548,-0.2685 -0.6202,-0.611 -0.471,-1.4523 0.1795,-1.9668z"/>
   </g>
   <path id="Paus" class="fil1" d="M43.4979 28.7979l0 0zm-1.3595 -0.7767l0 0zm0.9315 -0.5498l0 0zm-0.9315 0.5498c-0.2316,0.0891 -0.3226,0.0741 -0.5678,0.2673 -0.479,0.3776 -0.6288,0.9757 -0.153,1.4445 0.2943,0.2899 0.5981,0.3478 0.9774,0.1936 0.2601,-0.1057 0.5232,-0.4454 0.6037,-0.7321l0.0307 -0.1264c0.0742,0.1578 0.2088,0.6405 0.227,0.8053 0.0518,0.4682 -0.0428,0.5446 -0.033,0.7434l1.5835 -0.9132c-0.0531,-0.0529 -0.395,-0.1215 -0.6909,-0.3173 -0.1076,-0.0711 -0.2233,-0.1724 -0.3182,-0.2603 -0.0699,-0.0649 -0.2536,-0.2476 -0.2999,-0.3281 0.1787,0.0197 0.2018,0.0758 0.5005,0.0527 0.5642,-0.0435 1.0671,-0.4607 0.9151,-1.1298 -0.1744,-0.7682 -1.0887,-0.8492 -1.619,-0.4504 -0.0871,0.0654 -0.1472,0.1387 -0.2246,0.201 0.0313,-0.2241 0.0724,-0.3729 0.0343,-0.6084 -0.1281,-0.7925 -0.6834,-1.2536 -1.4955,-0.8212 -0.4204,0.2418 -0.6455,0.6652 -0.4714,1.1247 0.095,0.2455 0.2437,0.4251 0.4473,0.5873 0.2577,0.2053 0.3411,0.1775 0.5538,0.2674z"/>
   <g>
    <path id="_466632360" class="fil2" d="M27.557 19.172c-2.2119,-0.3403 -3.0315,-2.7425 -0.9149,-4.1618 0.3616,-0.2425 0.7873,-0.4529 1.1964,-0.6019 0.1947,-0.0709 0.3939,-0.1282 0.5896,-0.1962 0.5531,-0.1923 1.1238,-0.4847 1.6503,-0.7451 0.317,-0.1568 0.8416,-0.5593 1.1379,-0.6435l0.3822 -0.1086 0.2455 1.6209c0.0679,0.4487 0.2754,1.2474 0.4574,1.6582 0.2837,0.6404 0.4463,1.1475 0.5216,1.8484 0.0459,0.4271 0.039,0.8937 -0.148,1.2891l-0.1615 0.3414c-0.1348,0.2849 -0.3367,0.5279 -0.5944,0.7097 -0.8959,0.6319 -2.0707,0.3469 -2.8545,-0.3242 -0.0426,0.2776 -0.0632,0.5929 0.0111,0.8579 0.0571,0.2038 0.1725,0.3554 0.131,0.5826l-0.0818 0.4484 -3.155 -1.4912 0.5518 -0.3383c0.4483,-0.2748 0.742,-0.4664 1.0353,-0.7458z"/>
   </g>
   <path id="Espadas_1" class="fil1" d="M28.31 18.8588c-0.5676,0.7073 -0.8909,0.9193 -1.6054,1.3573l2.1578 1.0201c0.0384,-0.2106 -0.2782,-0.399 -0.1242,-1.549l0.1027 -0.5774c0.1593,0.1549 0.264,0.3217 0.448,0.4798 1.0726,0.9219 2.3445,0.6753 2.9083,-0.2664l0.1613 -0.3413c0.1146,-0.317 0.1609,-0.6882 0.1165,-1.1021 -0.0736,-0.6848 -0.2189,-1.1238 -0.4937,-1.744 -0.1619,-0.3654 -0.4178,-1.3558 -0.4834,-1.7476l-0.186 -1.2281c-0.1225,0.0349 -0.857,0.5111 -1.0783,0.6205 -0.4706,0.2328 -1.1879,0.5874 -1.6906,0.7621 -0.1919,0.0667 -0.3989,0.1267 -0.5848,0.1945 -0.3719,0.1354 -0.7919,0.3428 -1.1213,0.5637 -1.9948,1.3379 -0.9856,3.4773 1.1321,3.5592 0.1154,0.0044 0.2351,-0.0108 0.341,-0.0013z"/>
   <g>
    <path id="_466632840" class="fil2" d="M26.3613 68.2364c-0.2282,-0.39 -0.3293,-0.8377 -0.2379,-1.3018 0.1146,-0.5814 0.4807,-1.1121 1.0264,-1.3636 1.0154,-0.4681 1.9589,0.2348 2.5137,1.0529 0.4426,0.6526 0.7626,1.376 1.162,2.0537 0.2961,0.5023 0.6346,0.9464 1.0794,1.3264 0.1645,0.1404 0.2883,0.3416 0.181,0.5619 -0.1469,0.3016 -0.4693,0.2233 -0.7295,0.2142 -0.7925,0.0057 -1.4834,0.1837 -2.2326,0.423 -0.7123,0.2275 -1.6832,0.5922 -2.4264,0.5594 -0.2117,-0.0094 -0.4249,-0.0422 -0.6223,-0.1217l-0.1115 -0.0449c-0.8547,-0.3442 -1.1688,-1.2476 -0.8998,-2.0999 0.1683,-0.533 0.525,-0.9463 1.0402,-1.1695 0.0984,-0.0426 0.1807,-0.0703 0.2573,-0.0901z"/>
   </g>
   <path id="Copas" class="fil3" d="M25.3976 69.6014c-0.2351,0.7445 0.0803,1.3925 0.6967,1.6698l0.1115 0.0449c0.1541,0.0552 0.3242,0.0886 0.5071,0.0967 0.6613,0.0292 1.6566,-0.3362 2.3044,-0.5431 0.794,-0.2536 1.4987,-0.4334 2.3387,-0.4396 0.1139,-0.0008 0.6302,0.1036 0.3216,-0.16 -0.4747,-0.4055 -0.8342,-0.8728 -1.1536,-1.4148 -0.3905,-0.6624 -0.7242,-1.4068 -1.1502,-2.035 -1.1882,-1.752 -2.6686,-1.0282 -2.907,0.182 -0.1033,0.524 0.0997,1.014 0.4477,1.3971 0.1716,0.1888 -0.1574,0.0257 -0.6714,0.2483 -0.4225,0.1831 -0.708,0.5181 -0.8455,0.9537z"/>
   <g>
    <path id="_466631688" class="fil2" d="M43.0176 10.9524c0.2723,0.0316 0.5306,0.1383 0.7431,0.3333 0.3153,0.2893 0.5018,0.7138 0.4516,1.1442 -0.0924,0.7932 -0.8514,1.1204 -1.5629,1.1548 -0.5205,0.0252 -1.0365,-0.0426 -1.5559,-0.0504 -0.3693,-0.0056 -0.7209,0.0304 -1.073,0.1456 -0.1888,0.0618 -0.3968,0.0453 -0.5155,-0.14 -0.1546,-0.2412 0.0019,-0.4265 0.1292,-0.6115 0.2611,-0.435 0.3915,-0.8705 0.5104,-1.3597 0.1207,-0.4967 0.2483,-1.1671 0.5329,-1.59 0.0856,-0.1271 0.1857,-0.245 0.3091,-0.3368l0.0632 -0.047c0.5357,-0.3983 1.2197,-0.259 1.6468,0.231 0.2629,0.3015 0.384,0.6805 0.3284,1.0783 -0.0023,0.0167 -0.0048,0.0327 -0.0074,0.0482z"/>
   </g>
   <path id="Copas_2" class="fil3" d="M42.4328 10.056c-0.337,-0.3863 -0.808,-0.4309 -1.1741,-0.1802l-0.0632 0.0471c-0.0836,0.0675 -0.1605,0.1514 -0.2276,0.2512 -0.2424,0.3607 -0.3777,1.0434 -0.4831,1.4772 -0.1293,0.5317 -0.2694,0.9882 -0.553,1.4611 -0.0385,0.0641 -0.2734,0.3178 -0.0202,0.2349 0.3895,-0.1275 0.7743,-0.1692 1.1872,-0.163 0.5048,0.0075 1.0361,0.0749 1.5338,0.0508 1.3881,-0.0671 1.4883,-1.1443 0.8915,-1.6916 -0.2584,-0.2369 -0.6024,-0.2906 -0.9361,-0.2265 -0.1644,0.0316 0.0394,-0.097 0.0903,-0.4612 0.0418,-0.2994 -0.0484,-0.5739 -0.2455,-0.7998z"/>
   <g>
    <path id="_466631832" class="fil2" d="M11.6511 35.8699c0.3882,0.0085 0.7623,0.1332 1.0696,0.4018 0.4025,0.3519 0.6507,0.8773 0.6011,1.4169 -0.0924,1.0039 -1.0562,1.4257 -1.9474,1.4898 -0.6925,0.0498 -1.3852,-0.0249 -2.078,-0.0189 -0.5081,0.0044 -0.9909,0.0658 -1.4715,0.2358 -0.1988,0.0703 -0.4237,0.0713 -0.5567,-0.1257 -0.1771,-0.2625 0.0241,-0.486 0.1567,-0.695 0.342,-0.6021 0.5089,-1.2022 0.6556,-1.8737 0.1418,-0.6495 0.2911,-1.5502 0.6476,-2.1079 0.103,-0.1611 0.2248,-0.3123 0.3761,-0.4307l0.0833 -0.0652c0.6556,-0.5132 1.5067,-0.3527 2.0523,0.2438 0.3392,0.3709 0.5016,0.8385 0.4435,1.34 -0.0084,0.0719 -0.0192,0.1334 -0.0322,0.189z"/>
   </g>
   <path id="Copas_3" class="fil3" d="M10.9815 34.5771c-0.4636,-0.5068 -1.0959,-0.5517 -1.5783,-0.2044l-0.0833 0.0652c-0.1099,0.0931 -0.2102,0.2079 -0.2969,0.3436 -0.3133,0.4908 -0.473,1.4096 -0.6006,1.994 -0.1563,0.7163 -0.3296,1.3321 -0.6946,1.9745 -0.0495,0.0871 -0.3562,0.4344 -0.0196,0.3154 0.5176,-0.1831 1.0318,-0.2511 1.5851,-0.2559 0.6764,-0.0058 1.3902,0.0677 2.0561,0.0198 1.8572,-0.1338 1.9575,-1.5798 1.1408,-2.2941 -0.3536,-0.3092 -0.8161,-0.3703 -1.261,-0.2738 -0.2193,0.0475 0.0497,-0.1312 0.1064,-0.6207 0.0466,-0.4023 -0.083,-0.7672 -0.3541,-1.0636z"/>
   <g>
    <path id="_466630992" class="fil2" d="M8.2122 13.7853c0.0147,-0.282 0.3372,-0.6577 0.4901,-0.9006 0.7319,-1.1626 1.4016,-2.3747 2.0099,-3.6064 0.1188,-0.2405 0.2315,-0.4852 0.3489,-0.7267 0.0998,-0.2056 0.3435,-0.7938 0.5493,-0.8944 0.1591,-0.0777 0.5609,0.0098 0.7329,0.0344 0.3764,0.054 0.7525,0.1107 1.1285,0.1676 0.5417,0.0821 1.083,0.1669 1.6247,0.249 0.5441,0.0824 1.096,0.1476 1.6442,0.1949 0.2704,0.0233 0.5419,0.0404 0.8125,0.0627 0.2296,0.0188 0.7322,0.0443 0.9378,0.1201l0.4021 0.148 -0.2253 0.3645c-0.8739,1.4133 -1.7583,2.8275 -2.479,4.3271l-0.8293 1.7253 -0.2665 -0.0534c-1.0774,-0.2159 -2.1386,-0.4324 -3.2311,-0.5641 -0.5529,-0.0667 -1.1073,-0.1227 -1.6624,-0.1682 -0.2686,-0.022 -0.542,-0.0332 -0.8114,-0.0492 -0.2019,-0.0121 -0.7572,-0.0225 -0.9333,-0.079l-0.2567 -0.0824 0.0141 -0.2692z"/>
   </g>
   <path id="Ouros_4" class="fil3" d="M8.5617 13.8036c0.0773,0.0247 1.439,0.094 1.6664,0.1127 0.5574,0.0458 1.12,0.1025 1.6757,0.1696 1.1737,0.1415 2.1122,0.3387 3.2579,0.5682l0.7115 -1.4802c0.7354,-1.5068 1.6174,-2.9372 2.4968,-4.3596 -0.1634,-0.0602 -1.3879,-0.139 -1.6594,-0.1625 -0.5251,-0.0453 -1.1451,-0.1187 -1.6665,-0.1975 -0.3174,-0.0481 -3.2386,-0.5029 -3.2801,-0.4827 -0.0652,0.0319 -0.6526,1.2889 -0.7379,1.4618 -0.604,1.2243 -1.2998,2.4821 -2.0277,3.6379 -0.0973,0.1546 -0.429,0.5832 -0.4367,0.7323z"/>
   <g>
    <path id="_466631280" class="fil2" d="M47.4693 19.1996c-0.0593,-0.2298 0.0814,-0.5411 0.1412,-0.7674 0.2487,-0.9424 0.4451,-1.9051 0.5953,-2.868 0.0426,-0.2732 0.1191,-1.1834 0.2952,-1.3504 0.1513,-0.1434 1.138,-0.2511 1.3617,-0.2857 0.3855,-0.0596 0.7714,-0.1172 1.1569,-0.1769 0.385,-0.0596 0.7717,-0.1324 1.1521,-0.2165 0.2969,-0.0657 0.9909,-0.264 1.2548,-0.251l0.4279 0.0211 -0.106 0.4151c-0.2917,1.1428 -0.5906,2.2888 -0.7604,3.4575l-0.2073 1.4262 -0.2702 0.0287c-0.7753,0.0826 -1.54,0.1612 -2.3076,0.3039 -0.3887,0.0722 -0.776,0.152 -1.1616,0.239 -0.5661,0.1278 -1.0007,0.2885 -1.2355,0.2869l-0.2692 -0.0019 -0.0673 -0.2606z"/>
   </g>
   <path id="Ouros_5" class="fil3" d="M47.8082 19.1121c0.0578,0.0004 0.9976,-0.2425 1.1561,-0.2783 0.3885,-0.0876 0.7828,-0.1689 1.1746,-0.2417 0.8276,-0.1538 1.5072,-0.2197 2.3345,-0.3078l0.1681 -1.1572c0.1788,-1.1804 0.4733,-2.34 0.7679,-3.4938 -0.1239,-0.006 -0.9726,0.2012 -1.162,0.2431 -0.3664,0.0811 -0.8033,0.1633 -1.1743,0.2207 -0.2259,0.035 -2.3075,0.3481 -2.3314,0.3707 -0.0375,0.0356 -0.1689,1.0147 -0.19,1.1503 -0.1496,0.9605 -0.3544,1.9632 -0.6028,2.9035 -0.0332,0.1258 -0.1672,0.4876 -0.1407,0.5905z"/>
   <g>
    <path id="_466629816" class="fil2" d="M49.926 49.8808c-0.1929,0.0541 -0.3966,-0.0395 -0.5822,-0.0844 -0.6436,-0.1556 -1.3005,-0.2748 -1.9567,-0.3628 -0.2302,-0.0309 -0.8354,-0.0569 -0.9908,-0.2137 -0.1326,-0.1339 -0.2117,-0.7934 -0.2455,-0.9851 -0.0463,-0.2625 -0.0913,-0.5252 -0.1377,-0.7877 -0.0458,-0.2599 -0.1006,-0.5207 -0.1632,-0.777 -0.0529,-0.2165 -0.1985,-0.6847 -0.1929,-0.8832l0.0122 -0.428 0.417 0.097c0.7811,0.1818 1.5648,0.3688 2.3617,0.4672l1.0629 0.1314 0.0345 0.2696c0.0672,0.5256 0.1317,1.0441 0.2397,1.5637 0.0546,0.263 0.1144,0.525 0.1792,0.7858 0.1052,0.4238 0.2141,0.687 0.2172,0.864l0.0048 0.2702 -0.2602 0.073z"/>
   </g>
   <path id="Ouros_6" class="fil3" d="M49.8315 49.5438c-0.0006,-0.0395 -0.1803,-0.6781 -0.207,-0.7859 -0.0655,-0.2641 -0.1268,-0.5323 -0.1822,-0.7989 -0.1171,-0.5632 -0.1721,-1.0265 -0.2443,-1.5905l-0.793 -0.098c-0.8091,-0.1049 -1.6056,-0.2893 -2.3981,-0.4737 -0.0024,0.0846 0.1516,0.6615 0.1829,0.7903 0.0608,0.2491 0.1233,0.5464 0.1679,0.7991 0.0272,0.1538 0.2714,1.5714 0.2872,1.5873 0.0249,0.0252 0.6957,0.1007 0.7887,0.1131 0.6583,0.0882 1.3464,0.2136 1.9924,0.3696 0.0864,0.0209 0.3356,0.1072 0.4055,0.0876z"/>
   <g>
    <path id="_466630344" class="fil2" d="M36.0565 36.1085c-0.1604,0.0667 -0.3171,0.0154 -0.4773,-0.0035 -0.478,-0.0559 -0.9623,-0.0843 -1.4435,-0.0904 -0.2037,-0.0026 -0.6384,0.0368 -0.7962,-0.0886 -0.1574,-0.1252 -0.3932,-1.0622 -0.4655,-1.2999 -0.0555,-0.1827 -0.1178,-0.3654 -0.1851,-0.5441 -0.0619,-0.1647 -0.2085,-0.4889 -0.2235,-0.6484l-0.0401 -0.4269 0.4262 0.0461c0.58,0.0627 1.1627,0.1294 1.7469,0.1307l0.8563 0.0019 0.0668 0.2634c0.0946,0.3734 0.1864,0.7422 0.3099,1.1077 0.0625,0.1851 0.1288,0.369 0.1983,0.5517 0.13,0.3415 0.22,0.4882 0.2393,0.6298l0.0364 0.2671 -0.2489 0.1034z"/>
   </g>
   <path id="Ouros_7" class="fil3" d="M35.9222 35.7853c-0.0039,-0.0286 -0.1907,-0.4766 -0.2196,-0.5525 -0.0709,-0.1861 -0.139,-0.3755 -0.2028,-0.5643 -0.1347,-0.3987 -0.2155,-0.7304 -0.3176,-1.1337l-0.5847 -0.0013c-0.5969,-0.0049 -1.1917,-0.0686 -1.7836,-0.1327 0.0057,0.0617 0.1684,0.4671 0.2025,0.5579 0.0661,0.1756 0.1377,0.3861 0.1924,0.5656 0.0333,0.1094 0.3357,1.1175 0.3485,1.1277 0.0203,0.0161 0.5142,0.0118 0.5828,0.0126 0.486,0.0061 0.9969,0.0365 1.4798,0.0929 0.0646,0.0075 0.2532,0.0482 0.3023,0.0278z"/>
   <g>
    <path id="_466630200" class="fil2" d="M45.836 66.8628c-0.2056,-0.1181 -0.33,-0.4364 -0.4501,-0.6372 -0.5002,-0.8366 -1.0517,-1.6497 -1.6354,-2.4302 -0.1656,-0.2214 -0.7633,-0.9121 -0.7596,-1.1549 0.0032,-0.2084 0.6158,-0.9893 0.7473,-1.1735 0.2269,-0.3174 0.4553,-0.6336 0.682,-0.9511 0.2265,-0.317 0.4447,-0.6445 0.6503,-0.9754 0.1605,-0.2582 0.5037,-0.8932 0.6975,-1.0729l0.3141 -0.2913 0.2228 0.3658c0.6136,1.0074 1.2243,2.0221 1.9416,2.9603l0.8752 1.1449 -0.1683 0.2134c-0.4828,0.6123 -0.9608,1.2142 -1.3953,1.863 -0.2199,0.3284 -0.4335,0.6611 -0.6408,0.9977 -0.3038,0.4935 -0.4932,0.9172 -0.6579,1.084l-0.1896 0.1919 -0.2338 -0.1345z"/>
   </g>
   <path id="Ouros_8" class="fil3" d="M46.0104 66.5594c0.0406,-0.0411 0.5237,-0.8831 0.6089,-1.0215 0.2088,-0.3391 0.4262,-0.6779 0.648,-1.009 0.4683,-0.6995 0.8961,-1.2316 1.4113,-1.8849l-0.7102 -0.929c-0.7194,-0.9528 -1.343,-1.9739 -1.9624,-2.9908 -0.0909,0.0843 -0.5358,0.8362 -0.6382,1.001 -0.1981,0.3187 -0.4446,0.6887 -0.6628,0.9942 -0.1329,0.186 -1.3636,1.8937 -1.3641,1.9265 -0.0008,0.0518 0.6077,0.8299 0.6899,0.9399 0.5825,0.7782 1.1566,1.6255 1.6555,2.4602 0.0668,0.1117 0.2319,0.4604 0.3241,0.5134z"/>
   <g>
    <path id="_466629048" class="fil2" d="M19.6431 34.7332c-0.8752,1.2498 -2.631,1.0973 -3.0309,-0.6584 -0.0696,-0.3058 -0.101,-0.6456 -0.0956,-0.9592 0.0024,-0.1459 0.015,-0.2912 0.0197,-0.437 0.0131,-0.4055 -0.0347,-0.8489 -0.0724,-1.2542 -0.0241,-0.2594 -0.1562,-0.6921 -0.1352,-0.9255l0.0355 -0.3959 1.2389 0.2724c0.3015,0.0663 0.8674,0.1305 1.1725,0.1151 0.5012,-0.0252 0.8846,-0.0032 1.3729,0.1267 0.3109,0.0827 0.6289,0.213 0.8551,0.4497l0.1828 0.1913c0.7469,0.7816 0.3274,1.8819 -0.4773,2.4202 0.1173,0.0554 0.2424,0.0996 0.361,0.1107 0.1714,0.016 0.2913,-0.0268 0.4592,0.0756l0.389 0.2372 -2.0075 1.9175 -0.1178 -0.6363c-0.049,-0.2645 -0.0889,-0.4612 -0.1499,-0.6499z"/>
   </g>
   <path id="Espadas_9" class="fil1" d="M19.6523 33.9274c0.3203,0.5493 0.3778,0.8142 0.4848,1.3919l1.21 -1.1558c-0.1281,-0.078 -0.331,0.0818 -1.045,-0.3081l-0.3521 -0.2124c0.1415,-0.0653 0.2769,-0.0919 0.4267,-0.1725 0.873,-0.4703 1.0313,-1.3647 0.5567,-1.9704l-0.1828 -0.1914c-0.1787,-0.1547 -0.41,-0.2783 -0.6921,-0.3532 -0.4666,-0.124 -0.7904,-0.1393 -1.2654,-0.1154 -0.2799,0.0142 -0.9924,-0.0673 -1.2653,-0.1229l-0.8505 -0.187c-0.0079,0.089 0.1191,0.6894 0.1351,0.8618 0.034,0.3664 0.0858,0.925 0.0737,1.2979 -0.0045,0.1424 -0.0173,0.293 -0.0197,0.4317 -0.0048,0.2775 0.0253,0.6045 0.0871,0.8755 0.3741,1.6419 2.028,1.5192 2.6139,0.1538 0.032,-0.0744 0.0521,-0.1565 0.0849,-0.2235z"/>
   <g>
    <path id="_466629576" class="fil2" d="M14.7539 58.2811c-0.9812,0.0479 -1.6771,-0.8815 -1.0537,-1.9253 0.1127,-0.1886 0.2606,-0.3755 0.4151,-0.5317 0.0693,-0.07 0.1431,-0.1349 0.2133,-0.2038 0.1905,-0.187 0.37,-0.4212 0.5363,-0.6312 0.2261,-0.2857 0.1932,-0.3652 0.3776,-0.5267l0.2992 -0.262 0.5478 0.8148c0.1097,0.1633 0.3478,0.4492 0.495,0.5762 0.2639,0.2279 0.4473,0.4253 0.6303,0.7248 0.1243,0.2033 0.2234,0.4322 0.2234,0.6745l0 0.1775c0,0.7128 -0.6211,1.1055 -1.2653,1.0885 0.0026,0.0033 0.0053,0.0065 0.008,0.0096 0.0911,0.1049 0.1694,0.1358 0.212,0.2951l0.1178 0.4404 -2.2257 0 0.3544 -0.5416c0.0432,-0.0661 0.081,-0.1244 0.1145,-0.1791z"/>
   </g>
   <path id="Espadas_10" class="fil1" d="M15.3421 57.752c-0.0992,0.4149 -0.194,0.57 -0.4098,0.8998l1.1225 0c-0.026,-0.0972 -0.1985,-0.1137 -0.3641,-0.6336l-0.0724 -0.2662c0.0988,0.0339 0.1769,0.0838 0.2869,0.114 0.6413,0.1764 1.1325,-0.1841 1.183,-0.6978l0 -0.1775c-0.015,-0.1578 -0.0699,-0.325 -0.172,-0.492 -0.1689,-0.2764 -0.3189,-0.4338 -0.5604,-0.6423 -0.1423,-0.1228 -0.4501,-0.4925 -0.5568,-0.6459l-0.3259 -0.4848c-0.0451,0.0395 -0.2617,0.3895 -0.3338,0.4806 -0.1532,0.1935 -0.387,0.4885 -0.5656,0.6638 -0.0682,0.0669 -0.1441,0.134 -0.2096,0.2002 -0.1309,0.1323 -0.2678,0.3049 -0.3634,0.465 -0.5793,0.9698 0.2798,1.6766 1.1967,1.2858 0.0499,-0.0213 0.0977,-0.0518 0.1447,-0.0691z"/>
   <g>
    <path id="_466628976" class="fil2" d="M27.8567 50.5399c-0.3057,-0.1347 -0.5629,-0.3073 -0.8448,-0.5318 -0.6675,-0.5317 -1.1588,-1.1279 -1.4663,-1.931 -0.6024,-1.5734 0.1727,-3.0611 1.5879,-3.8445 2.5814,-1.429 4.6133,0.0173 5.0538,2.7424 0.0612,0.3784 0.0588,0.6936 0.0285,1.0073 1.8656,-1.3958 4.884,-0.9543 5.4582,1.5744 0.4833,2.1282 -1.0299,3.6961 -3.0915,3.8553 -0.228,0.0176 -0.4286,0.0238 -0.6293,0.0097 0.0888,0.0866 0.1703,0.1634 0.2316,0.2203 0.2842,0.2636 0.5971,0.541 0.9205,0.7549 0.3892,0.2574 0.8184,0.4451 1.2542,0.6079 0.2273,0.0849 0.732,0.2347 0.8966,0.3988l0.3237 0.3227 -5.6973 3.2862 -0.0285 -0.5719c-0.0073,-0.1472 0.0014,-0.2899 0.0223,-0.4356 0.0322,-0.224 0.0833,-0.4385 0.1058,-0.6654 0.0373,-0.375 0.015,-0.7606 -0.0263,-1.1342 -0.0341,-0.3086 -0.171,-0.8741 -0.3249,-1.3914 -0.3801,0.7795 -1.0845,1.5442 -1.8096,1.8388 -1.2796,0.52 -2.359,0.3076 -3.3437,-0.6626 -1.5762,-1.5527 -1.1499,-3.6128 0.4933,-4.908 0.2884,-0.2273 0.5606,-0.4056 0.8858,-0.5423z"/>
   </g>
   <path id="Paus_11" class="fil1" d="M33.0364 52.903l0 0zm-4.1258 -2.3571l0 0zm2.8271 -1.6685l0 0zm-2.8271 1.6685c-0.7028,0.2705 -0.9791,0.2249 -1.723,0.8112 -1.4538,1.1459 -1.9085,2.9611 -0.4644,4.3838 0.8931,0.8798 1.8152,1.0554 2.9663,0.5877 0.7893,-0.3208 1.5877,-1.3519 1.8321,-2.2221l0.0931 -0.3835c0.2253,0.4788 0.6338,1.9438 0.689,2.444 0.157,1.421 -0.1301,1.6526 -0.1001,2.2562l4.8054 -2.7717c-0.161,-0.1605 -1.1986,-0.3687 -2.0968,-0.9627 -0.3263,-0.2158 -0.6776,-0.5232 -0.9654,-0.7902 -0.2121,-0.1967 -0.7699,-0.7514 -0.9104,-0.9956 0.5424,0.0598 0.6126,0.23 1.5192,0.16 1.712,-0.1322 3.2382,-1.3981 2.7771,-3.4288 -0.5294,-2.3312 -3.3041,-2.5771 -4.9136,-1.3669 -0.2641,0.1985 -0.4467,0.4211 -0.6814,0.6101 0.0949,-0.6804 0.2196,-1.1319 0.1041,-1.8466 -0.3888,-2.4049 -2.074,-3.8044 -4.5388,-2.492 -1.2757,0.7336 -1.9588,2.0188 -1.4305,3.4132 0.2882,0.745 0.7397,1.2902 1.3575,1.7823 0.7821,0.623 1.035,0.5387 1.6806,0.8116z"/>
   <g>
    <path id="_466628568" class="fil2" d="M26.8927 80.3606c0.0044,-0.3156 0.0708,-0.5988 0.2346,-0.8728 0.346,-0.5789 1.0111,-0.7207 1.6117,-0.4676 1.0417,0.4389 1.1256,1.4429 0.4128,2.2294 0.6677,0.3947 0.9979,1.2686 0.4464,1.9491 -0.4628,0.571 -1.1706,0.6063 -1.7151,0.2299 0.0431,0.2401 0.1856,0.5695 0.1663,0.7326l-0.0537 0.4538 -2.6523 -1.0632 0.4319 -0.3758c0.0481,-0.0418 0.099,-0.0774 0.1541,-0.1092 0.1699,-0.0981 0.2479,-0.1355 0.3814,-0.2588 -0.164,-0.0216 -0.32,-0.0684 -0.4487,-0.1418 -0.4785,-0.273 -0.6878,-0.6831 -0.6264,-1.2309 0.0969,-0.8658 0.85,-1.268 1.657,-1.0747z"/>
   </g>
   <path id="Paus_12" class="fil1" d="M27.6045 82.5313l0 0zm-0.2298 -1.5487l0 0zm1.0079 0.3924l0 0zm-1.0079 -0.3924c-0.2133,-0.1269 -0.2577,-0.2078 -0.5611,-0.281 -0.5929,-0.1432 -1.1557,0.1088 -1.2301,0.7726 -0.0459,0.4105 0.0964,0.6851 0.452,0.888 0.2439,0.1391 0.6736,0.1359 0.9487,0.0219l0.1183 -0.054c-0.0781,0.1559 -0.3743,0.5601 -0.4926,0.6763 -0.3361,0.3301 -0.4546,0.3029 -0.6048,0.4336l1.6967 0.6801c0.0088,-0.0744 -0.1487,-0.3855 -0.1778,-0.7391 -0.0105,-0.1285 -0.0025,-0.2821 0.0081,-0.4111 0.0077,-0.095 0.0378,-0.3524 0.0724,-0.4386 0.095,0.1527 0.0652,0.2056 0.268,0.4261 0.383,0.4165 1.0217,0.554 1.4538,0.0209 0.4959,-0.6119 -0.0056,-1.3807 -0.6468,-1.5511 -0.1052,-0.0279 -0.2001,-0.0299 -0.2969,-0.0522 0.1956,-0.114 0.3379,-0.1736 0.4995,-0.3491 0.5437,-0.5906 0.563,-1.3121 -0.279,-1.6832 -0.4499,-0.181 -0.9219,-0.0962 -1.1754,0.3247 -0.1343,0.2264 -0.1836,0.4544 -0.1852,0.7146 -0.002,0.3295 0.0713,0.3778 0.1322,0.6006z"/>
   <path id="Verso_x0020_Cor_13" class="fil1 str0" style="mask:url(#id2)" d="M3.1307 0.5l51.7386 0c1.4469,0 2.6307,1.1838 2.6307,2.6308l0 83.7385c0,1.447 -1.1838,2.6308 -2.6307,2.6308l-51.7386 0c-1.4469,0 -2.6307,-1.1838 -2.6307,-2.6308l0 -83.7385c0,-1.447 1.1838,-2.6308 2.6307,-2.6308z"/>
   <rect id="Retângulo_x0020_Interno" class="fil4 str1" x="6.3513" y="6.55956" width="45.2974" height="76.8809" rx="2.0906" ry="2.0906"/>
   <path id="Espadas_14" class="fil1" d="M49.485 78.4019c0.3982,1.2243 0.3985,1.7732 0.3627,2.9624l2.8901 -1.7688c-0.2202,-0.2093 -0.6902,0.02 -1.936,-1.0576l-0.1668 -0.1573 -1.15 0.0213z"/>
   <g>
    <path id="_466627560" class="fil2" d="M42.4492 77.4465c0.4737,-0.5216 1.0975,-0.8683 1.8301,-0.8963 0.8142,-0.0312 1.6526,0.2918 2.1625,0.9426 0.9618,1.2274 0.2806,2.7294 -0.6453,3.7391 -0.7801,0.8508 -1.705,1.5524 -2.5356,2.3506 -0.6312,0.6065 -1.1624,1.2552 -1.5633,2.0366 -0.11,0.2144 -0.2867,0.4253 -0.5602,0.364 -0.3918,-0.0878 -0.3637,-0.5545 -0.4292,-0.8465 -0.2811,-1.1485 -0.7759,-2.0924 -1.3812,-3.0977 -0.5523,-0.9174 -1.4024,-2.1812 -1.6018,-3.226 -0.0548,-0.2874 -0.08,-0.5857 -0.0359,-0.8763l0.0265 -0.1746c0.1898,-1.251 1.3037,-1.9484 2.5232,-1.8591 0.7716,0.0566 1.4401,0.4028 1.9053,1.0256 0.1213,0.1623 0.2224,0.3346 0.3049,0.518z"/>
   </g>
   <path id="Copas_15" class="fil3" d="M40.2135 76.2521c-1.1445,-0.0838 -1.9642,0.587 -2.1517,1.5624l-0.0264 0.1747c-0.0267,0.2391 -0.0169,0.4937 0.0336,0.758 0.1824,0.9556 1.0424,2.2549 1.558,3.1112 0.6318,1.0495 1.1278,1.9963 1.4213,3.1954 0.0398,0.1625 0.0656,0.9363 0.338,0.4056 0.4188,-0.8162 0.9653,-1.4887 1.6321,-2.1293 0.8149,-0.783 1.7663,-1.5125 2.5202,-2.3348 2.1026,-2.2931 0.5656,-4.1647 -1.2459,-4.0954 -0.7844,0.03 -1.4163,0.4863 -1.8461,1.114 -0.2118,0.3092 -0.09,-0.2165 -0.5827,-0.8761 -0.405,-0.5421 -0.981,-0.8367 -1.6504,-0.8857z"/>
   <g id="Fatec">
    <g>
     <path id="_466627056" class="fil2" d="M31.5202 41.6867l4.8403 0 0 2.5034 -0.9483 0 0 1.6114 0.9483 0 0 2.5034 -4.8403 0 0 -1.7382 0.5334 0.1016 0 -3.345 -0.062 0.0118 0 0.855 -1.6679 0 0 2.4976 0.7112 -0.1016 0 1.7188 -3.3162 0 0 -1.7194 0.7027 0.1016 0 -2.497 -1.6679 0 0 -2.5034 4.7667 0zm-1.1755 1.589l-0.021 0 0 0.1886 0.021 -0.1886zm-1.9233 0.1886l0 -0.1886 -0.021 0 0.021 0.1886zm6.2401 0.2798l0.0516 -0.46 -0.7572 0 0 0.46 0.7056 0zm-0.0057 2.4526l-0.4977 0 -0.1016 -0.4995 -0.1006 0 0 1.0187 0.7576 0 -0.0577 -0.5192zm-15.3981 -0.4911l-0.1016 0 0 0.9761 0.6434 -0.1016 0 1.7248 -3.0791 0 0 -1.7382 0.5334 0.1016 0 -3.345 -0.5334 0.1016 0 -1.7382 4.8402 0 0 2.5034 -0.9398 0 0 2.0066 -1.2615 0 -0.1016 -0.4911zm0.6039 -1.9615l0.0521 -0.4684 -0.7576 0 0 0.4684 0.7055 0zm6.7707 2.9412l0.6095 -0.1239 0 1.7435 -2.9776 0 0 -1.6087 -0.1043 0 0 1.6087 -2.9691 0 0 -1.745 0.6018 0.1245 1.5654 -4.9977 1.7169 0 1.5574 4.9986zm-2.4186 -1.8483l-0.0559 0.2618 0.1137 0 -0.0578 -0.2618zm15.4395 -3.097l-0.0102 -0.0533 1.7806 0 0 2.9521 -1.4367 0 0 -0.35c0,-0.306 -0.065,-0.6153 -0.3059,-0.8228 -0.164,-0.1413 -0.3806,-0.2835 -0.6056,-0.2835 -0.2517,0 -0.4207,0.1854 -0.5453,0.3855 -0.2419,0.3882 -0.29,0.9695 -0.29,1.4151 0,0.459 0.0533,1.0292 0.2995,1.4296 0.1457,0.2371 0.3323,0.4048 0.6205,0.4048 0.453,0 0.6879,-0.531 0.8122,-0.8905l0.1155 -0.3337 1.5219 0.5415 -0.0894 0.3154c-0.346,1.2204 -1.14,1.9563 -2.4364,1.9563 -0.7824,0 -1.4607,-0.2734 -1.987,-0.8563 -0.6147,-0.6809 -0.7591,-1.6926 -0.7591,-2.5756 0,-0.8658 0.1386,-1.8637 0.7362,-2.5355 0.498,-0.5598 1.1337,-0.8456 1.8829,-0.8456 0.2431,0 0.4762,0.0521 0.6963,0.1465z"/>
    </g>
    <path id="_466626912" class="fil5" d="M19.6443 45.8467l0.6265 0 0 -1.7526 -0.9144 0 0.1016 0.4995 -0.6519 0 0 -1.6679 1.4986 0 -0.1016 0.9144 1.0075 0 0 -1.8034 -4.1402 0 0 0.9652 0.5334 -0.1016 0 4.191 -0.5334 -0.1016 0 0.9652 2.3791 0 0 -0.9652 -0.6434 0.1016 0 -1.7357 0.7366 0 0.1016 0.4911zm4.5635 -2.6586l0.4995 2.2607 -0.9821 0 0.4826 -2.2607zm0.6096 -1.1514l-1.2023 0 -1.5832 5.0546 -0.4911 -0.1016 0 0.9652 2.2691 0 0 -0.9652 -0.5758 0.1016 0.2202 -0.7451 1.524 0 0.2201 0.7451 -0.5842 -0.1016 0 0.9652 2.2776 0 0 -0.9652 -0.4996 0.1016 -1.5748 -5.0546zm2.2861 0l0 1.8034 1.0075 0 -0.1016 -0.9144 0.762 0 0 4.1656 -0.7027 -0.1016 0 0.9652 2.6162 0 0 -0.9652 -0.7112 0.1016 0 -4.1656 0.762 0 -0.1016 0.9144 1.0075 0 0 -1.8034 -4.5381 0zm7.8994 4.1148l0.1016 0.9144 -1.4986 0 0 -1.7187 0.7366 0 0.1016 0.4995 0.6181 0 0 -1.7526 -0.906 0 0.1016 0.508 -0.6519 0 0 -1.668 1.4986 0 -0.1016 0.906 1.0076 0 0 -1.8034 -4.1403 0 0 0.9652 0.5334 -0.1016 0 4.191 -0.5334 -0.1016 0 0.9652 4.1403 0 0 -1.8034 -1.0076 0zm5.0631 -4.1148l0.1016 0.5334c-0.1129,-0.1694 -0.2836,-0.3161 -0.5122,-0.4403 -0.2286,-0.1242 -0.4615,-0.1863 -0.6985,-0.1863 -0.6491,0 -1.1896,0.2428 -1.6214,0.7282 -0.4318,0.4854 -0.6477,1.2531 -0.6477,2.3029 0,1.0668 0.223,1.8472 0.6689,2.3411 0.4459,0.4939 1.0216,0.7408 1.7272,0.7408 1.0781,0 1.778,-0.5673 2.0997,-1.7018l-0.8805 -0.3133c-0.2597,0.7507 -0.6407,1.1261 -1.143,1.1261 -0.3782,0 -0.6844,-0.1905 -0.9187,-0.5715 -0.2342,-0.381 -0.3513,-0.9186 -0.3513,-1.6129 0,-0.6999 0.1143,-1.2333 0.3429,-1.6002 0.2286,-0.3669 0.5094,-0.5504 0.8424,-0.5504 0.2709,0 0.5489,0.1228 0.834,0.3683 0.285,0.2456 0.4275,0.6082 0.4275,1.088l0.7367 0 0 -2.2521 -1.0076 0z"/>
    <path id="_466627368" class="fil6" style="mask:url(#id4)" d="M19.6443 45.8467l0.6265 0 0 -1.7526 -0.9144 0 0.1016 0.4995 -0.6519 0 0 -1.6679 1.4986 0 -0.1016 0.9144 1.0075 0 0 -1.8034 -4.1402 0 0 0.9652 0.5334 -0.1016 0 4.191 -0.5334 -0.1016 0 0.9652 2.3791 0 0 -0.9652 -0.6434 0.1016 0 -1.7357 0.7366 0 0.1016 0.4911zm4.5635 -2.6586l0.4995 2.2607 -0.9821 0 0.4826 -2.2607zm0.6096 -1.1514l-1.2023 0 -1.5832 5.0546 -0.4911 -0.1016 0 0.9652 2.2691 0 0 -0.9652 -0.5758 0.1016 0.2202 -0.7451 1.524 0 0.2201 0.7451 -0.5842 -0.1016 0 0.9652 2.2776 0 0 -0.9652 -0.4996 0.1016 -1.5748 -5.0546zm2.2861 0l0 1.8034 1.0075 0 -0.1016 -0.9144 0.762 0 0 4.1656 -0.7027 -0.1016 0 0.9652 2.6162 0 0 -0.9652 -0.7112 0.1016 0 -4.1656 0.762 0 -0.1016 0.9144 1.0075 0 0 -1.8034 -4.5381 0zm7.8994 4.1148l0.1016 0.9144 -1.4986 0 0 -1.7187 0.7366 0 0.1016 0.4995 0.6181 0 0 -1.7526 -0.906 0 0.1016 0.508 -0.6519 0 0 -1.668 1.4986 0 -0.1016 0.906 1.0076 0 0 -1.8034 -4.1403 0 0 0.9652 0.5334 -0.1016 0 4.191 -0.5334 -0.1016 0 0.9652 4.1403 0 0 -1.8034 -1.0076 0zm5.0631 -4.1148l0.1016 0.5334c-0.1129,-0.1694 -0.2836,-0.3161 -0.5122,-0.4403 -0.2286,-0.1242 -0.4615,-0.1863 -0.6985,-0.1863 -0.6491,0 -1.1896,0.2428 -1.6214,0.7282 -0.4318,0.4854 -0.6477,1.2531 -0.6477,2.3029 0,1.0668 0.223,1.8472 0.6689,2.3411 0.4459,0.4939 1.0216,0.7408 1.7272,0.7408 1.0781,0 1.778,-0.5673 2.0997,-1.7018l-0.8805 -0.3133c-0.2597,0.7507 -0.6407,1.1261 -1.143,1.1261 -0.3782,0 -0.6844,-0.1905 -0.9187,-0.5715 -0.2342,-0.381 -0.3513,-0.9186 -0.3513,-1.6129 0,-0.6999 0.1143,-1.2333 0.3429,-1.6002 0.2286,-0.3669 0.5094,-0.5504 0.8424,-0.5504 0.2709,0 0.5489,0.1228 0.834,0.3683 0.285,0.2456 0.4275,0.6082 0.4275,1.088l0.7367 0 0 -2.2521 -1.0076 0z"/>
   </g>
  </g>
 </g>
</svg>
