<?xml version="1.0" encoding="UTF-8"?>
<!DOCTYPE svg PUBLIC "-//W3C//DTD SVG 1.1//EN" "http://www.w3.org/Graphics/SVG/1.1/DTD/svg11.dtd">
<!-- Creator: CorelDRAW -->
<svg xmlns="http://www.w3.org/2000/svg" xml:space="preserve" width="58mm" height="90mm" style="shape-rendering:geometricPrecision; text-rendering:geometricPrecision; image-rendering:optimizeQuality; fill-rule:evenodd; clip-rule:evenodd"
viewBox="0 0 58 90"
 xmlns:xlink="http://www.w3.org/1999/xlink">
 <defs>
  <style type="text/css">
   <![CDATA[
    .str0 {stroke:black;stroke-width:0.25}
    .str1 {stroke:black;stroke-width:0.5}
    .fil1 {fill:none}
    .fil2 {fill:black}
    .fil0 {fill:white}
    .fil3 {fill:black;fill-rule:nonzero}
   ]]>
  </style>
 </defs>
 <g id="Camada_x0020_1">
  <metadata id="CorelCorpID_0Corel-Layer"/>
  <rect id="Carta" class="fil0 str0" x="0.499998" y="0.500029" width="57" height="89" rx="2.6308" ry="2.6308"/>
  <rect id="Retângulo_x0020_Preto" class="fil1 str1" x="15.0661" y="20.1219" width="27.8678" height="49.7562" rx="1.2862" ry="1.2862"/>
  <path id="Espadas_x0020_Inferior" class="fil2" d="M50.4223 61.5908c0.1981,-0.8284 0.3875,-1.1381 0.8183,-1.7968l-2.2415 0c0.052,0.1941 0.3963,0.2271 0.7272,1.2653l0.1445 0.5315c-0.1974,-0.0676 -0.3532,-0.1672 -0.5729,-0.2276 -1.2807,-0.3522 -2.2616,0.3676 -2.3624,1.3935l0 0.3545c0.03,0.3151 0.1396,0.6489 0.3435,0.9825 0.3373,0.5519 0.6368,0.8662 1.119,1.2825 0.2842,0.2453 0.8989,0.9835 1.1119,1.2898l0.6508 0.9681c0.0901,-0.0788 0.5225,-0.7778 0.6665,-0.9596 0.3061,-0.3865 0.7729,-0.9755 1.1295,-1.3256 0.1362,-0.1336 0.2879,-0.2677 0.4185,-0.3998 0.2615,-0.2643 0.5348,-0.6089 0.7258,-0.9287 1.1568,-1.9365 -0.5587,-3.348 -2.3897,-2.5675 -0.0997,0.0425 -0.1952,0.1034 -0.289,0.1379z"/>
  <path id="Espadas_x0020_Central" class="fil2" d="M28.7836 47.1266c-0.1984,0.8296 -0.3881,1.1399 -0.8196,1.7995l2.245 0c-0.052,-0.1944 -0.3969,-0.2274 -0.7283,-1.2672l-0.1448 -0.5323c0.1978,0.0677 0.3538,0.1674 0.5739,0.2279 1.2827,0.3528 2.2651,-0.3681 2.366,-1.3956l0 -0.3551c-0.03,-0.3156 -0.1399,-0.6498 -0.344,-0.984 -0.3378,-0.5527 -0.6378,-0.8676 -1.1208,-1.2845 -0.2846,-0.2457 -0.9003,-0.985 -1.1135,-1.2918l-0.6519 -0.9696c-0.0902,0.079 -0.5233,0.7791 -0.6675,0.9612 -0.3066,0.387 -0.7741,0.9769 -1.1313,1.3275 -0.1364,0.1339 -0.2883,0.2682 -0.4191,0.4005 -0.2619,0.2647 -0.5356,0.6099 -0.7269,0.9301 -1.1586,1.9395 0.5596,3.3532 2.3933,2.5715 0.0999,-0.0426 0.1956,-0.1036 0.2895,-0.1381z"/>
  <path id="Espadas" class="fil2" d="M7.5678 28.594c-0.1984,0.8296 -0.3881,1.1399 -0.8196,1.7995l2.245 0c-0.052,-0.1944 -0.3969,-0.2274 -0.7283,-1.2672l-0.1448 -0.5323c0.1978,0.0677 0.3538,0.1674 0.5739,0.2279 1.2827,0.3528 2.2651,-0.3681 2.366,-1.3956l0 -0.3551c-0.03,-0.3156 -0.1399,-0.6498 -0.344,-0.984 -0.3378,-0.5527 -0.6378,-0.8676 -1.1208,-1.2845 -0.2846,-0.2457 -0.9003,-0.985 -1.1135,-1.2918l-0.6519 -0.9696c-0.0902,0.079 -0.5233,0.7791 -0.6675,0.9612 -0.3066,0.387 -0.7741,0.9769 -1.1313,1.3275 -0.1364,0.1339 -0.2883,0.2682 -0.4191,0.4005 -0.2619,0.2647 -0.5356,0.6099 -0.7269,0.9301 -1.1586,1.9395 0.5596,3.3532 2.3933,2.5715 0.0999,-0.0426 0.1956,-0.1036 0.2895,-0.1381z"/>
  <polygon id="_10_x0020_Inferior" class="fil3" points="51.7712,75.8383 51.7712,83.1841 53.9689,82.6882 53.9689,81.9967 53.2705,81.9967 53.2705,75.8383 53.9783,75.8383 53.9783,75.0554 51.0635,75.0554 51.0635,75.8383 "/>
  <path id="_10_x0020_Inferior1" class="fil3" d="M48.3816 83.1449c0.2778,-0.0022 0.5324,-0.0739 0.7636,-0.2174 0.2313,-0.1414 0.4362,-0.3415 0.6162,-0.5981 0.18,-0.2566 0.3321,-0.5588 0.4562,-0.9024 0.1242,-0.3458 0.2189,-0.722 0.2825,-1.1286 0.0653,-0.4089 0.0978,-0.8329 0.0978,-1.2765 0,-0.4436 -0.0325,-0.8677 -0.0962,-1.2765 -0.0637,-0.4067 -0.1583,-0.7829 -0.2825,-1.1265 -0.1226,-0.3457 -0.2747,-0.6458 -0.4547,-0.9046 -0.1785,-0.2566 -0.3849,-0.4567 -0.6162,-0.598 -0.2313,-0.1435 -0.4873,-0.2153 -0.7667,-0.2175 -0.2778,0.0022 -0.5324,0.074 -0.7636,0.2175 -0.2312,0.1413 -0.4362,0.3414 -0.6162,0.598 -0.18,0.2588 -0.3321,0.5589 -0.4563,0.9046 -0.1241,0.3436 -0.2188,0.7198 -0.2824,1.1265 -0.0653,0.4088 -0.0978,0.8329 -0.0978,1.2765 0,0.4436 0.0325,0.8676 0.0978,1.2765 0.0636,0.4066 0.1583,0.7828 0.2824,1.1286 0.1242,0.3436 0.2763,0.6458 0.4563,0.9024 0.18,0.2566 0.385,0.4567 0.6162,0.5981 0.2312,0.1435 0.4858,0.2152 0.7636,0.2174zm0 -0.6654c-0.1242,0.0043 -0.225,-0.0479 -0.2995,-0.1522 -0.0746,-0.1066 -0.1319,-0.2871 -0.1692,-0.5437 -0.0372,-0.2566 -0.0621,-0.6111 -0.0729,-1.059 -0.0125,-0.4502 -0.0187,-1.0177 -0.0172,-1.7027 -0.0015,-0.685 0.0047,-1.2526 0.0172,-1.7027 0.0108,-0.448 0.0357,-0.8025 0.0729,-1.0591 0.0373,-0.2566 0.0946,-0.4371 0.1692,-0.5436 0.0745,-0.1044 0.1753,-0.1566 0.2995,-0.1522 0.1242,-0.0044 0.225,0.0478 0.2996,0.1522 0.0745,0.1065 0.1303,0.287 0.1691,0.5436 0.0373,0.2566 0.0621,0.6111 0.0729,1.0591 0.0125,0.4501 0.0187,1.0177 0.0171,1.7027 0.0016,0.685 -0.0046,1.2525 -0.0171,1.7027 -0.0108,0.4479 -0.0356,0.8024 -0.0729,1.059 -0.0388,0.2566 -0.0946,0.4371 -0.1691,0.5437 -0.0746,0.1043 -0.1754,0.1565 -0.2996,0.1522z"/>
  <polygon id="_10" class="fil3" points="6.2281,14.0719 6.2281,6.7261 4.0304,7.222 4.0304,7.9135 4.7288,7.9135 4.7288,14.0719 4.021,14.0719 4.021,14.8548 6.9358,14.8548 6.9358,14.0719 "/>
  <path id="_101" class="fil3" d="M9.6177 6.7653c-0.2778,0.0022 -0.5324,0.0739 -0.7636,0.2174 -0.2313,0.1414 -0.4362,0.3415 -0.6162,0.5981 -0.18,0.2566 -0.3321,0.5588 -0.4562,0.9024 -0.1242,0.3458 -0.2189,0.722 -0.2825,1.1286 -0.0653,0.4089 -0.0978,0.8329 -0.0978,1.2765 0,0.4436 0.0325,0.8677 0.0962,1.2765 0.0637,0.4067 0.1583,0.7829 0.2825,1.1265 0.1226,0.3457 0.2747,0.6458 0.4547,0.9046 0.1785,0.2566 0.3849,0.4567 0.6162,0.598 0.2313,0.1435 0.4873,0.2153 0.7667,0.2175 0.2778,-0.0022 0.5324,-0.074 0.7636,-0.2175 0.2312,-0.1413 0.4362,-0.3414 0.6162,-0.598 0.18,-0.2588 0.3321,-0.5589 0.4563,-0.9046 0.1241,-0.3436 0.2188,-0.7198 0.2824,-1.1265 0.0653,-0.4088 0.0978,-0.8329 0.0978,-1.2765 0,-0.4436 -0.0325,-0.8676 -0.0978,-1.2765 -0.0636,-0.4066 -0.1583,-0.7828 -0.2824,-1.1286 -0.1242,-0.3436 -0.2763,-0.6458 -0.4563,-0.9024 -0.18,-0.2566 -0.385,-0.4567 -0.6162,-0.5981 -0.2312,-0.1435 -0.4858,-0.2152 -0.7636,-0.2174zm0 0.6654c0.1242,-0.0043 0.225,0.0479 0.2995,0.1522 0.0746,0.1066 0.1319,0.2871 0.1692,0.5437 0.0372,0.2566 0.0621,0.6111 0.0729,1.059 0.0125,0.4502 0.0187,1.0177 0.0172,1.7027 0.0015,0.685 -0.0047,1.2526 -0.0172,1.7027 -0.0108,0.448 -0.0357,0.8025 -0.0729,1.0591 -0.0373,0.2566 -0.0946,0.4371 -0.1692,0.5436 -0.0745,0.1044 -0.1753,0.1566 -0.2995,0.1522 -0.1242,0.0044 -0.225,-0.0478 -0.2996,-0.1522 -0.0745,-0.1065 -0.1303,-0.287 -0.1691,-0.5436 -0.0373,-0.2566 -0.0621,-0.6111 -0.0729,-1.0591 -0.0125,-0.4501 -0.0187,-1.0177 -0.0171,-1.7027 -0.0016,-0.685 0.0046,-1.2525 0.0171,-1.7027 0.0108,-0.4479 0.0356,-0.8024 0.0729,-1.059 0.0388,-0.2566 0.0946,-0.4371 0.1691,-0.5437 0.0746,-0.1043 0.1754,-0.1565 0.2996,-0.1522z"/>
 </g>
</svg>
