<?xml version="1.0" encoding="UTF-8"?>
<!DOCTYPE svg PUBLIC "-//W3C//DTD SVG 1.1//EN" "http://www.w3.org/Graphics/SVG/1.1/DTD/svg11.dtd">
<!-- Creator: CorelDRAW -->
<svg xmlns="http://www.w3.org/2000/svg" xml:space="preserve" width="58mm" height="90mm" style="shape-rendering:geometricPrecision; text-rendering:geometricPrecision; image-rendering:optimizeQuality; fill-rule:evenodd; clip-rule:evenodd"
viewBox="0 0 58 90"
 xmlns:xlink="http://www.w3.org/1999/xlink">
 <defs>
  <style type="text/css">
   <![CDATA[
    .str0 {stroke:black;stroke-width:0.25}
    .str1 {stroke:black;stroke-width:0.5}
    .fil1 {fill:none}
    .fil4 {fill:none;fill-rule:nonzero}
    .fil2 {fill:black}
    .fil0 {fill:white}
    .fil3 {fill:black;fill-rule:nonzero}
   ]]>
  </style>
   <mask id="id0">
  <radialGradient id="id1" gradientUnits="userSpaceOnUse" cx="29" cy="37.9472" r="12.1836" fx="29" fy="37.9472">
   <stop offset="0" style="stop-opacity:0.419608; stop-color:white"/>
   <stop offset="1" style="stop-opacity:1; stop-color:white"/>
  </radialGradient>
    <rect style="fill:url(#id1)" x="16.8164" y="40.9021" width="24.6974" height="9.8129"/>
   </mask>
 </defs>
 <g id="Camada_x0020_1">
  <metadata id="CorelCorpID_0Corel-Layer"/>
  <rect id="Carta" class="fil0 str0" x="0.499998" y="0.500029" width="57" height="89" rx="2.6308" ry="2.6308"/>
  <rect id="Retângulo_x0020_Preto" class="fil1 str1" x="15.0661" y="20.1219" width="27.8678" height="49.7562" rx="1.2862" ry="1.2862"/>
  <path id="Espadas_x0020_Inferior" class="fil2" d="M50.4223 61.5908c0.1981,-0.8284 0.3875,-1.1381 0.8183,-1.7968l-2.2415 0c0.052,0.1941 0.3963,0.2271 0.7272,1.2653l0.1445 0.5315c-0.1974,-0.0676 -0.3532,-0.1672 -0.5729,-0.2276 -1.2807,-0.3522 -2.2616,0.3676 -2.3624,1.3935l0 0.3545c0.03,0.3151 0.1396,0.6489 0.3435,0.9825 0.3373,0.5519 0.6368,0.8662 1.119,1.2825 0.2842,0.2453 0.8989,0.9835 1.1119,1.2898l0.6508 0.9681c0.0901,-0.0788 0.5225,-0.7778 0.6665,-0.9596 0.3061,-0.3865 0.7729,-0.9755 1.1295,-1.3256 0.1362,-0.1336 0.2879,-0.2677 0.4185,-0.3998 0.2615,-0.2643 0.5348,-0.6089 0.7258,-0.9287 1.1568,-1.9365 -0.5587,-3.348 -2.3897,-2.5675 -0.0997,0.0425 -0.1952,0.1034 -0.289,0.1379z"/>
  <path id="Espadas_x0020_Central" class="fil2" d="M28.7836 47.1266c-0.1984,0.8296 -0.3881,1.1399 -0.8196,1.7995l2.245 0c-0.052,-0.1944 -0.3969,-0.2274 -0.7283,-1.2672l-0.1448 -0.5323c0.1978,0.0677 0.3538,0.1674 0.5739,0.2279 1.2827,0.3528 2.2651,-0.3681 2.366,-1.3956l0 -0.3551c-0.03,-0.3156 -0.1399,-0.6498 -0.344,-0.984 -0.3378,-0.5527 -0.6378,-0.8676 -1.1208,-1.2845 -0.2846,-0.2457 -0.9003,-0.985 -1.1135,-1.2918l-0.6519 -0.9696c-0.0902,0.079 -0.5233,0.7791 -0.6675,0.9612 -0.3066,0.387 -0.7741,0.9769 -1.1313,1.3275 -0.1364,0.1339 -0.2883,0.2682 -0.4191,0.4005 -0.2619,0.2647 -0.5356,0.6099 -0.7269,0.9301 -1.1586,1.9395 0.5596,3.3532 2.3933,2.5715 0.0999,-0.0426 0.1956,-0.1036 0.2895,-0.1381z"/>
  <path id="Espadas" class="fil2" d="M7.5678 28.594c-0.1984,0.8296 -0.3881,1.1399 -0.8196,1.7995l2.245 0c-0.052,-0.1944 -0.3969,-0.2274 -0.7283,-1.2672l-0.1448 -0.5323c0.1978,0.0677 0.3538,0.1674 0.5739,0.2279 1.2827,0.3528 2.2651,-0.3681 2.366,-1.3956l0 -0.3551c-0.03,-0.3156 -0.1399,-0.6498 -0.344,-0.984 -0.3378,-0.5527 -0.6378,-0.8676 -1.1208,-1.2845 -0.2846,-0.2457 -0.9003,-0.985 -1.1135,-1.2918l-0.6519 -0.9696c-0.0902,0.079 -0.5233,0.7791 -0.6675,0.9612 -0.3066,0.387 -0.7741,0.9769 -1.1313,1.3275 -0.1364,0.1339 -0.2883,0.2682 -0.4191,0.4005 -0.2619,0.2647 -0.5356,0.6099 -0.7269,0.9301 -1.1586,1.9395 0.5596,3.3532 2.3933,2.5715 0.0999,-0.0426 0.1956,-0.1036 0.2895,-0.1381z"/>
  <path id="_3_x0020_Inferior" class="fil3" d="M49.9673 83.1188c0.2544,0 0.5132,-0.0152 0.7719,-0.0478 0.2567,-0.0326 0.5046,-0.087 0.7394,-0.1609 0.2349,-0.0762 0.4436,-0.1762 0.6285,-0.3023 0.1848,-0.124 0.3305,-0.2805 0.4371,-0.4654 0.1065,-0.1826 0.1609,-0.4023 0.1631,-0.6545 -0.0022,-0.1805 -0.0479,-0.3436 -0.1349,-0.4915 -0.0869,-0.1479 -0.2044,-0.2653 -0.3522,-0.3523 -0.1479,-0.087 -0.311,-0.1326 -0.4915,-0.1348 -0.1805,0.0022 -0.3392,0.0435 -0.4784,0.1283 -0.1392,0.0826 -0.2479,0.1957 -0.3262,0.3392 -0.0805,0.1436 -0.1196,0.3045 -0.1218,0.485 0.0022,0.15 0.0283,0.2914 0.0783,0.424 0.05,0.1327 0.1153,0.261 0.1957,0.3849 -0.0544,0.0479 -0.1109,0.0892 -0.1674,0.124 -0.0566,0.0348 -0.1196,0.063 -0.1914,0.0826 -0.0696,0.0174 -0.1566,0.0283 -0.2544,0.0283 -0.1479,-0.0022 -0.2805,-0.0435 -0.4023,-0.1261 -0.1218,-0.0805 -0.2262,-0.1871 -0.3132,-0.3197 -0.0891,-0.1305 -0.1565,-0.274 -0.2044,-0.4284 -0.0478,-0.1566 -0.0717,-0.3066 -0.0717,-0.4567 0,-0.3762 0.0739,-0.6937 0.2218,-0.959 0.15,-0.2631 0.3805,-0.4653 0.6915,-0.6045 0.3088,-0.1392 0.7046,-0.2088 1.1873,-0.2109l0 -0.6263c-0.3175,0.0021 -0.6067,-0.0153 -0.8676,-0.0566 -0.261,-0.0413 -0.4872,-0.1239 -0.6763,-0.2457 -0.1914,-0.1218 -0.3371,-0.3023 -0.4393,-0.5393 -0.1044,-0.2392 -0.1566,-0.5545 -0.1566,-0.946 0,-0.1783 0.0239,-0.3544 0.074,-0.5284 0.05,-0.1718 0.1217,-0.3305 0.2152,-0.474 0.0957,-0.1414 0.211,-0.2545 0.3501,-0.3415 0.137,-0.0848 0.2936,-0.1283 0.4698,-0.1304 0.1522,0.0021 0.2935,0.0369 0.4218,0.1022 0.1283,0.0674 0.2284,0.15 0.2958,0.2501 -0.087,0.0956 -0.1631,0.1978 -0.2262,0.3087 -0.063,0.1131 -0.0978,0.2479 -0.1,0.4089 0.0022,0.1892 0.0478,0.361 0.1348,0.5132 0.0892,0.1522 0.2088,0.274 0.361,0.3653 0.15,0.0913 0.3197,0.137 0.5089,0.1392 0.1804,-0.0022 0.3457,-0.0435 0.4979,-0.1283 0.1523,-0.0827 0.274,-0.1957 0.3654,-0.3393 0.0913,-0.1435 0.1391,-0.3044 0.1413,-0.4849 -0.0022,-0.2435 -0.0522,-0.4588 -0.15,-0.648 -0.0979,-0.1892 -0.2305,-0.3523 -0.4002,-0.4915 -0.1696,-0.1392 -0.3653,-0.2522 -0.5827,-0.3436 -0.2175,-0.0891 -0.4502,-0.1565 -0.6916,-0.2 -0.2435,-0.0435 -0.4893,-0.0653 -0.7328,-0.0653 -0.3414,0 -0.672,0.0196 -0.9938,0.0631 -0.3218,0.0413 -0.6219,0.1087 -0.9003,0.2022 -0.2783,0.0914 -0.5241,0.2153 -0.7328,0.3654 -0.211,0.1522 -0.3762,0.337 -0.4937,0.5567 -0.1174,0.2196 -0.1783,0.4762 -0.1805,0.7698 0.0022,0.361 0.0762,0.6741 0.2219,0.9372 0.1457,0.2631 0.3479,0.4828 0.6088,0.6633 0.2632,0.1783 0.5698,0.3218 0.9199,0.4305 0.3501,0.1088 0.7328,0.1892 1.146,0.2393 -0.2544,0.0369 -0.511,0.0848 -0.7698,0.15 -0.2566,0.0631 -0.5023,0.1457 -0.7372,0.2479 -0.2327,0.1 -0.4414,0.224 -0.6241,0.3697 -0.1827,0.1479 -0.3284,0.3197 -0.4327,0.5219 -0.1066,0.2001 -0.161,0.4306 -0.1631,0.6937 0.0021,0.2609 0.0543,0.498 0.1565,0.7111 0.1022,0.2109 0.2436,0.3979 0.4219,0.561 0.1805,0.1609 0.3849,0.2958 0.6154,0.4067 0.2327,0.1087 0.4784,0.1913 0.7372,0.2479 0.2588,0.0543 0.5197,0.0826 0.7829,0.0826l0 0z"/>
  <path id="_3" class="fil3" d="M8.032 6.7914c-0.2544,0 -0.5132,0.0152 -0.7719,0.0478 -0.2567,0.0326 -0.5046,0.087 -0.7394,0.1609 -0.2349,0.0762 -0.4436,0.1762 -0.6285,0.3023 -0.1848,0.124 -0.3305,0.2805 -0.4371,0.4654 -0.1065,0.1826 -0.1609,0.4023 -0.1631,0.6545 0.0022,0.1805 0.0479,0.3436 0.1349,0.4915 0.0869,0.1479 0.2044,0.2653 0.3522,0.3523 0.1479,0.087 0.311,0.1326 0.4915,0.1348 0.1805,-0.0022 0.3392,-0.0435 0.4784,-0.1283 0.1392,-0.0826 0.2479,-0.1957 0.3262,-0.3392 0.0805,-0.1436 0.1196,-0.3045 0.1218,-0.485 -0.0022,-0.15 -0.0283,-0.2914 -0.0783,-0.424 -0.05,-0.1327 -0.1153,-0.261 -0.1957,-0.3849 0.0544,-0.0479 0.1109,-0.0892 0.1674,-0.124 0.0566,-0.0348 0.1196,-0.063 0.1914,-0.0826 0.0696,-0.0174 0.1566,-0.0283 0.2544,-0.0283 0.1479,0.0022 0.2805,0.0435 0.4023,0.1261 0.1218,0.0805 0.2262,0.1871 0.3132,0.3197 0.0891,0.1305 0.1565,0.274 0.2044,0.4284 0.0478,0.1566 0.0717,0.3066 0.0717,0.4567 0,0.3762 -0.0739,0.6937 -0.2218,0.959 -0.15,0.2631 -0.3805,0.4653 -0.6915,0.6045 -0.3088,0.1392 -0.7046,0.2088 -1.1873,0.2109l0 0.6263c0.3175,-0.0021 0.6067,0.0153 0.8676,0.0566 0.261,0.0413 0.4872,0.1239 0.6763,0.2457 0.1914,0.1218 0.3371,0.3023 0.4393,0.5393 0.1044,0.2392 0.1566,0.5545 0.1566,0.946 0,0.1783 -0.0239,0.3544 -0.074,0.5284 -0.05,0.1718 -0.1217,0.3305 -0.2152,0.474 -0.0957,0.1414 -0.211,0.2545 -0.3501,0.3415 -0.137,0.0848 -0.2936,0.1283 -0.4698,0.1304 -0.1522,-0.0021 -0.2935,-0.0369 -0.4218,-0.1022 -0.1283,-0.0674 -0.2284,-0.15 -0.2958,-0.2501 0.087,-0.0956 0.1631,-0.1978 0.2262,-0.3087 0.063,-0.1131 0.0978,-0.2479 0.1,-0.4089 -0.0022,-0.1892 -0.0478,-0.361 -0.1348,-0.5132 -0.0892,-0.1522 -0.2088,-0.274 -0.361,-0.3653 -0.15,-0.0913 -0.3197,-0.137 -0.5089,-0.1392 -0.1804,0.0022 -0.3457,0.0435 -0.4979,0.1283 -0.1523,0.0827 -0.274,0.1957 -0.3654,0.3393 -0.0913,0.1435 -0.1391,0.3044 -0.1413,0.4849 0.0022,0.2435 0.0522,0.4588 0.15,0.648 0.0979,0.1892 0.2305,0.3523 0.4002,0.4915 0.1696,0.1392 0.3653,0.2522 0.5827,0.3436 0.2175,0.0891 0.4502,0.1565 0.6916,0.2 0.2435,0.0435 0.4893,0.0653 0.7328,0.0653 0.3414,0 0.672,-0.0196 0.9938,-0.0631 0.3218,-0.0413 0.6219,-0.1087 0.9003,-0.2022 0.2783,-0.0914 0.5241,-0.2153 0.7328,-0.3654 0.211,-0.1522 0.3762,-0.337 0.4937,-0.5567 0.1174,-0.2196 0.1783,-0.4762 0.1805,-0.7698 -0.0022,-0.361 -0.0762,-0.6741 -0.2219,-0.9372 -0.1457,-0.2631 -0.3479,-0.4828 -0.6088,-0.6633 -0.2632,-0.1783 -0.5698,-0.3218 -0.9199,-0.4305 -0.3501,-0.1088 -0.7328,-0.1892 -1.146,-0.2393 0.2544,-0.0369 0.511,-0.0848 0.7698,-0.15 0.2566,-0.0631 0.5023,-0.1457 0.7372,-0.2479 0.2327,-0.1 0.4414,-0.224 0.6241,-0.3697 0.1827,-0.1479 0.3284,-0.3197 0.4327,-0.5219 0.1066,-0.2001 0.161,-0.4306 0.1631,-0.6937 -0.0021,-0.2609 -0.0543,-0.498 -0.1565,-0.7111 -0.1022,-0.2109 -0.2436,-0.3979 -0.4219,-0.561 -0.1805,-0.1609 -0.3849,-0.2958 -0.6154,-0.4067 -0.2327,-0.1087 -0.4784,-0.1913 -0.7372,-0.2479 -0.2588,-0.0543 -0.5197,-0.0826 -0.7829,-0.0826l0 0z"/>
  <path class="fil4" style="mask:url(#id0)" d="M16.8164 47.9549m2.8279 -2.1082l0.6265 0 0 -1.7526 -0.9144 0 0.1016 0.4995 -0.6519 0 0 -1.6679 1.4986 0 -0.1016 0.9144 1.0075 0 0 -1.8034 -4.1402 0 0 0.9652 0.5334 -0.1016 0 4.191 -0.5334 -0.1016 0 0.9652 2.3791 0 0 -0.9652 -0.6434 0.1016 0 -1.7357 0.7366 0 0.1016 0.4911zm1.7695 2.1082m2.794 -4.7668l0.4995 2.2607 -0.9821 0 0.4826 -2.2607zm0.6096 -1.1514l-1.2023 0 -1.5832 5.0546 -0.4911 -0.1016 0 0.9652 2.2691 0 0 -0.9652 -0.5758 0.1016 0.2202 -0.7451 1.524 0 0.2201 0.7451 -0.5842 -0.1016 0 0.9652 2.2776 0 0 -0.9652 -0.4996 0.1016 -1.5748 -5.0546zm2.2014 5.9182m0.0847 -5.9182l0 1.8034 1.0075 0 -0.1016 -0.9144 0.762 0 0 4.1656 -0.7027 -0.1016 0 0.9652 2.6162 0 0 -0.9652 -0.7112 0.1016 0 -4.1656 0.762 0 -0.1016 0.9144 1.0075 0 0 -1.8034 -4.5381 0zm4.6228 5.9182m3.2766 -1.8034l0.1016 0.9144 -1.4986 0 0 -1.7187 0.7366 0 0.1016 0.4995 0.6181 0 0 -1.7526 -0.906 0 0.1016 0.508 -0.6519 0 0 -1.668 1.4986 0 -0.1016 0.906 1.0076 0 0 -1.8034 -4.1403 0 0 0.9652 0.5334 -0.1016 0 4.191 -0.5334 -0.1016 0 0.9652 4.1403 0 0 -1.8034 -1.0076 0zm1.3547 1.8034m3.7084 -5.9182l0.1016 0.5334c-0.1129,-0.1694 -0.2836,-0.3161 -0.5122,-0.4403 -0.2286,-0.1242 -0.4615,-0.1863 -0.6985,-0.1863 -0.6491,0 -1.1896,0.2428 -1.6214,0.7282 -0.4318,0.4854 -0.6477,1.2531 -0.6477,2.3029 0,1.0668 0.223,1.8472 0.6689,2.3411 0.4459,0.4939 1.0216,0.7408 1.7272,0.7408 1.0781,0 1.778,-0.5673 2.0997,-1.7018l-0.8805 -0.3133c-0.2597,0.7507 -0.6407,1.1261 -1.143,1.1261 -0.3782,0 -0.6844,-0.1905 -0.9187,-0.5715 -0.2342,-0.381 -0.3513,-0.9186 -0.3513,-1.6129 0,-0.6999 0.1143,-1.2333 0.3429,-1.6002 0.2286,-0.3669 0.5094,-0.5504 0.8424,-0.5504 0.2709,0 0.5489,0.1228 0.834,0.3683 0.285,0.2456 0.4275,0.6082 0.4275,1.088l0.7367 0 0 -2.2521 -1.0076 0z"/>
 </g>
</svg>
