<?xml version="1.0" encoding="UTF-8"?>
<!DOCTYPE svg PUBLIC "-//W3C//DTD SVG 1.1//EN" "http://www.w3.org/Graphics/SVG/1.1/DTD/svg11.dtd">
<!-- Creator: CorelDRAW -->
<svg xmlns="http://www.w3.org/2000/svg" xml:space="preserve" width="58mm" height="90mm" style="shape-rendering:geometricPrecision; text-rendering:geometricPrecision; image-rendering:optimizeQuality; fill-rule:evenodd; clip-rule:evenodd"
viewBox="0 0 58 90"
 xmlns:xlink="http://www.w3.org/1999/xlink">
 <defs>
  <style type="text/css">
   <![CDATA[
    .str0 {stroke:black;stroke-width:0.25}
    .str1 {stroke:black;stroke-width:0.5}
    .fil1 {fill:none}
    .fil2 {fill:black}
    .fil0 {fill:white}
    .fil3 {fill:black;fill-rule:nonzero}
   ]]>
  </style>
 </defs>
 <g id="Camada_x0020_1">
  <metadata id="CorelCorpID_0Corel-Layer"/>
  <rect id="Carta" class="fil0 str0" x="0.499998" y="0.500029" width="57" height="89" rx="2.6308" ry="2.6308"/>
  <rect id="Retângulo_x0020_Preto" class="fil1 str1" x="15.0661" y="20.1219" width="27.8678" height="49.7562" rx="1.2862" ry="1.2862"/>
  <path id="Espadas_x0020_Inferior" class="fil2" d="M50.4223 61.5908c0.1981,-0.8284 0.3875,-1.1381 0.8183,-1.7968l-2.2415 0c0.052,0.1941 0.3963,0.2271 0.7272,1.2653l0.1445 0.5315c-0.1974,-0.0676 -0.3532,-0.1672 -0.5729,-0.2276 -1.2807,-0.3522 -2.2616,0.3676 -2.3624,1.3935l0 0.3545c0.03,0.3151 0.1396,0.6489 0.3435,0.9825 0.3373,0.5519 0.6368,0.8662 1.119,1.2825 0.2842,0.2453 0.8989,0.9835 1.1119,1.2898l0.6508 0.9681c0.0901,-0.0788 0.5225,-0.7778 0.6665,-0.9596 0.3061,-0.3865 0.7729,-0.9755 1.1295,-1.3256 0.1362,-0.1336 0.2879,-0.2677 0.4185,-0.3998 0.2615,-0.2643 0.5348,-0.6089 0.7258,-0.9287 1.1568,-1.9365 -0.5587,-3.348 -2.3897,-2.5675 -0.0997,0.0425 -0.1952,0.1034 -0.289,0.1379z"/>
  <path id="Espadas_x0020_Central" class="fil2" d="M28.7836 47.1266c-0.1984,0.8296 -0.3881,1.1399 -0.8196,1.7995l2.245 0c-0.052,-0.1944 -0.3969,-0.2274 -0.7283,-1.2672l-0.1448 -0.5323c0.1978,0.0677 0.3538,0.1674 0.5739,0.2279 1.2827,0.3528 2.2651,-0.3681 2.366,-1.3956l0 -0.3551c-0.03,-0.3156 -0.1399,-0.6498 -0.344,-0.984 -0.3378,-0.5527 -0.6378,-0.8676 -1.1208,-1.2845 -0.2846,-0.2457 -0.9003,-0.985 -1.1135,-1.2918l-0.6519 -0.9696c-0.0902,0.079 -0.5233,0.7791 -0.6675,0.9612 -0.3066,0.387 -0.7741,0.9769 -1.1313,1.3275 -0.1364,0.1339 -0.2883,0.2682 -0.4191,0.4005 -0.2619,0.2647 -0.5356,0.6099 -0.7269,0.9301 -1.1586,1.9395 0.5596,3.3532 2.3933,2.5715 0.0999,-0.0426 0.1956,-0.1036 0.2895,-0.1381z"/>
  <path id="Espadas" class="fil2" d="M7.5678 28.594c-0.1984,0.8296 -0.3881,1.1399 -0.8196,1.7995l2.245 0c-0.052,-0.1944 -0.3969,-0.2274 -0.7283,-1.2672l-0.1448 -0.5323c0.1978,0.0677 0.3538,0.1674 0.5739,0.2279 1.2827,0.3528 2.2651,-0.3681 2.366,-1.3956l0 -0.3551c-0.03,-0.3156 -0.1399,-0.6498 -0.344,-0.984 -0.3378,-0.5527 -0.6378,-0.8676 -1.1208,-1.2845 -0.2846,-0.2457 -0.9003,-0.985 -1.1135,-1.2918l-0.6519 -0.9696c-0.0902,0.079 -0.5233,0.7791 -0.6675,0.9612 -0.3066,0.387 -0.7741,0.9769 -1.1313,1.3275 -0.1364,0.1339 -0.2883,0.2682 -0.4191,0.4005 -0.2619,0.2647 -0.5356,0.6099 -0.7269,0.9301 -1.1586,1.9395 0.5596,3.3532 2.3933,2.5715 0.0999,-0.0426 0.1956,-0.1036 0.2895,-0.1381z"/>
  <path id="_9_x0020_Inferior" class="fil3" d="M49.2953 80.8094c0,-0.4328 0.0218,-0.772 0.0696,-1.0199 0.0478,-0.2479 0.124,-0.424 0.2305,-0.5262 0.1044,-0.1044 0.2436,-0.1523 0.4175,-0.1501 0.174,-0.0022 0.3132,0.0457 0.4176,0.1501 0.1065,0.1022 0.1826,0.2783 0.2305,0.5262 0.0478,0.2479 0.0696,0.5871 0.0696,1.0199 0,0.4327 -0.0218,0.772 -0.0696,1.0199 -0.0479,0.2479 -0.124,0.424 -0.2305,0.5262 -0.1044,0.1044 -0.2436,0.1523 -0.4176,0.1501 -0.1304,-0.0022 -0.2413,-0.0457 -0.3327,-0.1348 -0.0913,-0.0892 -0.1652,-0.211 -0.2218,-0.3654 -0.0565,-0.1565 -0.0978,-0.337 -0.1239,-0.5393 -0.0261,-0.2044 -0.0392,-0.424 -0.0392,-0.6567zm2.4008 -3.275c0.1979,-0.0021 0.3697,-0.05 0.5175,-0.1435 0.1479,-0.0935 0.2653,-0.2196 0.348,-0.3784 0.0826,-0.1587 0.1239,-0.337 0.1261,-0.5349 -0.0022,-0.2414 -0.0544,-0.461 -0.1588,-0.6546 -0.1022,-0.1935 -0.2413,-0.3588 -0.4197,-0.4958 -0.1761,-0.1391 -0.3762,-0.2435 -0.6001,-0.3175 -0.224,-0.0739 -0.4567,-0.1109 -0.7003,-0.1109 -0.5632,0 -1.0807,0.0935 -1.5505,0.2762 -0.4697,0.1827 -0.8763,0.4545 -1.2221,0.8155 -0.3457,0.3588 -0.6132,0.8046 -0.8024,1.3352 -0.1892,0.5306 -0.2849,1.1438 -0.2871,1.8397 0,0.4023 0.037,0.7959 0.1153,1.1808 0.0761,0.3849 0.1957,0.7459 0.3588,1.083 0.1609,0.337 0.3697,0.6328 0.6241,0.8894 0.2544,0.2566 0.5589,0.4588 0.9134,0.6045 0.3544,0.1457 0.7632,0.2196 1.2243,0.2218 0.3783,-0.0022 0.7393,-0.0631 1.0851,-0.1827 0.3457,-0.1196 0.6545,-0.2914 0.9264,-0.5132 0.2718,-0.2218 0.4849,-0.4871 0.6436,-0.7959 0.1566,-0.3066 0.2371,-0.6502 0.2414,-1.0264 -0.0022,-0.3283 -0.0609,-0.6371 -0.1761,-0.9285 -0.1153,-0.2893 -0.2762,-0.5459 -0.4828,-0.7677 -0.2066,-0.2218 -0.4501,-0.3979 -0.7285,-0.524 -0.2783,-0.1262 -0.5806,-0.1914 -0.909,-0.1936 -0.1935,0.0022 -0.3718,0.0261 -0.5349,0.074 -0.1631,0.0478 -0.3175,0.113 -0.4654,0.1978 -0.1478,0.0827 -0.2979,0.1805 -0.4479,0.2893 0,-0.0022 -0.0022,-0.024 -0.0044,-0.0674 -0.0022,-0.0457 -0.0065,-0.1001 -0.0087,-0.1675 -0.0043,-0.0674 -0.0065,-0.1348 -0.0087,-0.2044 -0.0022,-0.0718 -0.0043,-0.1327 -0.0043,-0.187 -0.0022,-0.5415 0.0391,-1.009 0.1196,-1.4026 0.0804,-0.3936 0.2109,-0.6959 0.387,-0.909 0.1762,-0.2131 0.4067,-0.3219 0.6937,-0.324 0.0914,0.0021 0.1718,0.013 0.2392,0.0369 0.0696,0.024 0.1218,0.0457 0.161,0.0696 0.0369,0.0218 0.0565,0.0348 0.0565,0.037 -0.087,0.1152 -0.1544,0.2414 -0.2066,0.3784 -0.0522,0.1348 -0.0783,0.287 -0.0804,0.4566 0.0021,0.1936 0.0478,0.3697 0.137,0.5263 0.0891,0.1566 0.2087,0.2805 0.3609,0.374 0.1544,0.0935 0.3262,0.1414 0.5198,0.1435z"/>
  <path id="_9" class="fil3" d="M8.704 9.1008c0,0.4328 -0.0218,0.772 -0.0696,1.0199 -0.0478,0.2479 -0.124,0.424 -0.2305,0.5262 -0.1044,0.1044 -0.2436,0.1523 -0.4175,0.1501 -0.174,0.0022 -0.3132,-0.0457 -0.4176,-0.1501 -0.1065,-0.1022 -0.1826,-0.2783 -0.2305,-0.5262 -0.0478,-0.2479 -0.0696,-0.5871 -0.0696,-1.0199 0,-0.4327 0.0218,-0.772 0.0696,-1.0199 0.0479,-0.2479 0.124,-0.424 0.2305,-0.5262 0.1044,-0.1044 0.2436,-0.1523 0.4176,-0.1501 0.1304,0.0022 0.2413,0.0457 0.3327,0.1348 0.0913,0.0892 0.1652,0.211 0.2218,0.3654 0.0565,0.1565 0.0978,0.337 0.1239,0.5393 0.0261,0.2044 0.0392,0.424 0.0392,0.6567zm-2.4008 3.275c-0.1979,0.0021 -0.3697,0.05 -0.5175,0.1435 -0.1479,0.0935 -0.2653,0.2196 -0.348,0.3784 -0.0826,0.1587 -0.1239,0.337 -0.1261,0.5349 0.0022,0.2414 0.0544,0.461 0.1588,0.6546 0.1022,0.1935 0.2413,0.3588 0.4197,0.4958 0.1761,0.1391 0.3762,0.2435 0.6001,0.3175 0.224,0.0739 0.4567,0.1109 0.7003,0.1109 0.5632,0 1.0807,-0.0935 1.5505,-0.2762 0.4697,-0.1827 0.8763,-0.4545 1.2221,-0.8155 0.3457,-0.3588 0.6132,-0.8046 0.8024,-1.3352 0.1892,-0.5306 0.2849,-1.1438 0.2871,-1.8397 0,-0.4023 -0.037,-0.7959 -0.1153,-1.1808 -0.0761,-0.3849 -0.1957,-0.7459 -0.3588,-1.083 -0.1609,-0.337 -0.3697,-0.6328 -0.6241,-0.8894 -0.2544,-0.2566 -0.5589,-0.4588 -0.9134,-0.6045 -0.3544,-0.1457 -0.7632,-0.2196 -1.2243,-0.2218 -0.3783,0.0022 -0.7393,0.0631 -1.0851,0.1827 -0.3457,0.1196 -0.6545,0.2914 -0.9264,0.5132 -0.2718,0.2218 -0.4849,0.4871 -0.6436,0.7959 -0.1566,0.3066 -0.2371,0.6502 -0.2414,1.0264 0.0022,0.3283 0.0609,0.6371 0.1761,0.9285 0.1153,0.2893 0.2762,0.5459 0.4828,0.7677 0.2066,0.2218 0.4501,0.3979 0.7285,0.524 0.2783,0.1262 0.5806,0.1914 0.909,0.1936 0.1935,-0.0022 0.3718,-0.0261 0.5349,-0.074 0.1631,-0.0478 0.3175,-0.113 0.4654,-0.1978 0.1478,-0.0827 0.2979,-0.1805 0.4479,-0.2893 0,0.0022 0.0022,0.024 0.0044,0.0674 0.0022,0.0457 0.0065,0.1001 0.0087,0.1675 0.0043,0.0674 0.0065,0.1348 0.0087,0.2044 0.0022,0.0718 0.0043,0.1327 0.0043,0.187 0.0022,0.5415 -0.0391,1.009 -0.1196,1.4026 -0.0804,0.3936 -0.2109,0.6959 -0.387,0.909 -0.1762,0.2131 -0.4067,0.3219 -0.6937,0.324 -0.0914,-0.0021 -0.1718,-0.013 -0.2392,-0.0369 -0.0696,-0.024 -0.1218,-0.0457 -0.161,-0.0696 -0.0369,-0.0218 -0.0565,-0.0348 -0.0565,-0.037 0.087,-0.1152 0.1544,-0.2414 0.2066,-0.3784 0.0522,-0.1348 0.0783,-0.287 0.0804,-0.4566 -0.0021,-0.1936 -0.0478,-0.3697 -0.137,-0.5263 -0.0891,-0.1566 -0.2087,-0.2805 -0.3609,-0.374 -0.1544,-0.0935 -0.3262,-0.1414 -0.5198,-0.1435z"/>
 </g>
</svg>
