<?xml version="1.0" encoding="UTF-8"?>
<!DOCTYPE svg PUBLIC "-//W3C//DTD SVG 1.1//EN" "http://www.w3.org/Graphics/SVG/1.1/DTD/svg11.dtd">
<!-- Creator: CorelDRAW -->
<svg xmlns="http://www.w3.org/2000/svg" xml:space="preserve" width="58mm" height="90mm" style="shape-rendering:geometricPrecision; text-rendering:geometricPrecision; image-rendering:optimizeQuality; fill-rule:evenodd; clip-rule:evenodd"
viewBox="0 0 58 90"
 xmlns:xlink="http://www.w3.org/1999/xlink">
 <defs>
  <style type="text/css">
   <![CDATA[
    .str0 {stroke:black;stroke-width:0.25}
    .str1 {stroke:#FE0000;stroke-width:0.5}
    .fil1 {fill:none}
    .fil2 {fill:#FE0000}
    .fil0 {fill:white}
    .fil3 {fill:#FE0000;fill-rule:nonzero}
   ]]>
  </style>
 </defs>
 <g id="Camada_x0020_1">
  <metadata id="CorelCorpID_0Corel-Layer"/>
  <rect id="Carta" class="fil0 str0" x="0.499998" y="0.500029" width="57" height="89" rx="2.6308" ry="2.6308"/>
  <rect id="Centralizador_x0020_Inferior" class="fil1" x="46.5246" y="75.1555" width="7.3537" height="8.2925"/>
  <rect id="Centralizador" class="fil1" x="4.1201" y="6.5593" width="7.3542" height="8.2955"/>
  <rect id="Retângulo_x0020_Vermelho" class="fil1 str1" x="15.0661" y="20.1219" width="27.8678" height="49.7562" rx="1.2862" ry="1.2862"/>
  <path id="Copas_x0020_Inferior" class="fil2" d="M52.2518 67.6122c0.978,-0.0755 1.5851,-0.7473 1.6189,-1.5957l0 -0.151c-0.0081,-0.2055 -0.0489,-0.4194 -0.1253,-0.6364 -0.2763,-0.7844 -1.1694,-1.7726 -1.7146,-2.4305 -0.6682,-0.8062 -1.2085,-1.5431 -1.6099,-2.519 -0.0544,-0.1323 -0.1751,-0.783 -0.3374,-0.2997 -0.2497,0.7435 -0.6256,1.3817 -1.1073,2.0084 -0.5887,0.766 -1.2996,1.5042 -1.8317,2.2956 -1.484,2.207 0.0544,3.5924 1.5767,3.3022 0.6591,-0.1256 1.1348,-0.5921 1.4179,-1.1775 0.1395,-0.2885 0.1038,0.1714 0.6045,0.6659 0.4116,0.4065 0.9361,0.5818 1.5082,0.5377z"/>
  <path id="Copas_x0020_Central" class="fil2" d="M26.9513 41.0959c-0.9795,0.0756 -1.5876,0.7484 -1.6214,1.5981l0 0.1513c0.0081,0.2058 0.049,0.4201 0.1255,0.6374 0.2768,0.7855 1.1712,1.7753 1.7172,2.4342 0.6693,0.8075 1.2104,1.5455 1.6124,2.5229 0.0545,0.1326 0.1754,0.7843 0.338,0.3001 0.2501,-0.7446 0.6266,-1.3838 1.109,-2.0114 0.5896,-0.7672 1.3015,-1.5066 1.8344,-2.2991 1.4864,-2.2104 -0.0544,-3.598 -1.579,-3.3074 -0.6602,0.1258 -1.1366,0.5931 -1.4201,1.1794 -0.1397,0.2889 -0.104,-0.1717 -0.6055,-0.667 -0.4122,-0.4071 -0.9375,-0.5827 -1.5105,-0.5385z"/>
  <path id="Copas" class="fil2" d="M5.7355 22.5633c-0.9795,0.0756 -1.5876,0.7484 -1.6214,1.5981l0 0.1513c0.0081,0.2058 0.049,0.4201 0.1255,0.6374 0.2768,0.7855 1.1712,1.7753 1.7172,2.4342 0.6693,0.8075 1.2104,1.5455 1.6124,2.5229 0.0545,0.1326 0.1754,0.7843 0.338,0.3001 0.2501,-0.7446 0.6266,-1.3838 1.109,-2.0114 0.5896,-0.7672 1.3015,-1.5066 1.8344,-2.2991 1.4864,-2.2104 -0.0544,-3.598 -1.579,-3.3074 -0.6602,0.1258 -1.1366,0.5931 -1.4201,1.1794 -0.1397,0.2889 -0.104,-0.1717 -0.6055,-0.667 -0.4122,-0.4071 -0.9375,-0.5827 -1.5105,-0.5385z"/>
  <path id="_2_x0020_Inferior" class="fil3" d="M52.3158 75.0554c-0.0195,0.1196 -0.063,0.2283 -0.137,0.3262 -0.0717,0.0978 -0.1652,0.1761 -0.2783,0.2348 -0.1131,0.0588 -0.2392,0.0892 -0.3806,0.0914 -0.1565,-0.0022 -0.3109,-0.0305 -0.461,-0.0848 -0.1522,-0.0522 -0.3066,-0.1196 -0.4588,-0.2001 -0.1544,-0.0805 -0.3132,-0.1587 -0.4763,-0.2392 -0.1609,-0.0805 -0.3305,-0.1457 -0.5088,-0.2001 -0.1762,-0.0543 -0.3632,-0.0826 -0.5611,-0.0848 -0.2696,0.0022 -0.511,0.0566 -0.7241,0.1653 -0.2131,0.1087 -0.4001,0.2566 -0.561,0.4436 -0.161,0.187 -0.2936,0.4023 -0.4023,0.6415 -0.1066,0.2414 -0.1871,0.4958 -0.2436,0.7633 -0.0565,0.2675 -0.087,0.535 -0.0913,0.8024l0.5349 0.0783c0.0435,-0.274 0.1261,-0.4827 0.2457,-0.6284 0.1197,-0.1436 0.2914,-0.2175 0.5111,-0.2175 0.1718,0.0022 0.3262,0.0174 0.4675,0.0457 0.1414,0.0282 0.2762,0.0609 0.4067,0.0978 0.1304,0.037 0.2653,0.0696 0.4066,0.0979 0.1414,0.0283 0.2958,0.0435 0.4676,0.0456 0.1457,0 0.2783,-0.013 0.4001,-0.0369 0.1196,-0.0261 0.2392,-0.0609 0.3566,-0.1044 0.1196,-0.0457 0.2501,-0.0979 0.3914,-0.1587 -0.1804,0.25 -0.3827,0.4718 -0.6045,0.6654 -0.224,0.1935 -0.4545,0.3675 -0.6959,0.5175 -0.2392,0.1501 -0.4762,0.2849 -0.7089,0.4045 -0.274,0.137 -0.5328,0.274 -0.7785,0.4088 -0.2479,0.1327 -0.4654,0.2827 -0.6589,0.448 -0.1914,0.1653 -0.3436,0.361 -0.4545,0.5893 -0.1109,0.2305 -0.1674,0.5067 -0.1696,0.8329 0.0022,0.4675 0.1196,0.8764 0.3501,1.2265 0.2283,0.3501 0.5567,0.6241 0.9829,0.8198 0.4262,0.1957 0.9351,0.2957 1.5244,0.2979 0.2827,0 0.5632,-0.0326 0.8372,-0.0957 0.2762,-0.063 0.535,-0.1544 0.7764,-0.2718 0.2435,-0.1174 0.4566,-0.2588 0.6437,-0.424 0.187,-0.1631 0.3327,-0.3458 0.437,-0.5502 0.1066,-0.2023 0.161,-0.4197 0.1631,-0.6502 -0.0021,-0.2175 -0.0456,-0.4175 -0.1348,-0.6046 -0.0891,-0.187 -0.2131,-0.3392 -0.374,-0.4545 -0.1588,-0.1152 -0.3458,-0.1761 -0.5611,-0.1783 -0.1891,0.0022 -0.3566,0.05 -0.5066,0.1414 -0.1479,0.0935 -0.2653,0.2174 -0.3523,0.3718 -0.087,0.1544 -0.1305,0.3262 -0.1327,0.5154 0,0.1566 0.0283,0.3066 0.0805,0.4458 0.0543,0.1392 0.1283,0.2588 0.2218,0.3588 0.0935,0.1001 0.2022,0.1696 0.324,0.211 -0.0522,0.0869 -0.1174,0.1717 -0.1957,0.2544 -0.0783,0.0804 -0.1718,0.1457 -0.2784,0.1979 -0.1065,0.0522 -0.2261,0.0783 -0.3609,0.0804 -0.2023,-0.0021 -0.3893,-0.0565 -0.5567,-0.1674 -0.1697,-0.1087 -0.3067,-0.261 -0.4089,-0.4545 -0.1022,-0.1957 -0.1544,-0.4219 -0.1565,-0.6785 0.0021,-0.3675 0.0456,-0.6915 0.1304,-0.9764 0.087,-0.2848 0.2045,-0.5436 0.3523,-0.7763 0.1479,-0.2305 0.3175,-0.4501 0.5089,-0.6567 0.1892,-0.2066 0.3892,-0.4154 0.6002,-0.6241 0.1805,-0.1827 0.3653,-0.3763 0.5545,-0.5828 0.1892,-0.2066 0.3719,-0.4328 0.548,-0.6807 0.1761,-0.2457 0.3349,-0.5219 0.4784,-0.8242 0.1435,-0.3022 0.261,-0.6415 0.3501,-1.0155l-0.6785 0z"/>
  <path id="_2" class="fil3" d="M5.6835 14.8548c0.0195,-0.1196 0.063,-0.2283 0.137,-0.3262 0.0717,-0.0978 0.1652,-0.1761 0.2783,-0.2348 0.1131,-0.0588 0.2392,-0.0892 0.3806,-0.0914 0.1565,0.0022 0.3109,0.0305 0.461,0.0848 0.1522,0.0522 0.3066,0.1196 0.4588,0.2001 0.1544,0.0805 0.3132,0.1587 0.4763,0.2392 0.1609,0.0805 0.3305,0.1457 0.5088,0.2001 0.1762,0.0543 0.3632,0.0826 0.5611,0.0848 0.2696,-0.0022 0.511,-0.0566 0.7241,-0.1653 0.2131,-0.1087 0.4001,-0.2566 0.561,-0.4436 0.161,-0.187 0.2936,-0.4023 0.4023,-0.6415 0.1066,-0.2414 0.1871,-0.4958 0.2436,-0.7633 0.0565,-0.2675 0.087,-0.535 0.0913,-0.8024l-0.5349 -0.0783c-0.0435,0.274 -0.1261,0.4827 -0.2457,0.6284 -0.1197,0.1436 -0.2914,0.2175 -0.5111,0.2175 -0.1718,-0.0022 -0.3262,-0.0174 -0.4675,-0.0457 -0.1414,-0.0282 -0.2762,-0.0609 -0.4067,-0.0978 -0.1304,-0.037 -0.2653,-0.0696 -0.4066,-0.0979 -0.1414,-0.0283 -0.2958,-0.0435 -0.4676,-0.0456 -0.1457,0 -0.2783,0.013 -0.4001,0.0369 -0.1196,0.0261 -0.2392,0.0609 -0.3566,0.1044 -0.1196,0.0457 -0.2501,0.0979 -0.3914,0.1587 0.1804,-0.25 0.3827,-0.4718 0.6045,-0.6654 0.224,-0.1935 0.4545,-0.3675 0.6959,-0.5175 0.2392,-0.1501 0.4762,-0.2849 0.7089,-0.4045 0.274,-0.137 0.5328,-0.274 0.7785,-0.4088 0.2479,-0.1327 0.4654,-0.2827 0.6589,-0.448 0.1914,-0.1653 0.3436,-0.361 0.4545,-0.5893 0.1109,-0.2305 0.1674,-0.5067 0.1696,-0.8329 -0.0022,-0.4675 -0.1196,-0.8764 -0.3501,-1.2265 -0.2283,-0.3501 -0.5567,-0.6241 -0.9829,-0.8198 -0.4262,-0.1957 -0.9351,-0.2957 -1.5244,-0.2979 -0.2827,0 -0.5632,0.0326 -0.8372,0.0957 -0.2762,0.063 -0.535,0.1544 -0.7764,0.2718 -0.2435,0.1174 -0.4566,0.2588 -0.6437,0.424 -0.187,0.1631 -0.3327,0.3458 -0.437,0.5502 -0.1066,0.2023 -0.161,0.4197 -0.1631,0.6502 0.0021,0.2175 0.0456,0.4175 0.1348,0.6046 0.0891,0.187 0.2131,0.3392 0.374,0.4545 0.1588,0.1152 0.3458,0.1761 0.5611,0.1783 0.1891,-0.0022 0.3566,-0.05 0.5066,-0.1414 0.1479,-0.0935 0.2653,-0.2174 0.3523,-0.3718 0.087,-0.1544 0.1305,-0.3262 0.1327,-0.5154 0,-0.1566 -0.0283,-0.3066 -0.0805,-0.4458 -0.0543,-0.1392 -0.1283,-0.2588 -0.2218,-0.3588 -0.0935,-0.1001 -0.2022,-0.1696 -0.324,-0.211 0.0522,-0.0869 0.1174,-0.1717 0.1957,-0.2544 0.0783,-0.0804 0.1718,-0.1457 0.2784,-0.1979 0.1065,-0.0522 0.2261,-0.0783 0.3609,-0.0804 0.2023,0.0021 0.3893,0.0565 0.5567,0.1674 0.1697,0.1087 0.3067,0.261 0.4089,0.4545 0.1022,0.1957 0.1544,0.4219 0.1565,0.6785 -0.0021,0.3675 -0.0456,0.6915 -0.1304,0.9764 -0.087,0.2848 -0.2045,0.5436 -0.3523,0.7763 -0.1479,0.2305 -0.3175,0.4501 -0.5089,0.6567 -0.1892,0.2066 -0.3892,0.4154 -0.6002,0.6241 -0.1805,0.1827 -0.3653,0.3763 -0.5545,0.5828 -0.1892,0.2066 -0.3719,0.4328 -0.548,0.6807 -0.1761,0.2457 -0.3349,0.5219 -0.4784,0.8242 -0.1435,0.3022 -0.261,0.6415 -0.3501,1.0155l0.6785 0z"/>
 </g>
</svg>
