<?xml version="1.0" encoding="UTF-8"?>
<!DOCTYPE svg PUBLIC "-//W3C//DTD SVG 1.1//EN" "http://www.w3.org/Graphics/SVG/1.1/DTD/svg11.dtd">
<!-- Creator: CorelDRAW -->
<svg xmlns="http://www.w3.org/2000/svg" xml:space="preserve" width="58mm" height="90mm" style="shape-rendering:geometricPrecision; text-rendering:geometricPrecision; image-rendering:optimizeQuality; fill-rule:evenodd; clip-rule:evenodd"
viewBox="0 0 58 90"
 xmlns:xlink="http://www.w3.org/1999/xlink">
 <defs>
  <style type="text/css">
   <![CDATA[
    .str0 {stroke:black;stroke-width:0.25}
    .str1 {stroke:#FE0000;stroke-width:0.5}
    .fil1 {fill:none}
    .fil2 {fill:#FE0000}
    .fil0 {fill:white}
    .fil3 {fill:#FE0000;fill-rule:nonzero}
   ]]>
  </style>
 </defs>
 <g id="Camada_x0020_1">
  <metadata id="CorelCorpID_0Corel-Layer"/>
  <rect id="Carta" class="fil0 str0" x="0.499998" y="0.500029" width="57" height="89" rx="2.6308" ry="2.6308"/>
  <rect id="Centralizador_x0020_Inferior" class="fil1" x="46.5246" y="75.1555" width="7.3537" height="8.2925"/>
  <rect id="Centralizador" class="fil1" x="4.1201" y="6.5593" width="7.3542" height="8.2955"/>
  <rect id="Retângulo_x0020_Vermelho" class="fil1 str1" x="15.0661" y="20.1219" width="27.8678" height="49.7562" rx="1.2862" ry="1.2862"/>
  <path id="Copas_x0020_Inferior" class="fil2" d="M52.2518 67.6122c0.978,-0.0755 1.5851,-0.7473 1.6189,-1.5957l0 -0.151c-0.0081,-0.2055 -0.0489,-0.4194 -0.1253,-0.6364 -0.2763,-0.7844 -1.1694,-1.7726 -1.7146,-2.4305 -0.6682,-0.8062 -1.2085,-1.5431 -1.6099,-2.519 -0.0544,-0.1323 -0.1751,-0.783 -0.3374,-0.2997 -0.2497,0.7435 -0.6256,1.3817 -1.1073,2.0084 -0.5887,0.766 -1.2996,1.5042 -1.8317,2.2956 -1.484,2.207 0.0544,3.5924 1.5767,3.3022 0.6591,-0.1256 1.1348,-0.5921 1.4179,-1.1775 0.1395,-0.2885 0.1038,0.1714 0.6045,0.6659 0.4116,0.4065 0.9361,0.5818 1.5082,0.5377z"/>
  <path id="Copas_x0020_Central" class="fil2" d="M26.9513 41.0959c-0.9795,0.0756 -1.5876,0.7484 -1.6214,1.5981l0 0.1513c0.0081,0.2058 0.049,0.4201 0.1255,0.6374 0.2768,0.7855 1.1712,1.7753 1.7172,2.4342 0.6693,0.8075 1.2104,1.5455 1.6124,2.5229 0.0545,0.1326 0.1754,0.7843 0.338,0.3001 0.2501,-0.7446 0.6266,-1.3838 1.109,-2.0114 0.5896,-0.7672 1.3015,-1.5066 1.8344,-2.2991 1.4864,-2.2104 -0.0544,-3.598 -1.579,-3.3074 -0.6602,0.1258 -1.1366,0.5931 -1.4201,1.1794 -0.1397,0.2889 -0.104,-0.1717 -0.6055,-0.667 -0.4122,-0.4071 -0.9375,-0.5827 -1.5105,-0.5385z"/>
  <path id="Copas" class="fil2" d="M5.7355 22.5633c-0.9795,0.0756 -1.5876,0.7484 -1.6214,1.5981l0 0.1513c0.0081,0.2058 0.049,0.4201 0.1255,0.6374 0.2768,0.7855 1.1712,1.7753 1.7172,2.4342 0.6693,0.8075 1.2104,1.5455 1.6124,2.5229 0.0545,0.1326 0.1754,0.7843 0.338,0.3001 0.2501,-0.7446 0.6266,-1.3838 1.109,-2.0114 0.5896,-0.7672 1.3015,-1.5066 1.8344,-2.2991 1.4864,-2.2104 -0.0544,-3.598 -1.579,-3.3074 -0.6602,0.1258 -1.1366,0.5931 -1.4201,1.1794 -0.1397,0.2889 -0.104,-0.1717 -0.6055,-0.667 -0.4122,-0.4071 -0.9375,-0.5827 -1.5105,-0.5385z"/>
  <path id="_5_x0020_Inferior" class="fil3" d="M47.4099 83.1449l0.6002 0.0522c0.1762,-0.1566 0.4002,-0.2762 0.6676,-0.3588 0.2697,-0.0826 0.5763,-0.124 0.9242,-0.124 0.3132,0 0.6024,0.0174 0.8655,0.0501 0.261,0.0348 0.5176,0.0826 0.7698,0.1478 0.2523,0.0631 0.5219,0.1414 0.8046,0.2327l0.5089 -4.3579 -0.3262 -0.1044c-0.1479,0.0718 -0.3001,0.1392 -0.461,0.2044 -0.1609,0.0653 -0.3327,0.1196 -0.5176,0.161 -0.1826,0.0413 -0.3827,0.063 -0.6001,0.0652 -0.274,0 -0.5024,-0.0696 -0.6872,-0.2044 -0.1827,-0.137 -0.3219,-0.3305 -0.4132,-0.585 -0.0935,-0.2566 -0.1392,-0.561 -0.1392,-0.9198 0,-0.2175 0.0196,-0.4371 0.0609,-0.6568 0.0392,-0.2196 0.1066,-0.4218 0.1957,-0.6067 0.0914,-0.1826 0.211,-0.3305 0.3588,-0.4436 0.1501,-0.1109 0.3306,-0.1696 0.5459,-0.1718 0.1261,0 0.2348,0.0196 0.3262,0.0544 0.0913,0.0348 0.1696,0.0804 0.2348,0.1348 0.0653,0.0544 0.1218,0.1131 0.1696,0.1761 -0.0456,0.0979 -0.0957,0.1871 -0.1522,0.2675 -0.0565,0.0805 -0.1065,0.1609 -0.1479,0.2436 -0.0413,0.0826 -0.063,0.1783 -0.0652,0.2849 0.0022,0.1978 0.0457,0.3783 0.1326,0.5414 0.087,0.1631 0.2088,0.2936 0.361,0.3915 0.1523,0.0978 0.3262,0.1478 0.5241,0.15 0.1936,-0.0022 0.3697,-0.0478 0.5284,-0.1392 0.1588,-0.0913 0.2871,-0.2153 0.3828,-0.3697 0.0935,-0.1544 0.1435,-0.3283 0.1457,-0.5219 -0.0022,-0.2631 -0.0587,-0.4958 -0.1718,-0.698 -0.1109,-0.2001 -0.2632,-0.374 -0.4545,-0.5197 -0.1914,-0.1436 -0.411,-0.261 -0.6567,-0.3545 -0.2436,-0.0913 -0.5024,-0.1587 -0.772,-0.2022 -0.2697,-0.0435 -0.5372,-0.0653 -0.8025,-0.0653 -0.4305,0 -0.8328,0.0587 -1.209,0.1762 -0.3741,0.1152 -0.7046,0.2827 -0.9917,0.5023 -0.2848,0.2196 -0.5088,0.4849 -0.6719,0.7959 -0.1609,0.3132 -0.2436,0.6654 -0.2457,1.0569 0.0021,0.3805 0.0696,0.7263 0.2066,1.0394 0.137,0.3153 0.3327,0.585 0.5871,0.8133 0.2544,0.2284 0.561,0.4045 0.9177,0.5285 0.3566,0.1239 0.7567,0.187 1.1982,0.1891 0.1979,-0.0021 0.4132,-0.0217 0.6437,-0.063 0.2305,-0.0413 0.4566,-0.0935 0.6828,-0.1609 0.2261,-0.0675 0.4327,-0.1392 0.6176,-0.2197l-0.2088 1.6049c-0.2022,-0.0305 -0.3914,-0.0653 -0.5654,-0.1022 -0.1761,-0.0348 -0.3501,-0.0653 -0.5262,-0.0914 -0.174,-0.0261 -0.3632,-0.0391 -0.5654,-0.0413 -0.3654,0.0022 -0.6937,0.0609 -0.983,0.1762 -0.2892,0.1152 -0.5414,0.274 -0.7567,0.4784 -0.2175,0.2022 -0.3958,0.4392 -0.5415,0.7045 -0.1435,0.2675 -0.2544,0.5546 -0.3284,0.859z"/>
  <path id="_5" class="fil3" d="M10.5894 6.7653l-0.6002 -0.0522c-0.1762,0.1566 -0.4002,0.2762 -0.6676,0.3588 -0.2697,0.0826 -0.5763,0.124 -0.9242,0.124 -0.3132,0 -0.6024,-0.0174 -0.8655,-0.0501 -0.261,-0.0348 -0.5176,-0.0826 -0.7698,-0.1478 -0.2523,-0.0631 -0.5219,-0.1414 -0.8046,-0.2327l-0.5089 4.3579 0.3262 0.1044c0.1479,-0.0718 0.3001,-0.1392 0.461,-0.2044 0.1609,-0.0653 0.3327,-0.1196 0.5176,-0.161 0.1826,-0.0413 0.3827,-0.063 0.6001,-0.0652 0.274,0 0.5024,0.0696 0.6872,0.2044 0.1827,0.137 0.3219,0.3305 0.4132,0.585 0.0935,0.2566 0.1392,0.561 0.1392,0.9198 0,0.2175 -0.0196,0.4371 -0.0609,0.6568 -0.0392,0.2196 -0.1066,0.4218 -0.1957,0.6067 -0.0914,0.1826 -0.211,0.3305 -0.3588,0.4436 -0.1501,0.1109 -0.3306,0.1696 -0.5459,0.1718 -0.1261,0 -0.2348,-0.0196 -0.3262,-0.0544 -0.0913,-0.0348 -0.1696,-0.0804 -0.2348,-0.1348 -0.0653,-0.0544 -0.1218,-0.1131 -0.1696,-0.1761 0.0456,-0.0979 0.0957,-0.1871 0.1522,-0.2675 0.0565,-0.0805 0.1065,-0.1609 0.1479,-0.2436 0.0413,-0.0826 0.063,-0.1783 0.0652,-0.2849 -0.0022,-0.1978 -0.0457,-0.3783 -0.1326,-0.5414 -0.087,-0.1631 -0.2088,-0.2936 -0.361,-0.3915 -0.1523,-0.0978 -0.3262,-0.1478 -0.5241,-0.15 -0.1936,0.0022 -0.3697,0.0478 -0.5284,0.1392 -0.1588,0.0913 -0.2871,0.2153 -0.3828,0.3697 -0.0935,0.1544 -0.1435,0.3283 -0.1457,0.5219 0.0022,0.2631 0.0587,0.4958 0.1718,0.698 0.1109,0.2001 0.2632,0.374 0.4545,0.5197 0.1914,0.1436 0.411,0.261 0.6567,0.3545 0.2436,0.0913 0.5024,0.1587 0.772,0.2022 0.2697,0.0435 0.5372,0.0653 0.8025,0.0653 0.4305,0 0.8328,-0.0587 1.209,-0.1762 0.3741,-0.1152 0.7046,-0.2827 0.9917,-0.5023 0.2848,-0.2196 0.5088,-0.4849 0.6719,-0.7959 0.1609,-0.3132 0.2436,-0.6654 0.2457,-1.0569 -0.0021,-0.3805 -0.0696,-0.7263 -0.2066,-1.0394 -0.137,-0.3153 -0.3327,-0.585 -0.5871,-0.8133 -0.2544,-0.2284 -0.561,-0.4045 -0.9177,-0.5285 -0.3566,-0.1239 -0.7567,-0.187 -1.1982,-0.1891 -0.1979,0.0021 -0.4132,0.0217 -0.6437,0.063 -0.2305,0.0413 -0.4566,0.0935 -0.6828,0.1609 -0.2261,0.0675 -0.4327,0.1392 -0.6176,0.2197l0.2088 -1.6049c0.2022,0.0305 0.3914,0.0653 0.5654,0.1022 0.1761,0.0348 0.3501,0.0653 0.5262,0.0914 0.174,0.0261 0.3632,0.0391 0.5654,0.0413 0.3654,-0.0022 0.6937,-0.0609 0.983,-0.1762 0.2892,-0.1152 0.5414,-0.274 0.7567,-0.4784 0.2175,-0.2022 0.3958,-0.4392 0.5415,-0.7045 0.1435,-0.2675 0.2544,-0.5546 0.3284,-0.859z"/>
 </g>
</svg>
