<?xml version="1.0" encoding="UTF-8"?>
<!DOCTYPE svg PUBLIC "-//W3C//DTD SVG 1.1//EN" "http://www.w3.org/Graphics/SVG/1.1/DTD/svg11.dtd">
<!-- Creator: CorelDRAW -->
<svg xmlns="http://www.w3.org/2000/svg" xml:space="preserve" width="58mm" height="90mm" style="shape-rendering:geometricPrecision; text-rendering:geometricPrecision; image-rendering:optimizeQuality; fill-rule:evenodd; clip-rule:evenodd"
viewBox="0 0 58 90"
 xmlns:xlink="http://www.w3.org/1999/xlink">
 <defs>
  <style type="text/css">
   <![CDATA[
    .str0 {stroke:black;stroke-width:0.25}
    .str1 {stroke:#FE0000;stroke-width:0.5}
    .fil1 {fill:none}
    .fil4 {fill:none;fill-rule:nonzero}
    .fil2 {fill:#FE0000}
    .fil0 {fill:white}
    .fil3 {fill:#FE0000;fill-rule:nonzero}
   ]]>
  </style>
   <mask id="id0">
  <radialGradient id="id1" gradientUnits="userSpaceOnUse" cx="29" cy="37.9472" r="12.1836" fx="29" fy="37.9472">
   <stop offset="0" style="stop-opacity:0.419608; stop-color:white"/>
   <stop offset="1" style="stop-opacity:1; stop-color:white"/>
  </radialGradient>
    <rect style="fill:url(#id1)" x="16.8164" y="40.9021" width="24.6974" height="9.8129"/>
   </mask>
 </defs>
 <g id="Camada_x0020_1">
  <metadata id="CorelCorpID_0Corel-Layer"/>
  <rect id="Carta" class="fil0 str0" x="0.499998" y="0.500029" width="57" height="89" rx="2.6308" ry="2.6308"/>
  <rect id="Retângulo_x0020_Vermelho" class="fil1 str1" x="15.0661" y="20.1219" width="27.8678" height="49.7562" rx="1.2862" ry="1.2862"/>
  <path id="Ouros_x0020_Inferior" class="fil2" d="M50.2056 59.8025c-0.0406,0.0411 -0.5229,0.8818 -0.608,1.0199 -0.2085,0.3386 -0.4256,0.6769 -0.647,1.0076 -0.4676,0.6983 -0.8947,1.2296 -1.4091,1.8819l0.7091 0.9276c0.7183,0.9513 1.3409,1.9708 1.9593,2.9862 0.0908,-0.0842 0.535,-0.835 0.6373,-0.9995 0.1978,-0.3182 0.4439,-0.6876 0.6618,-0.9926 0.1326,-0.1857 1.3615,-1.8909 1.362,-1.9236 0.0008,-0.0517 -0.6068,-0.8287 -0.6889,-0.9384 -0.5816,-0.777 -1.1548,-1.623 -1.653,-2.4565 -0.0666,-0.1115 -0.2315,-0.4597 -0.3235,-0.5126z"/>
  <path id="Ouros_x0020_Central" class="fil2" d="M29.0007 48.9176c0.0406,-0.0411 0.5237,-0.8831 0.6089,-1.0215 0.2088,-0.3391 0.4262,-0.6779 0.648,-1.009 0.4683,-0.6995 0.8961,-1.2316 1.4113,-1.8849l-0.7102 -0.929c-0.7194,-0.9528 -1.343,-1.9739 -1.9624,-2.9908 -0.0909,0.0843 -0.5358,0.8362 -0.6382,1.001 -0.1981,0.3187 -0.4446,0.6887 -0.6628,0.9942 -0.1329,0.186 -1.3636,1.8937 -1.3641,1.9265 -0.0008,0.0518 0.6077,0.8299 0.6899,0.9399 0.5825,0.7782 1.1566,1.6255 1.6555,2.4602 0.0668,0.1117 0.2319,0.4604 0.3241,0.5134z"/>
  <path id="Ouros" class="fil2" d="M7.7849 30.385c0.0406,-0.0411 0.5237,-0.8831 0.6089,-1.0215 0.2088,-0.3391 0.4262,-0.6779 0.648,-1.009 0.4683,-0.6995 0.8961,-1.2316 1.4113,-1.8849l-0.7102 -0.929c-0.7194,-0.9528 -1.343,-1.9739 -1.9624,-2.9908 -0.0909,0.0843 -0.5358,0.8362 -0.6382,1.001 -0.1981,0.3187 -0.4446,0.6887 -0.6628,0.9942 -0.1329,0.186 -1.3636,1.8937 -1.3641,1.9265 -0.0008,0.0518 0.6077,0.8299 0.6899,0.9399 0.5825,0.7782 1.1566,1.6255 1.6555,2.4602 0.0668,0.1117 0.2319,0.4604 0.3241,0.5134z"/>
  <path id="Q_x0020_Inferior" class="fil3" d="M50.1173 83.4972c0.4306,-0.0022 0.8263,-0.0783 1.1852,-0.2283 0.3588,-0.1501 0.6784,-0.361 0.9568,-0.6328 0.2805,-0.2697 0.5175,-0.5872 0.7111,-0.9503 0.1935,-0.3654 0.3392,-0.7612 0.4392,-1.1896 0.1023,-0.4283 0.1523,-0.8763 0.1523,-1.3439 0,-0.4675 -0.05,-0.9155 -0.1501,-1.3439 -0.1,-0.4284 -0.2457,-0.8241 -0.4392,-1.1895 -0.1914,-0.3631 -0.4284,-0.6806 -0.7068,-0.9503 -0.2805,-0.2718 -0.598,-0.4827 -0.959,-0.6328 -0.3588,-0.15 -0.7568,-0.2261 -1.1895,-0.2283 -0.1044,0 -0.2066,0.0043 -0.3044,0.0109 -0.1001,0.0087 -0.1979,0.0217 -0.2958,0.0413 -0.0761,-0.2523 -0.174,-0.4828 -0.2936,-0.6915 -0.1174,-0.211 -0.2718,-0.3806 -0.4631,-0.5067 -0.1892,-0.1283 -0.4284,-0.1936 -0.7177,-0.1979 -0.2066,0.0022 -0.3936,0.0478 -0.5588,0.1392 -0.1653,0.0891 -0.311,0.2109 -0.4371,0.3631 -0.1262,0.1522 -0.2305,0.3219 -0.3154,0.5089 -0.0848,0.1892 -0.1478,0.3805 -0.1913,0.5763 -0.0413,0.1978 -0.0631,0.3849 -0.0631,0.5653l0.4697 0.0914c0.0283,-0.0892 0.0587,-0.1762 0.0935,-0.261 0.0327,-0.0848 0.0805,-0.1565 0.1392,-0.2131 0.0587,-0.0565 0.1435,-0.0848 0.2501,-0.087 0.1283,0.0022 0.2479,0.0392 0.3588,0.1131 0.1087,0.0739 0.2153,0.1718 0.3197,0.2914 -0.3088,0.2675 -0.5698,0.5893 -0.7851,0.9634 -0.2131,0.374 -0.374,0.7828 -0.4849,1.2308 -0.1087,0.4479 -0.1653,0.9177 -0.1653,1.4069 0,0.4676 0.0501,0.9156 0.1523,1.3439 0.1,0.4284 0.2457,0.8264 0.4392,1.1896 0.1936,0.3631 0.4306,0.6806 0.7111,0.9503 0.2784,0.2718 0.598,0.4827 0.9568,0.6328 0.3589,0.15 0.7546,0.2261 1.1852,0.2283l0 0zm0 -0.7046c-0.1566,0.0022 -0.2849,-0.0304 -0.3914,-0.1 -0.1044,-0.0696 -0.187,-0.1848 -0.2501,-0.3458 -0.0631,-0.1631 -0.1109,-0.3827 -0.1414,-0.661 -0.0326,-0.2784 -0.0543,-0.6263 -0.0652,-1.0417 -0.0087,-0.4175 -0.0152,-0.9133 -0.013,-1.4918 0,-0.4088 0.0021,-0.7763 0.0087,-1.1025 0.0065,-0.324 0.0174,-0.6132 0.0304,-0.8676 0.1544,0.1718 0.3262,0.3109 0.5154,0.4153 0.187,0.1022 0.3979,0.1566 0.6328,0.1588 0.1022,-0.0022 0.1935,-0.0174 0.2762,-0.0479 0.0804,-0.0283 0.1631,-0.0609 0.2457,-0.0957 0.0065,0.2153 0.0109,0.4502 0.0109,0.7068 0.0021,0.2544 0.0021,0.5328 0.0021,0.8328 0,0.5785 -0.0043,1.0743 -0.0152,1.4918 -0.0087,0.4154 -0.0304,0.7633 -0.063,1.0417 -0.0305,0.2783 -0.0783,0.4979 -0.1414,0.661 -0.0631,0.161 -0.1479,0.2762 -0.2522,0.3458 -0.1044,0.0696 -0.2327,0.1022 -0.3893,0.1zm-0.3914 -7.1762c0.0522,-0.0326 0.1109,-0.0587 0.1761,-0.0761 0.0653,-0.0195 0.137,-0.0282 0.2153,-0.0282 0.1761,-0.0022 0.3218,0.0413 0.4327,0.1348 0.1131,0.0913 0.2001,0.2479 0.261,0.4697 0.0609,0.2218 0.1044,0.5241 0.1283,0.909 -0.0261,0.013 -0.0522,0.0261 -0.0805,0.037 -0.0261,0.0087 -0.0565,0.0152 -0.0891,0.0152 -0.1588,-0.0022 -0.2936,-0.0413 -0.4045,-0.1196 -0.1087,-0.0783 -0.2022,-0.187 -0.2783,-0.3219 -0.0762,-0.137 -0.1436,-0.2914 -0.2001,-0.4675 -0.0565,-0.174 -0.1109,-0.3588 -0.1609,-0.5524z"/>
  <path id="Q" class="fil3" d="M7.882 6.413c-0.4306,0.0022 -0.8263,0.0783 -1.1852,0.2283 -0.3588,0.1501 -0.6784,0.361 -0.9568,0.6328 -0.2805,0.2697 -0.5175,0.5872 -0.7111,0.9503 -0.1935,0.3654 -0.3392,0.7612 -0.4392,1.1896 -0.1023,0.4283 -0.1523,0.8763 -0.1523,1.3439 0,0.4675 0.05,0.9155 0.1501,1.3439 0.1,0.4284 0.2457,0.8241 0.4392,1.1895 0.1914,0.3631 0.4284,0.6806 0.7068,0.9503 0.2805,0.2718 0.598,0.4827 0.959,0.6328 0.3588,0.15 0.7568,0.2261 1.1895,0.2283 0.1044,0 0.2066,-0.0043 0.3044,-0.0109 0.1001,-0.0087 0.1979,-0.0217 0.2958,-0.0413 0.0761,0.2523 0.174,0.4828 0.2936,0.6915 0.1174,0.211 0.2718,0.3806 0.4631,0.5067 0.1892,0.1283 0.4284,0.1936 0.7177,0.1979 0.2066,-0.0022 0.3936,-0.0478 0.5588,-0.1392 0.1653,-0.0891 0.311,-0.2109 0.4371,-0.3631 0.1262,-0.1522 0.2305,-0.3219 0.3154,-0.5089 0.0848,-0.1892 0.1478,-0.3805 0.1913,-0.5763 0.0413,-0.1978 0.0631,-0.3849 0.0631,-0.5653l-0.4697 -0.0914c-0.0283,0.0892 -0.0587,0.1762 -0.0935,0.261 -0.0327,0.0848 -0.0805,0.1565 -0.1392,0.2131 -0.0587,0.0565 -0.1435,0.0848 -0.2501,0.087 -0.1283,-0.0022 -0.2479,-0.0392 -0.3588,-0.1131 -0.1087,-0.0739 -0.2153,-0.1718 -0.3197,-0.2914 0.3088,-0.2675 0.5698,-0.5893 0.7851,-0.9634 0.2131,-0.374 0.374,-0.7828 0.4849,-1.2308 0.1087,-0.4479 0.1653,-0.9177 0.1653,-1.4069 0,-0.4676 -0.0501,-0.9156 -0.1523,-1.3439 -0.1,-0.4284 -0.2457,-0.8264 -0.4392,-1.1896 -0.1936,-0.3631 -0.4306,-0.6806 -0.7111,-0.9503 -0.2784,-0.2718 -0.598,-0.4827 -0.9568,-0.6328 -0.3589,-0.15 -0.7546,-0.2261 -1.1852,-0.2283l0 0zm0 0.7046c0.1566,-0.0022 0.2849,0.0304 0.3914,0.1 0.1044,0.0696 0.187,0.1848 0.2501,0.3458 0.0631,0.1631 0.1109,0.3827 0.1414,0.661 0.0326,0.2784 0.0543,0.6263 0.0652,1.0417 0.0087,0.4175 0.0152,0.9133 0.013,1.4918 0,0.4088 -0.0021,0.7763 -0.0087,1.1025 -0.0065,0.324 -0.0174,0.6132 -0.0304,0.8676 -0.1544,-0.1718 -0.3262,-0.3109 -0.5154,-0.4153 -0.187,-0.1022 -0.3979,-0.1566 -0.6328,-0.1588 -0.1022,0.0022 -0.1935,0.0174 -0.2762,0.0479 -0.0804,0.0283 -0.1631,0.0609 -0.2457,0.0957 -0.0065,-0.2153 -0.0109,-0.4502 -0.0109,-0.7068 -0.0021,-0.2544 -0.0021,-0.5328 -0.0021,-0.8328 0,-0.5785 0.0043,-1.0743 0.0152,-1.4918 0.0087,-0.4154 0.0304,-0.7633 0.063,-1.0417 0.0305,-0.2783 0.0783,-0.4979 0.1414,-0.661 0.0631,-0.161 0.1479,-0.2762 0.2522,-0.3458 0.1044,-0.0696 0.2327,-0.1022 0.3893,-0.1zm0.3914 7.1762c-0.0522,0.0326 -0.1109,0.0587 -0.1761,0.0761 -0.0653,0.0195 -0.137,0.0282 -0.2153,0.0282 -0.1761,0.0022 -0.3218,-0.0413 -0.4327,-0.1348 -0.1131,-0.0913 -0.2001,-0.2479 -0.261,-0.4697 -0.0609,-0.2218 -0.1044,-0.5241 -0.1283,-0.909 0.0261,-0.013 0.0522,-0.0261 0.0805,-0.037 0.0261,-0.0087 0.0565,-0.0152 0.0891,-0.0152 0.1588,0.0022 0.2936,0.0413 0.4045,0.1196 0.1087,0.0783 0.2022,0.187 0.2783,0.3219 0.0762,0.137 0.1436,0.2914 0.2001,0.4675 0.0565,0.174 0.1109,0.3588 0.1609,0.5524z"/>
  <path class="fil4" style="mask:url(#id0)" d="M16.8164 47.9549m2.8279 -2.1082l0.6265 0 0 -1.7526 -0.9144 0 0.1016 0.4995 -0.6519 0 0 -1.6679 1.4986 0 -0.1016 0.9144 1.0075 0 0 -1.8034 -4.1402 0 0 0.9652 0.5334 -0.1016 0 4.191 -0.5334 -0.1016 0 0.9652 2.3791 0 0 -0.9652 -0.6434 0.1016 0 -1.7357 0.7366 0 0.1016 0.4911zm1.7695 2.1082m2.794 -4.7668l0.4995 2.2607 -0.9821 0 0.4826 -2.2607zm0.6096 -1.1514l-1.2023 0 -1.5832 5.0546 -0.4911 -0.1016 0 0.9652 2.2691 0 0 -0.9652 -0.5758 0.1016 0.2202 -0.7451 1.524 0 0.2201 0.7451 -0.5842 -0.1016 0 0.9652 2.2776 0 0 -0.9652 -0.4996 0.1016 -1.5748 -5.0546zm2.2014 5.9182m0.0847 -5.9182l0 1.8034 1.0075 0 -0.1016 -0.9144 0.762 0 0 4.1656 -0.7027 -0.1016 0 0.9652 2.6162 0 0 -0.9652 -0.7112 0.1016 0 -4.1656 0.762 0 -0.1016 0.9144 1.0075 0 0 -1.8034 -4.5381 0zm4.6228 5.9182m3.2766 -1.8034l0.1016 0.9144 -1.4986 0 0 -1.7187 0.7366 0 0.1016 0.4995 0.6181 0 0 -1.7526 -0.906 0 0.1016 0.508 -0.6519 0 0 -1.668 1.4986 0 -0.1016 0.906 1.0076 0 0 -1.8034 -4.1403 0 0 0.9652 0.5334 -0.1016 0 4.191 -0.5334 -0.1016 0 0.9652 4.1403 0 0 -1.8034 -1.0076 0zm1.3547 1.8034m3.7084 -5.9182l0.1016 0.5334c-0.1129,-0.1694 -0.2836,-0.3161 -0.5122,-0.4403 -0.2286,-0.1242 -0.4615,-0.1863 -0.6985,-0.1863 -0.6491,0 -1.1896,0.2428 -1.6214,0.7282 -0.4318,0.4854 -0.6477,1.2531 -0.6477,2.3029 0,1.0668 0.223,1.8472 0.6689,2.3411 0.4459,0.4939 1.0216,0.7408 1.7272,0.7408 1.0781,0 1.778,-0.5673 2.0997,-1.7018l-0.8805 -0.3133c-0.2597,0.7507 -0.6407,1.1261 -1.143,1.1261 -0.3782,0 -0.6844,-0.1905 -0.9187,-0.5715 -0.2342,-0.381 -0.3513,-0.9186 -0.3513,-1.6129 0,-0.6999 0.1143,-1.2333 0.3429,-1.6002 0.2286,-0.3669 0.5094,-0.5504 0.8424,-0.5504 0.2709,0 0.5489,0.1228 0.834,0.3683 0.285,0.2456 0.4275,0.6082 0.4275,1.088l0.7367 0 0 -2.2521 -1.0076 0z"/>
 </g>
</svg>
