<?xml version="1.0" encoding="UTF-8"?>
<!DOCTYPE svg PUBLIC "-//W3C//DTD SVG 1.1//EN" "http://www.w3.org/Graphics/SVG/1.1/DTD/svg11.dtd">
<!-- Creator: CorelDRAW -->
<svg xmlns="http://www.w3.org/2000/svg" xml:space="preserve" width="58mm" height="90mm" style="shape-rendering:geometricPrecision; text-rendering:geometricPrecision; image-rendering:optimizeQuality; fill-rule:evenodd; clip-rule:evenodd"
viewBox="0 0 58 90"
 xmlns:xlink="http://www.w3.org/1999/xlink">
 <defs>
  <style type="text/css">
   <![CDATA[
    .str0 {stroke:black;stroke-width:0.25}
    .str1 {stroke:#FE0000;stroke-width:0.5}
    .fil1 {fill:none}
    .fil4 {fill:none;fill-rule:nonzero}
    .fil2 {fill:#FE0000}
    .fil0 {fill:white}
    .fil3 {fill:#FE0000;fill-rule:nonzero}
   ]]>
  </style>
   <mask id="id0">
  <radialGradient id="id1" gradientUnits="userSpaceOnUse" cx="29" cy="37.9472" r="12.1836" fx="29" fy="37.9472">
   <stop offset="0" style="stop-opacity:0.419608; stop-color:white"/>
   <stop offset="1" style="stop-opacity:1; stop-color:white"/>
  </radialGradient>
    <rect style="fill:url(#id1)" x="16.8164" y="40.9021" width="24.6974" height="9.8129"/>
   </mask>
 </defs>
 <g id="Camada_x0020_1">
  <metadata id="CorelCorpID_0Corel-Layer"/>
  <rect id="Carta" class="fil0 str0" x="0.499998" y="0.500029" width="57" height="89" rx="2.6308" ry="2.6308"/>
  <rect id="Retângulo_x0020_Vermelho" class="fil1 str1" x="15.0661" y="20.1219" width="27.8678" height="49.7562" rx="1.2862" ry="1.2862"/>
  <path id="Ouros_x0020_Inferior" class="fil2" d="M50.2056 59.8025c-0.0406,0.0411 -0.5229,0.8818 -0.608,1.0199 -0.2085,0.3386 -0.4256,0.6769 -0.647,1.0076 -0.4676,0.6983 -0.8947,1.2296 -1.4091,1.8819l0.7091 0.9276c0.7183,0.9513 1.3409,1.9708 1.9593,2.9862 0.0908,-0.0842 0.535,-0.835 0.6373,-0.9995 0.1978,-0.3182 0.4439,-0.6876 0.6618,-0.9926 0.1326,-0.1857 1.3615,-1.8909 1.362,-1.9236 0.0008,-0.0517 -0.6068,-0.8287 -0.6889,-0.9384 -0.5816,-0.777 -1.1548,-1.623 -1.653,-2.4565 -0.0666,-0.1115 -0.2315,-0.4597 -0.3235,-0.5126z"/>
  <path id="Ouros_x0020_Central" class="fil2" d="M29.0007 48.9176c0.0406,-0.0411 0.5237,-0.8831 0.6089,-1.0215 0.2088,-0.3391 0.4262,-0.6779 0.648,-1.009 0.4683,-0.6995 0.8961,-1.2316 1.4113,-1.8849l-0.7102 -0.929c-0.7194,-0.9528 -1.343,-1.9739 -1.9624,-2.9908 -0.0909,0.0843 -0.5358,0.8362 -0.6382,1.001 -0.1981,0.3187 -0.4446,0.6887 -0.6628,0.9942 -0.1329,0.186 -1.3636,1.8937 -1.3641,1.9265 -0.0008,0.0518 0.6077,0.8299 0.6899,0.9399 0.5825,0.7782 1.1566,1.6255 1.6555,2.4602 0.0668,0.1117 0.2319,0.4604 0.3241,0.5134z"/>
  <path id="Ouros" class="fil2" d="M7.7849 30.385c0.0406,-0.0411 0.5237,-0.8831 0.6089,-1.0215 0.2088,-0.3391 0.4262,-0.6779 0.648,-1.009 0.4683,-0.6995 0.8961,-1.2316 1.4113,-1.8849l-0.7102 -0.929c-0.7194,-0.9528 -1.343,-1.9739 -1.9624,-2.9908 -0.0909,0.0843 -0.5358,0.8362 -0.6382,1.001 -0.1981,0.3187 -0.4446,0.6887 -0.6628,0.9942 -0.1329,0.186 -1.3636,1.8937 -1.3641,1.9265 -0.0008,0.0518 0.6077,0.8299 0.6899,0.9399 0.5825,0.7782 1.1566,1.6255 1.6555,2.4602 0.0668,0.1117 0.2319,0.4604 0.3241,0.5134z"/>
  <path id="_2_x0020_Inferior" class="fil3" d="M52.3158 75.0554c-0.0195,0.1196 -0.063,0.2283 -0.137,0.3262 -0.0717,0.0978 -0.1652,0.1761 -0.2783,0.2348 -0.1131,0.0588 -0.2392,0.0892 -0.3806,0.0914 -0.1565,-0.0022 -0.3109,-0.0305 -0.461,-0.0848 -0.1522,-0.0522 -0.3066,-0.1196 -0.4588,-0.2001 -0.1544,-0.0805 -0.3132,-0.1587 -0.4763,-0.2392 -0.1609,-0.0805 -0.3305,-0.1457 -0.5088,-0.2001 -0.1762,-0.0543 -0.3632,-0.0826 -0.5611,-0.0848 -0.2696,0.0022 -0.511,0.0566 -0.7241,0.1653 -0.2131,0.1087 -0.4001,0.2566 -0.561,0.4436 -0.161,0.187 -0.2936,0.4023 -0.4023,0.6415 -0.1066,0.2414 -0.1871,0.4958 -0.2436,0.7633 -0.0565,0.2675 -0.087,0.535 -0.0913,0.8024l0.5349 0.0783c0.0435,-0.274 0.1261,-0.4827 0.2457,-0.6284 0.1197,-0.1436 0.2914,-0.2175 0.5111,-0.2175 0.1718,0.0022 0.3262,0.0174 0.4675,0.0457 0.1414,0.0282 0.2762,0.0609 0.4067,0.0978 0.1304,0.037 0.2653,0.0696 0.4066,0.0979 0.1414,0.0283 0.2958,0.0435 0.4676,0.0456 0.1457,0 0.2783,-0.013 0.4001,-0.0369 0.1196,-0.0261 0.2392,-0.0609 0.3566,-0.1044 0.1196,-0.0457 0.2501,-0.0979 0.3914,-0.1587 -0.1804,0.25 -0.3827,0.4718 -0.6045,0.6654 -0.224,0.1935 -0.4545,0.3675 -0.6959,0.5175 -0.2392,0.1501 -0.4762,0.2849 -0.7089,0.4045 -0.274,0.137 -0.5328,0.274 -0.7785,0.4088 -0.2479,0.1327 -0.4654,0.2827 -0.6589,0.448 -0.1914,0.1653 -0.3436,0.361 -0.4545,0.5893 -0.1109,0.2305 -0.1674,0.5067 -0.1696,0.8329 0.0022,0.4675 0.1196,0.8764 0.3501,1.2265 0.2283,0.3501 0.5567,0.6241 0.9829,0.8198 0.4262,0.1957 0.9351,0.2957 1.5244,0.2979 0.2827,0 0.5632,-0.0326 0.8372,-0.0957 0.2762,-0.063 0.535,-0.1544 0.7764,-0.2718 0.2435,-0.1174 0.4566,-0.2588 0.6437,-0.424 0.187,-0.1631 0.3327,-0.3458 0.437,-0.5502 0.1066,-0.2023 0.161,-0.4197 0.1631,-0.6502 -0.0021,-0.2175 -0.0456,-0.4175 -0.1348,-0.6046 -0.0891,-0.187 -0.2131,-0.3392 -0.374,-0.4545 -0.1588,-0.1152 -0.3458,-0.1761 -0.5611,-0.1783 -0.1891,0.0022 -0.3566,0.05 -0.5066,0.1414 -0.1479,0.0935 -0.2653,0.2174 -0.3523,0.3718 -0.087,0.1544 -0.1305,0.3262 -0.1327,0.5154 0,0.1566 0.0283,0.3066 0.0805,0.4458 0.0543,0.1392 0.1283,0.2588 0.2218,0.3588 0.0935,0.1001 0.2022,0.1696 0.324,0.211 -0.0522,0.0869 -0.1174,0.1717 -0.1957,0.2544 -0.0783,0.0804 -0.1718,0.1457 -0.2784,0.1979 -0.1065,0.0522 -0.2261,0.0783 -0.3609,0.0804 -0.2023,-0.0021 -0.3893,-0.0565 -0.5567,-0.1674 -0.1697,-0.1087 -0.3067,-0.261 -0.4089,-0.4545 -0.1022,-0.1957 -0.1544,-0.4219 -0.1565,-0.6785 0.0021,-0.3675 0.0456,-0.6915 0.1304,-0.9764 0.087,-0.2848 0.2045,-0.5436 0.3523,-0.7763 0.1479,-0.2305 0.3175,-0.4501 0.5089,-0.6567 0.1892,-0.2066 0.3892,-0.4154 0.6002,-0.6241 0.1805,-0.1827 0.3653,-0.3763 0.5545,-0.5828 0.1892,-0.2066 0.3719,-0.4328 0.548,-0.6807 0.1761,-0.2457 0.3349,-0.5219 0.4784,-0.8242 0.1435,-0.3022 0.261,-0.6415 0.3501,-1.0155l-0.6785 0z"/>
  <path id="_2" class="fil3" d="M5.6835 14.8548c0.0195,-0.1196 0.063,-0.2283 0.137,-0.3262 0.0717,-0.0978 0.1652,-0.1761 0.2783,-0.2348 0.1131,-0.0588 0.2392,-0.0892 0.3806,-0.0914 0.1565,0.0022 0.3109,0.0305 0.461,0.0848 0.1522,0.0522 0.3066,0.1196 0.4588,0.2001 0.1544,0.0805 0.3132,0.1587 0.4763,0.2392 0.1609,0.0805 0.3305,0.1457 0.5088,0.2001 0.1762,0.0543 0.3632,0.0826 0.5611,0.0848 0.2696,-0.0022 0.511,-0.0566 0.7241,-0.1653 0.2131,-0.1087 0.4001,-0.2566 0.561,-0.4436 0.161,-0.187 0.2936,-0.4023 0.4023,-0.6415 0.1066,-0.2414 0.1871,-0.4958 0.2436,-0.7633 0.0565,-0.2675 0.087,-0.535 0.0913,-0.8024l-0.5349 -0.0783c-0.0435,0.274 -0.1261,0.4827 -0.2457,0.6284 -0.1197,0.1436 -0.2914,0.2175 -0.5111,0.2175 -0.1718,-0.0022 -0.3262,-0.0174 -0.4675,-0.0457 -0.1414,-0.0282 -0.2762,-0.0609 -0.4067,-0.0978 -0.1304,-0.037 -0.2653,-0.0696 -0.4066,-0.0979 -0.1414,-0.0283 -0.2958,-0.0435 -0.4676,-0.0456 -0.1457,0 -0.2783,0.013 -0.4001,0.0369 -0.1196,0.0261 -0.2392,0.0609 -0.3566,0.1044 -0.1196,0.0457 -0.2501,0.0979 -0.3914,0.1587 0.1804,-0.25 0.3827,-0.4718 0.6045,-0.6654 0.224,-0.1935 0.4545,-0.3675 0.6959,-0.5175 0.2392,-0.1501 0.4762,-0.2849 0.7089,-0.4045 0.274,-0.137 0.5328,-0.274 0.7785,-0.4088 0.2479,-0.1327 0.4654,-0.2827 0.6589,-0.448 0.1914,-0.1653 0.3436,-0.361 0.4545,-0.5893 0.1109,-0.2305 0.1674,-0.5067 0.1696,-0.8329 -0.0022,-0.4675 -0.1196,-0.8764 -0.3501,-1.2265 -0.2283,-0.3501 -0.5567,-0.6241 -0.9829,-0.8198 -0.4262,-0.1957 -0.9351,-0.2957 -1.5244,-0.2979 -0.2827,0 -0.5632,0.0326 -0.8372,0.0957 -0.2762,0.063 -0.535,0.1544 -0.7764,0.2718 -0.2435,0.1174 -0.4566,0.2588 -0.6437,0.424 -0.187,0.1631 -0.3327,0.3458 -0.437,0.5502 -0.1066,0.2023 -0.161,0.4197 -0.1631,0.6502 0.0021,0.2175 0.0456,0.4175 0.1348,0.6046 0.0891,0.187 0.2131,0.3392 0.374,0.4545 0.1588,0.1152 0.3458,0.1761 0.5611,0.1783 0.1891,-0.0022 0.3566,-0.05 0.5066,-0.1414 0.1479,-0.0935 0.2653,-0.2174 0.3523,-0.3718 0.087,-0.1544 0.1305,-0.3262 0.1327,-0.5154 0,-0.1566 -0.0283,-0.3066 -0.0805,-0.4458 -0.0543,-0.1392 -0.1283,-0.2588 -0.2218,-0.3588 -0.0935,-0.1001 -0.2022,-0.1696 -0.324,-0.211 0.0522,-0.0869 0.1174,-0.1717 0.1957,-0.2544 0.0783,-0.0804 0.1718,-0.1457 0.2784,-0.1979 0.1065,-0.0522 0.2261,-0.0783 0.3609,-0.0804 0.2023,0.0021 0.3893,0.0565 0.5567,0.1674 0.1697,0.1087 0.3067,0.261 0.4089,0.4545 0.1022,0.1957 0.1544,0.4219 0.1565,0.6785 -0.0021,0.3675 -0.0456,0.6915 -0.1304,0.9764 -0.087,0.2848 -0.2045,0.5436 -0.3523,0.7763 -0.1479,0.2305 -0.3175,0.4501 -0.5089,0.6567 -0.1892,0.2066 -0.3892,0.4154 -0.6002,0.6241 -0.1805,0.1827 -0.3653,0.3763 -0.5545,0.5828 -0.1892,0.2066 -0.3719,0.4328 -0.548,0.6807 -0.1761,0.2457 -0.3349,0.5219 -0.4784,0.8242 -0.1435,0.3022 -0.261,0.6415 -0.3501,1.0155l0.6785 0z"/>
  <path class="fil4" style="mask:url(#id0)" d="M16.8164 47.9549m2.8279 -2.1082l0.6265 0 0 -1.7526 -0.9144 0 0.1016 0.4995 -0.6519 0 0 -1.6679 1.4986 0 -0.1016 0.9144 1.0075 0 0 -1.8034 -4.1402 0 0 0.9652 0.5334 -0.1016 0 4.191 -0.5334 -0.1016 0 0.9652 2.3791 0 0 -0.9652 -0.6434 0.1016 0 -1.7357 0.7366 0 0.1016 0.4911zm1.7695 2.1082m2.794 -4.7668l0.4995 2.2607 -0.9821 0 0.4826 -2.2607zm0.6096 -1.1514l-1.2023 0 -1.5832 5.0546 -0.4911 -0.1016 0 0.9652 2.2691 0 0 -0.9652 -0.5758 0.1016 0.2202 -0.7451 1.524 0 0.2201 0.7451 -0.5842 -0.1016 0 0.9652 2.2776 0 0 -0.9652 -0.4996 0.1016 -1.5748 -5.0546zm2.2014 5.9182m0.0847 -5.9182l0 1.8034 1.0075 0 -0.1016 -0.9144 0.762 0 0 4.1656 -0.7027 -0.1016 0 0.9652 2.6162 0 0 -0.9652 -0.7112 0.1016 0 -4.1656 0.762 0 -0.1016 0.9144 1.0075 0 0 -1.8034 -4.5381 0zm4.6228 5.9182m3.2766 -1.8034l0.1016 0.9144 -1.4986 0 0 -1.7187 0.7366 0 0.1016 0.4995 0.6181 0 0 -1.7526 -0.906 0 0.1016 0.508 -0.6519 0 0 -1.668 1.4986 0 -0.1016 0.906 1.0076 0 0 -1.8034 -4.1403 0 0 0.9652 0.5334 -0.1016 0 4.191 -0.5334 -0.1016 0 0.9652 4.1403 0 0 -1.8034 -1.0076 0zm1.3547 1.8034m3.7084 -5.9182l0.1016 0.5334c-0.1129,-0.1694 -0.2836,-0.3161 -0.5122,-0.4403 -0.2286,-0.1242 -0.4615,-0.1863 -0.6985,-0.1863 -0.6491,0 -1.1896,0.2428 -1.6214,0.7282 -0.4318,0.4854 -0.6477,1.2531 -0.6477,2.3029 0,1.0668 0.223,1.8472 0.6689,2.3411 0.4459,0.4939 1.0216,0.7408 1.7272,0.7408 1.0781,0 1.778,-0.5673 2.0997,-1.7018l-0.8805 -0.3133c-0.2597,0.7507 -0.6407,1.1261 -1.143,1.1261 -0.3782,0 -0.6844,-0.1905 -0.9187,-0.5715 -0.2342,-0.381 -0.3513,-0.9186 -0.3513,-1.6129 0,-0.6999 0.1143,-1.2333 0.3429,-1.6002 0.2286,-0.3669 0.5094,-0.5504 0.8424,-0.5504 0.2709,0 0.5489,0.1228 0.834,0.3683 0.285,0.2456 0.4275,0.6082 0.4275,1.088l0.7367 0 0 -2.2521 -1.0076 0z"/>
 </g>
</svg>
