<?xml version="1.0" encoding="UTF-8"?>
<!DOCTYPE svg PUBLIC "-//W3C//DTD SVG 1.1//EN" "http://www.w3.org/Graphics/SVG/1.1/DTD/svg11.dtd">
<!-- Creator: CorelDRAW -->
<svg xmlns="http://www.w3.org/2000/svg" xml:space="preserve" width="58mm" height="90mm" style="shape-rendering:geometricPrecision; text-rendering:geometricPrecision; image-rendering:optimizeQuality; fill-rule:evenodd; clip-rule:evenodd"
viewBox="0 0 58 90"
 xmlns:xlink="http://www.w3.org/1999/xlink">
 <defs>
  <style type="text/css">
   <![CDATA[
    .str0 {stroke:black;stroke-width:0.25}
    .str1 {stroke:black;stroke-width:0.5}
    .fil1 {fill:none}
    .fil4 {fill:none;fill-rule:nonzero}
    .fil2 {fill:black}
    .fil0 {fill:white}
    .fil3 {fill:black;fill-rule:nonzero}
   ]]>
  </style>
   <mask id="id0">
  <radialGradient id="id1" gradientUnits="userSpaceOnUse" cx="29" cy="37.9472" r="12.1836" fx="29" fy="37.9472">
   <stop offset="0" style="stop-opacity:0.419608; stop-color:white"/>
   <stop offset="1" style="stop-opacity:1; stop-color:white"/>
  </radialGradient>
    <rect style="fill:url(#id1)" x="16.8164" y="40.9021" width="24.6974" height="9.8129"/>
   </mask>
 </defs>
 <g id="Camada_x0020_1">
  <metadata id="CorelCorpID_0Corel-Layer"/>
  <rect id="Carta" class="fil0 str0" x="0.499998" y="0.500029" width="57" height="89" rx="2.6308" ry="2.6308"/>
  <rect id="Retângulo_x0020_Preto" class="fil1 str1" x="15.0661" y="20.1219" width="27.8678" height="49.7562" rx="1.2862" ry="1.2862"/>
  <path id="Paus_x0020_Inferior" class="fil2" d="M49.7933 62.1575l0 0zm1.2986 2.2237l0 0zm-1.779 0.0178l0 0zm1.779 -0.0178c0.4032,0.0634 0.5206,0.1596 1.0286,0.0858 0.9928,-0.1444 1.6978,-0.8734 1.405,-1.9323 -0.181,-0.6549 -0.5663,-0.987 -1.2334,-1.0791 -0.4574,-0.0631 -1.1114,0.2047 -1.4618,0.5471l-0.1476 0.1548c0.0239,-0.2858 0.2288,-1.0841 0.3383,-1.334 0.3111,-0.7095 0.5086,-0.7406 0.658,-1.032l-3.0065 0c0.0321,0.1189 0.4629,0.4976 0.7237,1.0197 0.0947,0.1897 0.1764,0.4291 0.2393,0.6324 0.0463,0.1498 0.1579,0.5612 0.1578,0.7139 -0.2385,-0.1749 -0.2253,-0.2738 -0.6699,-0.4865 -0.8396,-0.4015 -1.8988,-0.2204 -2.2322,0.8578 -0.3827,1.2378 0.8533,2.1045 1.9366,1.9722 0.1778,-0.0217 0.3238,-0.0768 0.4851,-0.102 -0.2287,0.2938 -0.4096,0.4719 -0.5489,0.8387 -0.4686,1.2344 -0.0564,2.3477 1.4561,2.399 0.7975,0.001 1.4662,-0.4174 1.5958,-1.215 0.0664,-0.4279 0.0021,-0.8061 -0.1547,-1.2044 -0.1985,-0.5042 -0.3401,-0.5331 -0.5693,-0.8361z"/>
  <path id="Paus_x0020_Central" class="fil2" d="M29.4136 46.559l0 0zm-1.3006 -2.2272l0 0zm1.7817 -0.0178l0 0zm-1.7817 0.0178c-0.4039,-0.0634 -0.5214,-0.1598 -1.0302,-0.0858 -0.9943,0.1445 -1.7004,0.8747 -1.4072,1.9353 0.1813,0.6558 0.5673,0.9885 1.2353,1.0807 0.4582,0.0632 1.1132,-0.205 1.4641,-0.5479l0.1478 -0.1551c-0.024,0.2862 -0.2291,1.0858 -0.3388,1.336 -0.3116,0.7107 -0.5094,0.7418 -0.659,1.0337l3.0111 0c-0.0321,-0.1192 -0.4636,-0.4984 -0.7248,-1.0213 -0.0949,-0.19 -0.1767,-0.4298 -0.2396,-0.6334 -0.0464,-0.15 -0.1582,-0.5621 -0.1581,-0.715 0.2389,0.1752 0.2257,0.2743 0.6709,0.4872 0.8409,0.4022 1.9018,0.2208 2.2357,-0.859 0.3833,-1.2397 -0.8547,-2.1078 -1.9396,-1.9753 -0.1781,0.0217 -0.3243,0.0769 -0.4859,0.1021 0.2291,-0.2942 0.4102,-0.4726 0.5497,-0.84 0.4694,-1.2362 0.0566,-2.3512 -1.4582,-2.4026 -0.7988,-0.0011 -1.4685,0.418 -1.5983,1.2169 -0.0665,0.4284 -0.0021,0.8072 0.1549,1.2061 0.1988,0.5051 0.3406,0.534 0.5702,0.8374z"/>
  <path id="Paus" class="fil2" d="M8.1978 28.0264l0 0zm-1.3006 -2.2272l0 0zm1.7817 -0.0178l0 0zm-1.7817 0.0178c-0.4039,-0.0634 -0.5214,-0.1598 -1.0302,-0.0858 -0.9943,0.1445 -1.7004,0.8747 -1.4072,1.9353 0.1813,0.6558 0.5673,0.9885 1.2353,1.0807 0.4582,0.0632 1.1132,-0.205 1.4641,-0.5479l0.1478 -0.1551c-0.024,0.2862 -0.2291,1.0858 -0.3388,1.336 -0.3116,0.7107 -0.5094,0.7418 -0.659,1.0337l3.0111 0c-0.0321,-0.1192 -0.4636,-0.4984 -0.7248,-1.0213 -0.0949,-0.19 -0.1767,-0.4298 -0.2396,-0.6334 -0.0464,-0.15 -0.1582,-0.5621 -0.1581,-0.715 0.2389,0.1752 0.2257,0.2743 0.6709,0.4872 0.8409,0.4022 1.9018,0.2208 2.2357,-0.859 0.3833,-1.2397 -0.8547,-2.1078 -1.9396,-1.9753 -0.1781,0.0217 -0.3243,0.0769 -0.4859,0.1021 0.2291,-0.2942 0.4102,-0.4726 0.5497,-0.84 0.4694,-1.2362 0.0566,-2.3512 -1.4582,-2.4026 -0.7988,-0.0011 -1.4685,0.418 -1.5983,1.2169 -0.0665,0.4284 -0.0021,0.8072 0.1549,1.2061 0.1988,0.5051 0.3406,0.534 0.5702,0.8374z"/>
  <path id="_6_x0020_Inferior" class="fil3" d="M50.7371 77.2343c0,0.4328 -0.0217,0.772 -0.0696,1.0199 -0.0478,0.2479 -0.1239,0.4241 -0.2305,0.5263 -0.1044,0.1044 -0.2436,0.1522 -0.4175,0.15 -0.174,0.0022 -0.3132,-0.0456 -0.4175,-0.15 -0.1066,-0.1022 -0.1827,-0.2784 -0.2305,-0.5263 -0.0479,-0.2479 -0.0696,-0.5871 -0.0696,-1.0199 0,-0.4327 0.0217,-0.7719 0.0696,-1.0198 0.0478,-0.2479 0.1239,-0.4241 0.2305,-0.5263 0.1043,-0.1044 0.2435,-0.1522 0.4175,-0.15 0.1305,0.0021 0.2414,0.0456 0.3327,0.1348 0.0913,0.0891 0.1653,0.2109 0.2218,0.3653 0.0565,0.1566 0.0979,0.3371 0.124,0.5393 0.0261,0.2044 0.0391,0.4241 0.0391,0.6567zm-2.4008 3.275c-0.1978,0.0022 -0.3696,0.05 -0.5175,0.1435 -0.1479,0.0935 -0.2653,0.2197 -0.348,0.3784 -0.0826,0.1587 -0.1239,0.3371 -0.1261,0.535 0.0022,0.2413 0.0544,0.461 0.1588,0.6545 0.1022,0.1935 0.2413,0.3588 0.4175,0.498 0.1783,0.137 0.3784,0.2414 0.6024,0.3153 0.2218,0.0739 0.4566,0.1109 0.7002,0.1109 0.5632,0 1.0808,-0.0913 1.5505,-0.2762 0.4697,-0.1826 0.8763,-0.4545 1.2221,-0.8154 0.3458,-0.3588 0.6132,-0.8046 0.8024,-1.3352 0.1892,-0.5306 0.2849,-1.1439 0.2871,-1.8398 0,-0.4023 -0.037,-0.7959 -0.1153,-1.1808 -0.0761,-0.3849 -0.1957,-0.7458 -0.3588,-1.0829 -0.1631,-0.3371 -0.3697,-0.6328 -0.6241,-0.8894 -0.2566,-0.2566 -0.5611,-0.4589 -0.9133,-0.6046 -0.3545,-0.1457 -0.7633,-0.2196 -1.2243,-0.2218 -0.3784,0.0022 -0.7416,0.0631 -1.0852,0.1827 -0.3457,0.1196 -0.6545,0.2914 -0.9263,0.5132 -0.2719,0.224 -0.485,0.4871 -0.6437,0.7959 -0.1566,0.3088 -0.2371,0.6502 -0.2414,1.0264 0.0022,0.3284 0.0609,0.6372 0.1761,0.9286 0.1153,0.2892 0.2762,0.5458 0.4828,0.7676 0.2066,0.2218 0.4501,0.398 0.7285,0.5241 0.2783,0.1261 0.5806,0.1913 0.909,0.1935 0.1935,0 0.3718,-0.0261 0.5349,-0.0739 0.1631,-0.0457 0.3175,-0.1131 0.4654,-0.1957 0.1479,-0.0848 0.2979,-0.1827 0.448,-0.2914 0,0.0021 0.0021,0.0239 0.0043,0.0696 0.0022,0.0435 0.0044,0.0978 0.0087,0.1652 0.0044,0.0674 0.0065,0.1349 0.0087,0.2066 0.0022,0.0696 0.0044,0.1305 0.0044,0.1849 0.0021,0.5414 -0.0392,1.009 -0.1197,1.4026 -0.0804,0.3936 -0.2109,0.6958 -0.387,0.909 -0.1762,0.2131 -0.4089,0.3218 -0.6937,0.324 -0.0914,-0.0022 -0.1718,-0.0131 -0.2414,-0.037 -0.0674,-0.0239 -0.1196,-0.0457 -0.1588,-0.0696 -0.0369,-0.0217 -0.0565,-0.0348 -0.0565,-0.0369 0.087,-0.1153 0.1544,-0.2414 0.2066,-0.3784 0.0522,-0.1349 0.0783,-0.2871 0.0805,-0.4567 -0.0022,-0.1935 -0.0479,-0.3697 -0.137,-0.5262 -0.0892,-0.1566 -0.2088,-0.2806 -0.361,-0.3741 -0.1544,-0.0935 -0.3262,-0.1413 -0.5198,-0.1435z"/>
  <path id="_6" class="fil3" d="M7.2622 12.6759c0,-0.4328 0.0217,-0.772 0.0696,-1.0199 0.0478,-0.2479 0.1239,-0.4241 0.2305,-0.5263 0.1044,-0.1044 0.2436,-0.1522 0.4175,-0.15 0.174,-0.0022 0.3132,0.0456 0.4175,0.15 0.1066,0.1022 0.1827,0.2784 0.2305,0.5263 0.0479,0.2479 0.0696,0.5871 0.0696,1.0199 0,0.4327 -0.0217,0.7719 -0.0696,1.0198 -0.0478,0.2479 -0.1239,0.4241 -0.2305,0.5263 -0.1043,0.1044 -0.2435,0.1522 -0.4175,0.15 -0.1305,-0.0021 -0.2414,-0.0456 -0.3327,-0.1348 -0.0913,-0.0891 -0.1653,-0.2109 -0.2218,-0.3653 -0.0565,-0.1566 -0.0979,-0.3371 -0.124,-0.5393 -0.0261,-0.2044 -0.0391,-0.4241 -0.0391,-0.6567zm2.4008 -3.275c0.1978,-0.0022 0.3696,-0.05 0.5175,-0.1435 0.1479,-0.0935 0.2653,-0.2197 0.348,-0.3784 0.0826,-0.1587 0.1239,-0.3371 0.1261,-0.535 -0.0022,-0.2413 -0.0544,-0.461 -0.1588,-0.6545 -0.1022,-0.1935 -0.2413,-0.3588 -0.4175,-0.498 -0.1783,-0.137 -0.3784,-0.2414 -0.6024,-0.3153 -0.2218,-0.0739 -0.4566,-0.1109 -0.7002,-0.1109 -0.5632,0 -1.0808,0.0913 -1.5505,0.2762 -0.4697,0.1826 -0.8763,0.4545 -1.2221,0.8154 -0.3458,0.3588 -0.6132,0.8046 -0.8024,1.3352 -0.1892,0.5306 -0.2849,1.1439 -0.2871,1.8398 0,0.4023 0.037,0.7959 0.1153,1.1808 0.0761,0.3849 0.1957,0.7458 0.3588,1.0829 0.1631,0.3371 0.3697,0.6328 0.6241,0.8894 0.2566,0.2566 0.5611,0.4589 0.9133,0.6046 0.3545,0.1457 0.7633,0.2196 1.2243,0.2218 0.3784,-0.0022 0.7416,-0.0631 1.0852,-0.1827 0.3457,-0.1196 0.6545,-0.2914 0.9263,-0.5132 0.2719,-0.224 0.485,-0.4871 0.6437,-0.7959 0.1566,-0.3088 0.2371,-0.6502 0.2414,-1.0264 -0.0022,-0.3284 -0.0609,-0.6372 -0.1761,-0.9286 -0.1153,-0.2892 -0.2762,-0.5458 -0.4828,-0.7676 -0.2066,-0.2218 -0.4501,-0.398 -0.7285,-0.5241 -0.2783,-0.1261 -0.5806,-0.1913 -0.909,-0.1935 -0.1935,0 -0.3718,0.0261 -0.5349,0.0739 -0.1631,0.0457 -0.3175,0.1131 -0.4654,0.1957 -0.1479,0.0848 -0.2979,0.1827 -0.448,0.2914 0,-0.0021 -0.0021,-0.0239 -0.0043,-0.0696 -0.0022,-0.0435 -0.0044,-0.0978 -0.0087,-0.1652 -0.0044,-0.0674 -0.0065,-0.1349 -0.0087,-0.2066 -0.0022,-0.0696 -0.0044,-0.1305 -0.0044,-0.1849 -0.0021,-0.5414 0.0392,-1.009 0.1197,-1.4026 0.0804,-0.3936 0.2109,-0.6958 0.387,-0.909 0.1762,-0.2131 0.4089,-0.3218 0.6937,-0.324 0.0914,0.0022 0.1718,0.0131 0.2414,0.037 0.0674,0.0239 0.1196,0.0457 0.1588,0.0696 0.0369,0.0217 0.0565,0.0348 0.0565,0.0369 -0.087,0.1153 -0.1544,0.2414 -0.2066,0.3784 -0.0522,0.1349 -0.0783,0.2871 -0.0805,0.4567 0.0022,0.1935 0.0479,0.3697 0.137,0.5262 0.0892,0.1566 0.2088,0.2806 0.361,0.3741 0.1544,0.0935 0.3262,0.1413 0.5198,0.1435z"/>
  <path class="fil4" style="mask:url(#id0)" d="M16.8164 47.9549m2.8279 -2.1082l0.6265 0 0 -1.7526 -0.9144 0 0.1016 0.4995 -0.6519 0 0 -1.6679 1.4986 0 -0.1016 0.9144 1.0075 0 0 -1.8034 -4.1402 0 0 0.9652 0.5334 -0.1016 0 4.191 -0.5334 -0.1016 0 0.9652 2.3791 0 0 -0.9652 -0.6434 0.1016 0 -1.7357 0.7366 0 0.1016 0.4911zm1.7695 2.1082m2.794 -4.7668l0.4995 2.2607 -0.9821 0 0.4826 -2.2607zm0.6096 -1.1514l-1.2023 0 -1.5832 5.0546 -0.4911 -0.1016 0 0.9652 2.2691 0 0 -0.9652 -0.5758 0.1016 0.2202 -0.7451 1.524 0 0.2201 0.7451 -0.5842 -0.1016 0 0.9652 2.2776 0 0 -0.9652 -0.4996 0.1016 -1.5748 -5.0546zm2.2014 5.9182m0.0847 -5.9182l0 1.8034 1.0075 0 -0.1016 -0.9144 0.762 0 0 4.1656 -0.7027 -0.1016 0 0.9652 2.6162 0 0 -0.9652 -0.7112 0.1016 0 -4.1656 0.762 0 -0.1016 0.9144 1.0075 0 0 -1.8034 -4.5381 0zm4.6228 5.9182m3.2766 -1.8034l0.1016 0.9144 -1.4986 0 0 -1.7187 0.7366 0 0.1016 0.4995 0.6181 0 0 -1.7526 -0.906 0 0.1016 0.508 -0.6519 0 0 -1.668 1.4986 0 -0.1016 0.906 1.0076 0 0 -1.8034 -4.1403 0 0 0.9652 0.5334 -0.1016 0 4.191 -0.5334 -0.1016 0 0.9652 4.1403 0 0 -1.8034 -1.0076 0zm1.3547 1.8034m3.7084 -5.9182l0.1016 0.5334c-0.1129,-0.1694 -0.2836,-0.3161 -0.5122,-0.4403 -0.2286,-0.1242 -0.4615,-0.1863 -0.6985,-0.1863 -0.6491,0 -1.1896,0.2428 -1.6214,0.7282 -0.4318,0.4854 -0.6477,1.2531 -0.6477,2.3029 0,1.0668 0.223,1.8472 0.6689,2.3411 0.4459,0.4939 1.0216,0.7408 1.7272,0.7408 1.0781,0 1.778,-0.5673 2.0997,-1.7018l-0.8805 -0.3133c-0.2597,0.7507 -0.6407,1.1261 -1.143,1.1261 -0.3782,0 -0.6844,-0.1905 -0.9187,-0.5715 -0.2342,-0.381 -0.3513,-0.9186 -0.3513,-1.6129 0,-0.6999 0.1143,-1.2333 0.3429,-1.6002 0.2286,-0.3669 0.5094,-0.5504 0.8424,-0.5504 0.2709,0 0.5489,0.1228 0.834,0.3683 0.285,0.2456 0.4275,0.6082 0.4275,1.088l0.7367 0 0 -2.2521 -1.0076 0z"/>
 </g>
</svg>
