<?xml version="1.0" encoding="UTF-8"?>
<!DOCTYPE svg PUBLIC "-//W3C//DTD SVG 1.1//EN" "http://www.w3.org/Graphics/SVG/1.1/DTD/svg11.dtd">
<!-- Creator: CorelDRAW -->
<svg xmlns="http://www.w3.org/2000/svg" xml:space="preserve" width="58mm" height="90mm" style="shape-rendering:geometricPrecision; text-rendering:geometricPrecision; image-rendering:optimizeQuality; fill-rule:evenodd; clip-rule:evenodd"
viewBox="0 0 58 90"
 xmlns:xlink="http://www.w3.org/1999/xlink">
 <defs>
  <style type="text/css">
   <![CDATA[
    .str0 {stroke:black;stroke-width:0.25}
    .str1 {stroke:black;stroke-width:0.5}
    .fil1 {fill:none}
    .fil4 {fill:none;fill-rule:nonzero}
    .fil2 {fill:black}
    .fil0 {fill:white}
    .fil3 {fill:black;fill-rule:nonzero}
   ]]>
  </style>
   <mask id="id0">
  <radialGradient id="id1" gradientUnits="userSpaceOnUse" cx="29" cy="37.9472" r="12.1836" fx="29" fy="37.9472">
   <stop offset="0" style="stop-opacity:0.419608; stop-color:white"/>
   <stop offset="1" style="stop-opacity:1; stop-color:white"/>
  </radialGradient>
    <rect style="fill:url(#id1)" x="16.8164" y="40.9021" width="24.6974" height="9.8129"/>
   </mask>
 </defs>
 <g id="Camada_x0020_1">
  <metadata id="CorelCorpID_0Corel-Layer"/>
  <rect id="Carta" class="fil0 str0" x="0.499998" y="0.500029" width="57" height="89" rx="2.6308" ry="2.6308"/>
  <rect id="Retângulo_x0020_Preto" class="fil1 str1" x="15.0661" y="20.1219" width="27.8678" height="49.7562" rx="1.2862" ry="1.2862"/>
  <path id="Paus_x0020_Inferior" class="fil2" d="M49.7933 62.1575l0 0zm1.2986 2.2237l0 0zm-1.779 0.0178l0 0zm1.779 -0.0178c0.4032,0.0634 0.5206,0.1596 1.0286,0.0858 0.9928,-0.1444 1.6978,-0.8734 1.405,-1.9323 -0.181,-0.6549 -0.5663,-0.987 -1.2334,-1.0791 -0.4574,-0.0631 -1.1114,0.2047 -1.4618,0.5471l-0.1476 0.1548c0.0239,-0.2858 0.2288,-1.0841 0.3383,-1.334 0.3111,-0.7095 0.5086,-0.7406 0.658,-1.032l-3.0065 0c0.0321,0.1189 0.4629,0.4976 0.7237,1.0197 0.0947,0.1897 0.1764,0.4291 0.2393,0.6324 0.0463,0.1498 0.1579,0.5612 0.1578,0.7139 -0.2385,-0.1749 -0.2253,-0.2738 -0.6699,-0.4865 -0.8396,-0.4015 -1.8988,-0.2204 -2.2322,0.8578 -0.3827,1.2378 0.8533,2.1045 1.9366,1.9722 0.1778,-0.0217 0.3238,-0.0768 0.4851,-0.102 -0.2287,0.2938 -0.4096,0.4719 -0.5489,0.8387 -0.4686,1.2344 -0.0564,2.3477 1.4561,2.399 0.7975,0.001 1.4662,-0.4174 1.5958,-1.215 0.0664,-0.4279 0.0021,-0.8061 -0.1547,-1.2044 -0.1985,-0.5042 -0.3401,-0.5331 -0.5693,-0.8361z"/>
  <path id="Paus_x0020_Central" class="fil2" d="M29.4136 46.559l0 0zm-1.3006 -2.2272l0 0zm1.7817 -0.0178l0 0zm-1.7817 0.0178c-0.4039,-0.0634 -0.5214,-0.1598 -1.0302,-0.0858 -0.9943,0.1445 -1.7004,0.8747 -1.4072,1.9353 0.1813,0.6558 0.5673,0.9885 1.2353,1.0807 0.4582,0.0632 1.1132,-0.205 1.4641,-0.5479l0.1478 -0.1551c-0.024,0.2862 -0.2291,1.0858 -0.3388,1.336 -0.3116,0.7107 -0.5094,0.7418 -0.659,1.0337l3.0111 0c-0.0321,-0.1192 -0.4636,-0.4984 -0.7248,-1.0213 -0.0949,-0.19 -0.1767,-0.4298 -0.2396,-0.6334 -0.0464,-0.15 -0.1582,-0.5621 -0.1581,-0.715 0.2389,0.1752 0.2257,0.2743 0.6709,0.4872 0.8409,0.4022 1.9018,0.2208 2.2357,-0.859 0.3833,-1.2397 -0.8547,-2.1078 -1.9396,-1.9753 -0.1781,0.0217 -0.3243,0.0769 -0.4859,0.1021 0.2291,-0.2942 0.4102,-0.4726 0.5497,-0.84 0.4694,-1.2362 0.0566,-2.3512 -1.4582,-2.4026 -0.7988,-0.0011 -1.4685,0.418 -1.5983,1.2169 -0.0665,0.4284 -0.0021,0.8072 0.1549,1.2061 0.1988,0.5051 0.3406,0.534 0.5702,0.8374z"/>
  <path id="Paus" class="fil2" d="M8.1978 28.0264l0 0zm-1.3006 -2.2272l0 0zm1.7817 -0.0178l0 0zm-1.7817 0.0178c-0.4039,-0.0634 -0.5214,-0.1598 -1.0302,-0.0858 -0.9943,0.1445 -1.7004,0.8747 -1.4072,1.9353 0.1813,0.6558 0.5673,0.9885 1.2353,1.0807 0.4582,0.0632 1.1132,-0.205 1.4641,-0.5479l0.1478 -0.1551c-0.024,0.2862 -0.2291,1.0858 -0.3388,1.336 -0.3116,0.7107 -0.5094,0.7418 -0.659,1.0337l3.0111 0c-0.0321,-0.1192 -0.4636,-0.4984 -0.7248,-1.0213 -0.0949,-0.19 -0.1767,-0.4298 -0.2396,-0.6334 -0.0464,-0.15 -0.1582,-0.5621 -0.1581,-0.715 0.2389,0.1752 0.2257,0.2743 0.6709,0.4872 0.8409,0.4022 1.9018,0.2208 2.2357,-0.859 0.3833,-1.2397 -0.8547,-2.1078 -1.9396,-1.9753 -0.1781,0.0217 -0.3243,0.0769 -0.4859,0.1021 0.2291,-0.2942 0.4102,-0.4726 0.5497,-0.84 0.4694,-1.2362 0.0566,-2.3512 -1.4582,-2.4026 -0.7988,-0.0011 -1.4685,0.418 -1.5983,1.2169 -0.0665,0.4284 -0.0021,0.8072 0.1549,1.2061 0.1988,0.5051 0.3406,0.534 0.5702,0.8374z"/>
  <path id="J_x0020_Inferior" class="fil3" d="M50.15 77.143c0,-0.1848 0.013,-0.3718 0.0435,-0.5589 0.0304,-0.187 0.0804,-0.3609 0.1522,-0.5175 0.0717,-0.1588 0.1674,-0.2849 0.2892,-0.3806 0.1218,-0.0956 0.2718,-0.1457 0.4545,-0.1478 0.1392,0.0021 0.2653,0.0391 0.3762,0.1087 0.1131,0.0696 0.1957,0.1566 0.2501,0.2566 -0.137,0.0283 -0.2697,0.0935 -0.3958,0.1957 -0.1261,0.1044 -0.2305,0.2327 -0.3131,0.3871 -0.0805,0.1522 -0.124,0.3197 -0.1262,0.5001 0.0022,0.2153 0.0566,0.4089 0.1588,0.5828 0.1044,0.1718 0.2435,0.3088 0.4175,0.4089 0.174,0.1022 0.3697,0.1544 0.585,0.1565 0.2413,-0.0043 0.4479,-0.0674 0.6241,-0.1913 0.1739,-0.1262 0.3088,-0.2914 0.4045,-0.4958 0.0956,-0.2045 0.1435,-0.4263 0.1457,-0.6698 -0.0022,-0.3132 -0.0696,-0.5915 -0.2023,-0.8372 -0.1305,-0.2436 -0.3131,-0.4502 -0.5458,-0.6176 -0.2327,-0.1675 -0.5045,-0.2958 -0.809,-0.3828 -0.3066,-0.0891 -0.6349,-0.1326 -0.9872,-0.1326 -0.5828,0.0022 -1.0895,0.0957 -1.5222,0.2805 -0.4328,0.1849 -0.7699,0.4523 -1.0091,0.8003 -0.2392,0.3479 -0.3609,0.7654 -0.3653,1.2547l0 5.4278 -0.6002 0 0 0.7829 3.5751 0 0 -0.7829 -0.6002 0 0 -5.4278z"/>
  <path id="J" class="fil3" d="M7.8493 12.7672c0,0.1848 -0.013,0.3718 -0.0435,0.5589 -0.0304,0.187 -0.0804,0.3609 -0.1522,0.5175 -0.0717,0.1588 -0.1674,0.2849 -0.2892,0.3806 -0.1218,0.0956 -0.2718,0.1457 -0.4545,0.1478 -0.1392,-0.0021 -0.2653,-0.0391 -0.3762,-0.1087 -0.1131,-0.0696 -0.1957,-0.1566 -0.2501,-0.2566 0.137,-0.0283 0.2697,-0.0935 0.3958,-0.1957 0.1261,-0.1044 0.2305,-0.2327 0.3131,-0.3871 0.0805,-0.1522 0.124,-0.3197 0.1262,-0.5001 -0.0022,-0.2153 -0.0566,-0.4089 -0.1588,-0.5828 -0.1044,-0.1718 -0.2435,-0.3088 -0.4175,-0.4089 -0.174,-0.1022 -0.3697,-0.1544 -0.585,-0.1565 -0.2413,0.0043 -0.4479,0.0674 -0.6241,0.1913 -0.1739,0.1262 -0.3088,0.2914 -0.4045,0.4958 -0.0956,0.2045 -0.1435,0.4263 -0.1457,0.6698 0.0022,0.3132 0.0696,0.5915 0.2023,0.8372 0.1305,0.2436 0.3131,0.4502 0.5458,0.6176 0.2327,0.1675 0.5045,0.2958 0.809,0.3828 0.3066,0.0891 0.6349,0.1326 0.9872,0.1326 0.5828,-0.0022 1.0895,-0.0957 1.5222,-0.2805 0.4328,-0.1849 0.7699,-0.4523 1.0091,-0.8003 0.2392,-0.3479 0.3609,-0.7654 0.3653,-1.2547l0 -5.4278 0.6002 0 0 -0.7829 -3.5751 0 0 0.7829 0.6002 0 0 5.4278z"/>
  <path class="fil4" style="mask:url(#id0)" d="M16.8164 47.9549m2.8279 -2.1082l0.6265 0 0 -1.7526 -0.9144 0 0.1016 0.4995 -0.6519 0 0 -1.6679 1.4986 0 -0.1016 0.9144 1.0075 0 0 -1.8034 -4.1402 0 0 0.9652 0.5334 -0.1016 0 4.191 -0.5334 -0.1016 0 0.9652 2.3791 0 0 -0.9652 -0.6434 0.1016 0 -1.7357 0.7366 0 0.1016 0.4911zm1.7695 2.1082m2.794 -4.7668l0.4995 2.2607 -0.9821 0 0.4826 -2.2607zm0.6096 -1.1514l-1.2023 0 -1.5832 5.0546 -0.4911 -0.1016 0 0.9652 2.2691 0 0 -0.9652 -0.5758 0.1016 0.2202 -0.7451 1.524 0 0.2201 0.7451 -0.5842 -0.1016 0 0.9652 2.2776 0 0 -0.9652 -0.4996 0.1016 -1.5748 -5.0546zm2.2014 5.9182m0.0847 -5.9182l0 1.8034 1.0075 0 -0.1016 -0.9144 0.762 0 0 4.1656 -0.7027 -0.1016 0 0.9652 2.6162 0 0 -0.9652 -0.7112 0.1016 0 -4.1656 0.762 0 -0.1016 0.9144 1.0075 0 0 -1.8034 -4.5381 0zm4.6228 5.9182m3.2766 -1.8034l0.1016 0.9144 -1.4986 0 0 -1.7187 0.7366 0 0.1016 0.4995 0.6181 0 0 -1.7526 -0.906 0 0.1016 0.508 -0.6519 0 0 -1.668 1.4986 0 -0.1016 0.906 1.0076 0 0 -1.8034 -4.1403 0 0 0.9652 0.5334 -0.1016 0 4.191 -0.5334 -0.1016 0 0.9652 4.1403 0 0 -1.8034 -1.0076 0zm1.3547 1.8034m3.7084 -5.9182l0.1016 0.5334c-0.1129,-0.1694 -0.2836,-0.3161 -0.5122,-0.4403 -0.2286,-0.1242 -0.4615,-0.1863 -0.6985,-0.1863 -0.6491,0 -1.1896,0.2428 -1.6214,0.7282 -0.4318,0.4854 -0.6477,1.2531 -0.6477,2.3029 0,1.0668 0.223,1.8472 0.6689,2.3411 0.4459,0.4939 1.0216,0.7408 1.7272,0.7408 1.0781,0 1.778,-0.5673 2.0997,-1.7018l-0.8805 -0.3133c-0.2597,0.7507 -0.6407,1.1261 -1.143,1.1261 -0.3782,0 -0.6844,-0.1905 -0.9187,-0.5715 -0.2342,-0.381 -0.3513,-0.9186 -0.3513,-1.6129 0,-0.6999 0.1143,-1.2333 0.3429,-1.6002 0.2286,-0.3669 0.5094,-0.5504 0.8424,-0.5504 0.2709,0 0.5489,0.1228 0.834,0.3683 0.285,0.2456 0.4275,0.6082 0.4275,1.088l0.7367 0 0 -2.2521 -1.0076 0z"/>
 </g>
</svg>
